<?xml version="1.0" encoding="utf-8"?>
<!-- Generator: Adobe Illustrator 16.0.0, SVG Export Plug-In . SVG Version: 6.00 Build 0)  -->
<!DOCTYPE svg PUBLIC "-//W3C//DTD SVG 1.1//EN" "http://www.w3.org/Graphics/SVG/1.1/DTD/svg11.dtd">
<svg version="1.1" id="Layer_1" xmlns="http://www.w3.org/2000/svg" xmlns:xlink="http://www.w3.org/1999/xlink" x="0px" y="0px"
	 width="85.1px" height="92.4px" viewBox="0 0 85.1 92.4" style="enable-background:new 0 0 85.1 92.4;" xml:space="preserve">
<style type="text/css">
<![CDATA[
	.st0{fill:#FFFFFF;}
	.st1{fill-rule:evenodd;clip-rule:evenodd;fill:#FFFFFF;}
]]>
</style>
<path class="st1" d="M-0.4,49c19.7,17.8,36.6,9.1,55.9,5.3c12-2.3,18.7-3.9,29.7,4.4C73.9,46.4,69.4,45.6,47.2,50
	C27.8,53.8,16.6,57.8-0.4,49L-0.4,49z"/>
<path class="st1" d="M74.2,16.3L63,26L46.1,0.2L27.9,30.8L16.7,15L8.4,28.8l-8.8,13c35.8,21.6,36.8-5,85.5,5.8L74.2,16.3z M19,28.9
	L13,40.2l-0.1-9.8l-6.8,5.9l9-15.8l15,15L19,28.9z M52.3,20.7l-4,11.7l-3.9-11.7L34,27.4L46.9,5.9l13.6,20.6L52.3,20.7z M71.1,35.7
	L70.6,29l-7.3,4.1l9.1-10.9L79.1,33l-5.3-3.5L71.1,35.7z"/>
<g>
	<path class="st0" d="M8,72.8c0.5,0,0.8,0,1,0.1c0.1,0.1,0.2,0.3,0.2,0.5c0,0.3-0.1,0.5-0.2,0.6c-0.1,0.1-0.4,0.2-0.9,0.2H3.3
		c-0.4,0-0.7-0.1-0.9-0.2c-0.1-0.1-0.2-0.3-0.2-0.6c0-0.3,0.1-0.5,0.2-0.5c0.2-0.1,0.5-0.1,1-0.1h1.5v-3.3l-3.4-5.7H1.4
		c-0.4,0-0.7-0.1-0.8-0.2S0.4,63.3,0.4,63c0-0.2,0.1-0.4,0.2-0.5c0.1-0.1,0.3-0.2,0.6-0.2h0.5h2.3c0.4,0,0.7,0.1,0.8,0.2
		c0.1,0.1,0.2,0.3,0.2,0.6c0,0.3-0.1,0.5-0.2,0.6c-0.2,0.1-0.5,0.2-0.9,0.2H3.4l2.4,4.4l2.5-4.4H8c-0.4,0-0.6-0.1-0.8-0.2
		C7.1,63.4,7,63.3,7,63c0-0.3,0.1-0.5,0.2-0.6c0.1-0.1,0.4-0.2,0.9-0.2h0.3H10c0.5,0,0.8,0.1,1,0.2c0.1,0.1,0.2,0.3,0.2,0.6
		c0,0.3-0.1,0.5-0.2,0.6s-0.4,0.2-0.8,0.2H10l-3.4,5.9v3.2H8z"/>
	<path class="st0" d="M20.5,72.9c-0.6,0.5-1.2,0.9-1.8,1.1c-0.6,0.3-1.3,0.4-2,0.4c-1,0-1.8-0.3-2.4-0.8s-0.9-1.3-0.9-2.2
		c0-1.1,0.4-1.9,1.2-2.5c0.8-0.6,2-0.9,3.4-0.9c0.4,0,0.8,0,1.2,0.1c0.4,0.1,0.8,0.1,1.2,0.2v-0.1c0-0.8-0.2-1.3-0.6-1.7
		s-0.9-0.6-1.7-0.6c-0.5,0-1.1,0.1-1.8,0.4c-0.6,0.3-1.1,0.4-1.3,0.4c-0.2,0-0.4-0.1-0.5-0.2c-0.1-0.2-0.2-0.4-0.2-0.6
		c0-0.4,0.4-0.7,1.1-1c0.7-0.3,1.7-0.4,2.9-0.4c1.2,0,2.1,0.3,2.7,0.9c0.6,0.6,0.9,1.5,0.9,2.7v4.6h0.5c0.5,0,0.8,0.1,1,0.2
		c0.2,0.1,0.2,0.3,0.2,0.5c0,0.2-0.1,0.4-0.2,0.5s-0.3,0.2-0.6,0.2h-1.6c-0.2,0-0.3-0.1-0.5-0.2c-0.1-0.1-0.2-0.3-0.2-0.5L20.5,72.9
		z M20.4,69.8c-0.4-0.1-0.7-0.2-1.1-0.3c-0.3-0.1-0.7-0.1-1-0.1c-1,0-1.9,0.2-2.5,0.5S15,70.8,15,71.4c0,0.5,0.2,0.8,0.6,1.1
		c0.4,0.3,0.8,0.4,1.4,0.4c0.9,0,1.6-0.2,2.4-0.7c0.7-0.4,1.1-0.9,1.1-1.4V69.8z"/>
	<path class="st0" d="M32.9,72.9c-0.6,0.5-1.2,0.9-1.8,1.1c-0.6,0.3-1.3,0.4-2,0.4c-1,0-1.8-0.3-2.4-0.8s-0.9-1.3-0.9-2.2
		c0-1.1,0.4-1.9,1.2-2.5c0.8-0.6,2-0.9,3.4-0.9c0.4,0,0.8,0,1.2,0.1c0.4,0.1,0.8,0.1,1.2,0.2v-0.1c0-0.8-0.2-1.3-0.6-1.7
		s-0.9-0.6-1.7-0.6c-0.5,0-1.1,0.1-1.8,0.4c-0.6,0.3-1.1,0.4-1.3,0.4c-0.2,0-0.4-0.1-0.5-0.2c-0.1-0.2-0.2-0.4-0.2-0.6
		c0-0.4,0.4-0.7,1.1-1c0.7-0.3,1.7-0.4,2.9-0.4c1.2,0,2.1,0.3,2.7,0.9c0.6,0.6,0.9,1.5,0.9,2.7v4.6h0.5c0.5,0,0.8,0.1,1,0.2
		c0.2,0.1,0.2,0.3,0.2,0.5c0,0.2-0.1,0.4-0.2,0.5s-0.3,0.2-0.6,0.2h-1.6c-0.2,0-0.3-0.1-0.5-0.2c-0.1-0.1-0.2-0.3-0.2-0.5L32.9,72.9
		z M32.8,69.8c-0.4-0.1-0.7-0.2-1.1-0.3c-0.3-0.1-0.7-0.1-1-0.1c-1,0-1.9,0.2-2.5,0.5s-0.9,0.8-0.9,1.4c0,0.5,0.2,0.8,0.6,1.1
		c0.4,0.3,0.8,0.4,1.4,0.4c0.9,0,1.6-0.2,2.4-0.7c0.7-0.4,1.1-0.9,1.1-1.4V69.8z"/>
	<path class="st0" d="M46.7,68.6c0-0.9-0.1-1.6-0.3-1.9c-0.2-0.3-0.5-0.5-0.9-0.5c-0.5,0-0.9,0.2-1.2,0.6c-0.3,0.4-0.4,1-0.4,1.8
		v4.2h0.2c0.4,0,0.7,0,0.8,0.1c0.1,0.1,0.2,0.3,0.2,0.5c0,0.2-0.1,0.4-0.2,0.5s-0.3,0.2-0.5,0.2h-1.3c-0.3,0-0.5-0.1-0.6-0.2
		c-0.1-0.1-0.2-0.4-0.2-0.9v-0.3v-4.3v-0.8c0-0.5-0.1-0.9-0.3-1.2c-0.2-0.3-0.5-0.4-0.9-0.4c-0.3,0-0.6,0.1-0.8,0.3
		c-0.3,0.2-0.5,0.4-0.6,0.8v5.6h0.4c0.4,0,0.7,0.1,0.8,0.2c0.1,0.1,0.2,0.3,0.2,0.5c0,0.3-0.1,0.5-0.2,0.6s-0.3,0.2-0.7,0.2h-2.7
		c-0.3,0-0.5-0.1-0.6-0.2c-0.1-0.1-0.2-0.3-0.2-0.5c0-0.3,0.1-0.5,0.2-0.5c0.2-0.1,0.5-0.1,0.9-0.1h0.2v-6.5H38
		c-0.5,0-0.8-0.1-1-0.2c-0.2-0.1-0.3-0.3-0.3-0.6c0-0.2,0.1-0.4,0.2-0.5c0.1-0.1,0.3-0.2,0.6-0.2h1.6c0.2,0,0.4,0,0.4,0.1
		c0.1,0.1,0.1,0.2,0.1,0.5c0.3-0.3,0.6-0.5,0.9-0.7c0.3-0.1,0.7-0.2,1.1-0.2c0.5,0,0.9,0.1,1.2,0.3s0.5,0.5,0.7,0.9
		c0.3-0.4,0.6-0.7,1-0.9c0.4-0.2,0.8-0.3,1.3-0.3c0.9,0,1.5,0.3,1.9,0.8c0.4,0.6,0.6,1.5,0.6,2.7v4.6h0.2c0.4,0,0.7,0.1,0.8,0.2
		c0.1,0.1,0.2,0.3,0.2,0.5c0,0.2-0.1,0.4-0.2,0.5s-0.3,0.2-0.5,0.2h-1.2c-0.3,0-0.5-0.1-0.6-0.2c-0.1-0.2-0.2-0.4-0.2-0.8V68.6z"/>
	<path class="st0" d="M56.3,72.8h3.2c0.3,0,0.5,0.1,0.6,0.2c0.1,0.1,0.2,0.3,0.2,0.5c0,0.3-0.1,0.5-0.2,0.6s-0.3,0.2-0.7,0.2h-7.8
		c-0.3,0-0.5-0.1-0.6-0.2s-0.2-0.3-0.2-0.5c0-0.2,0.1-0.4,0.2-0.5s0.4-0.2,0.6-0.2h3.1v-6.5h-2c-0.3,0-0.5-0.1-0.6-0.2
		S52,65.8,52,65.6s0.1-0.4,0.2-0.5c0.1-0.1,0.3-0.2,0.6-0.2h3c0.2,0,0.3,0,0.4,0.1c0.1,0.1,0.2,0.2,0.2,0.3V72.8z M54.5,62
		c0-0.7,0.1-1.2,0.2-1.4c0.1-0.2,0.4-0.3,0.8-0.3c0.4,0,0.7,0.1,0.8,0.2s0.2,0.5,0.2,1.1c0,0.6-0.1,0.9-0.2,1.1
		c-0.1,0.1-0.4,0.2-0.8,0.2c-0.4,0-0.7-0.1-0.8-0.2C54.5,62.7,54.5,62.4,54.5,62z"/>
	<path class="st0" d="M64,72.8v-6.5h-0.2c-0.5,0-0.8-0.1-0.9-0.2c-0.2-0.1-0.3-0.3-0.3-0.6c0-0.2,0.1-0.4,0.2-0.5
		c0.1-0.1,0.4-0.2,0.7-0.2H64h1c0.2,0,0.3,0,0.4,0.1c0.1,0.1,0.2,0.2,0.2,0.3V66c0.5-0.5,1-0.8,1.5-1s1-0.3,1.5-0.3
		c1,0,1.8,0.3,2.4,0.9c0.6,0.6,0.9,1.5,0.9,2.6v4.6h0.5c0.3,0,0.6,0.1,0.7,0.2c0.1,0.1,0.2,0.3,0.2,0.5c0,0.3-0.1,0.4-0.2,0.6
		c-0.2,0.1-0.4,0.2-0.8,0.2h-2.2c-0.4,0-0.7-0.1-0.8-0.2s-0.2-0.3-0.2-0.6c0-0.3,0.1-0.4,0.2-0.5c0.1-0.1,0.4-0.2,0.8-0.2h0.4v-4.2
		c0-0.8-0.2-1.4-0.5-1.8c-0.4-0.4-0.9-0.6-1.6-0.6c-0.7,0-1.3,0.2-1.8,0.7c-0.5,0.5-0.8,1-0.8,1.7v4.2h0.4c0.4,0,0.7,0.1,0.8,0.2
		c0.1,0.1,0.2,0.3,0.2,0.5c0,0.3-0.1,0.5-0.2,0.6s-0.4,0.2-0.9,0.2H64h-0.5c-0.3,0-0.5-0.1-0.6-0.2c-0.1-0.1-0.2-0.3-0.2-0.5
		c0-0.3,0.1-0.5,0.2-0.5c0.2-0.1,0.5-0.1,0.9-0.1H64z"/>
	<path class="st0" d="M81.1,72.8h3.2c0.3,0,0.5,0.1,0.6,0.2c0.1,0.1,0.2,0.3,0.2,0.5c0,0.3-0.1,0.5-0.2,0.6s-0.3,0.2-0.7,0.2h-7.8
		c-0.3,0-0.5-0.1-0.6-0.2s-0.2-0.3-0.2-0.5c0-0.2,0.1-0.4,0.2-0.5s0.4-0.2,0.6-0.2h3.1v-6.5h-2c-0.3,0-0.5-0.1-0.6-0.2
		s-0.2-0.3-0.2-0.5s0.1-0.4,0.2-0.5c0.1-0.1,0.3-0.2,0.6-0.2h3c0.2,0,0.3,0,0.4,0.1c0.1,0.1,0.2,0.2,0.2,0.3V72.8z M79.3,62
		c0-0.7,0.1-1.2,0.2-1.4c0.1-0.2,0.4-0.3,0.8-0.3c0.4,0,0.7,0.1,0.8,0.2s0.2,0.5,0.2,1.1c0,0.6-0.1,0.9-0.2,1.1
		C81,62.9,80.7,63,80.3,63c-0.4,0-0.7-0.1-0.8-0.2C79.3,62.7,79.3,62.4,79.3,62z"/>
	<path class="st0" d="M8.5,82c0.3,0,0.6,0.1,0.7,0.2s0.2,0.3,0.2,0.5c0,0.2-0.1,0.4-0.2,0.5c-0.1,0.1-0.4,0.2-0.6,0.2H4.6v3.4
		c0,1.1,0.1,1.8,0.4,2.2c0.3,0.4,0.8,0.5,1.5,0.5c0.6,0,1.3-0.2,2.2-0.5c0.9-0.4,1.4-0.5,1.6-0.5c0.2,0,0.3,0.1,0.5,0.2
		s0.2,0.3,0.2,0.5c0,0.2-0.1,0.4-0.2,0.6c-0.2,0.2-0.4,0.3-0.8,0.5c-0.7,0.3-1.3,0.5-1.8,0.6c-0.5,0.1-1,0.2-1.5,0.2
		c-0.8,0-1.4-0.1-2-0.4c-0.5-0.3-0.9-0.6-1.2-1.1c-0.1-0.2-0.2-0.5-0.3-0.8C3,88.3,3,87.8,3,87.1v-0.3v-3.4H1.3
		c-0.3,0-0.5-0.1-0.6-0.2c-0.1-0.1-0.2-0.3-0.2-0.5c0-0.3,0.1-0.5,0.3-0.6C0.9,82,1.3,82,1.9,82H3v-2.1v-0.5c0-0.3,0.1-0.5,0.2-0.6
		s0.3-0.2,0.6-0.2c0.3,0,0.5,0.1,0.6,0.3C4.5,79,4.6,79.4,4.6,80v2H8.5z"/>
	<path class="st0" d="M17.2,89.3h3.3c0.3,0,0.5,0.1,0.6,0.2c0.1,0.1,0.2,0.3,0.2,0.5c0,0.3-0.1,0.5-0.2,0.6s-0.3,0.2-0.7,0.2h-6.6
		c-0.3,0-0.5-0.1-0.6-0.2c-0.1-0.1-0.2-0.3-0.2-0.5c0-0.2,0.1-0.4,0.2-0.5c0.1-0.1,0.4-0.2,0.6-0.2h1.8v-6.5H15
		c-0.7,0-1.1-0.1-1.2-0.2c-0.2-0.1-0.2-0.3-0.2-0.6c0-0.2,0.1-0.4,0.2-0.5c0.1-0.1,0.3-0.2,0.6-0.2h2.3c0.2,0,0.3,0,0.4,0.1
		c0.1,0.1,0.1,0.2,0.1,0.3v1.7c0.6-0.8,1.3-1.4,2-1.8c0.7-0.4,1.4-0.6,2.2-0.6c0.6,0,1.1,0.1,1.5,0.4s0.6,0.6,0.6,0.9
		c0,0.2-0.1,0.5-0.3,0.7c-0.2,0.2-0.4,0.3-0.6,0.3c-0.2,0-0.4-0.1-0.8-0.3s-0.7-0.3-1-0.3c-0.5,0-1.1,0.2-1.7,0.6
		c-0.6,0.4-1.2,1-1.9,1.8V89.3z"/>
	<path class="st0" d="M32.9,89.5c-0.6,0.5-1.2,0.9-1.8,1.1c-0.6,0.3-1.3,0.4-2,0.4c-1,0-1.8-0.3-2.4-0.8s-0.9-1.3-0.9-2.2
		c0-1.1,0.4-1.9,1.2-2.5c0.8-0.6,2-0.9,3.4-0.9c0.4,0,0.8,0,1.2,0.1c0.4,0.1,0.8,0.1,1.2,0.2v-0.1c0-0.8-0.2-1.3-0.6-1.7
		s-0.9-0.6-1.7-0.6c-0.5,0-1.1,0.1-1.8,0.4c-0.6,0.3-1.1,0.4-1.3,0.4c-0.2,0-0.4-0.1-0.5-0.2c-0.1-0.2-0.2-0.4-0.2-0.6
		c0-0.4,0.4-0.7,1.1-1c0.7-0.3,1.7-0.4,2.9-0.4c1.2,0,2.1,0.3,2.7,0.9c0.6,0.6,0.9,1.5,0.9,2.7v4.6h0.5c0.5,0,0.8,0.1,1,0.2
		c0.2,0.1,0.2,0.3,0.2,0.5c0,0.2-0.1,0.4-0.2,0.5s-0.3,0.2-0.6,0.2h-1.6c-0.2,0-0.3-0.1-0.5-0.2c-0.1-0.1-0.2-0.3-0.2-0.5L32.9,89.5
		z M32.8,86.3c-0.4-0.1-0.7-0.2-1.1-0.3c-0.3-0.1-0.7-0.1-1-0.1c-1,0-1.9,0.2-2.5,0.5s-0.9,0.8-0.9,1.4c0,0.5,0.2,0.8,0.6,1.1
		c0.4,0.3,0.8,0.4,1.4,0.4c0.9,0,1.6-0.2,2.4-0.7c0.7-0.4,1.1-0.9,1.1-1.4V86.3z"/>
	<path class="st0" d="M38.4,82.9c-0.4,0-0.7-0.1-0.9-0.2c-0.2-0.1-0.2-0.3-0.2-0.6c0-0.2,0.1-0.4,0.2-0.5c0.1-0.1,0.3-0.2,0.6-0.2
		h2.8c0.4,0,0.6,0.1,0.8,0.2c0.1,0.1,0.2,0.3,0.2,0.5c0,0.3-0.1,0.5-0.3,0.6c-0.2,0.1-0.5,0.2-0.9,0.2h-0.4l2.6,6.5l2.9-6.5h-0.6
		c-0.5,0-0.9-0.1-1-0.2s-0.3-0.3-0.3-0.6c0-0.3,0.1-0.4,0.2-0.5c0.1-0.1,0.4-0.2,0.8-0.2h3.1c0.3,0,0.5,0.1,0.6,0.2
		c0.1,0.1,0.2,0.3,0.2,0.5c0,0.3-0.1,0.5-0.2,0.6c-0.2,0.1-0.5,0.2-0.9,0.2h-0.2l-3.3,7.4c-0.2,0.4-0.3,0.6-0.5,0.7
		c-0.2,0.1-0.4,0.2-0.7,0.2c-0.3,0-0.5-0.1-0.7-0.2s-0.3-0.3-0.5-0.7L38.4,82.9z"/>
	<path class="st0" d="M52,86.5c0.1,1,0.4,1.7,1,2.2c0.6,0.5,1.4,0.8,2.5,0.8c0.8,0,1.6-0.2,2.6-0.6c0.9-0.4,1.5-0.6,1.7-0.6
		c0.2,0,0.4,0.1,0.5,0.2c0.1,0.1,0.2,0.3,0.2,0.5c0,0.2-0.1,0.4-0.2,0.5c-0.1,0.2-0.4,0.3-0.7,0.5c-0.7,0.3-1.4,0.6-2.1,0.8
		S56,91,55.3,91c-1.5,0-2.8-0.4-3.7-1.3c-0.9-0.9-1.4-2.1-1.4-3.5c0-1.5,0.5-2.7,1.5-3.6c1-0.9,2.2-1.4,3.8-1.4
		c1.4,0,2.6,0.4,3.5,1.3c0.9,0.9,1.4,1.9,1.4,3.1c0,0.4-0.1,0.6-0.2,0.8c-0.2,0.1-0.6,0.2-1.3,0.2h-0.2H52z M52,85.2h6.6
		c-0.1-0.8-0.4-1.4-1-1.9s-1.3-0.7-2.1-0.7c-0.9,0-1.6,0.2-2.3,0.7C52.6,83.7,52.2,84.4,52,85.2z"/>
	<path class="st0" d="M67.1,79h-1.7c-0.7,0-1.1-0.1-1.2-0.2s-0.2-0.3-0.2-0.6c0-0.2,0.1-0.4,0.2-0.5c0.1-0.1,0.3-0.2,0.6-0.2h3.3
		c0.2,0,0.3,0,0.4,0.1c0.1,0.1,0.2,0.2,0.2,0.3v11.4h3.2c0.3,0,0.4,0.1,0.6,0.2c0.1,0.1,0.2,0.3,0.2,0.5c0,0.3-0.1,0.5-0.2,0.6
		s-0.3,0.2-0.6,0.2h-7.4c-0.3,0-0.5-0.1-0.6-0.2c-0.1-0.1-0.2-0.3-0.2-0.5c0-0.2,0.1-0.4,0.2-0.5s0.4-0.2,0.6-0.2h2.8V79z"/>
	<path class="st0" d="M75.8,90v-1.8c0-0.3,0.1-0.5,0.2-0.6c0.1-0.1,0.3-0.2,0.5-0.2c0.3,0,0.5,0.2,0.7,0.6c0.1,0.2,0.2,0.4,0.3,0.5
		c0.3,0.4,0.7,0.7,1.3,0.9c0.6,0.2,1.2,0.3,1.8,0.3c0.7,0,1.3-0.1,1.7-0.4c0.4-0.3,0.6-0.7,0.6-1.1c0-0.5-0.2-0.8-0.5-1
		c-0.3-0.2-0.9-0.3-1.8-0.3H80c-1.4,0-2.4-0.2-3.1-0.7s-1.1-1.2-1.1-2.1c0-0.9,0.4-1.6,1.1-2.1c0.7-0.5,1.7-0.7,3-0.7
		c0.5,0,1,0.1,1.6,0.2c0.5,0.1,0.8,0.2,0.8,0.2c0.1,0,0.2-0.1,0.4-0.2s0.4-0.2,0.6-0.2c0.2,0,0.4,0.1,0.5,0.3s0.2,0.4,0.2,0.8v1.2
		c0,0.4-0.1,0.6-0.2,0.8s-0.3,0.2-0.5,0.2c-0.2,0-0.5-0.2-0.7-0.5c-0.2-0.2-0.4-0.4-0.5-0.5c-0.4-0.3-0.7-0.6-1.1-0.7
		c-0.4-0.1-0.9-0.2-1.4-0.2c-0.6,0-1.1,0.1-1.5,0.4c-0.4,0.3-0.6,0.6-0.6,1.1c0,0.4,0.2,0.7,0.6,0.9s1.3,0.3,2.6,0.3
		c1.4,0,2.4,0.3,3.1,0.7c0.6,0.5,1,1.2,1,2.1c0,0.9-0.4,1.6-1.1,2.2S81.8,91,80.6,91c-0.4,0-0.8,0-1.3-0.1c-0.5-0.1-1.1-0.2-1.8-0.4
		c-0.2,0.2-0.4,0.3-0.6,0.3c-0.2,0.1-0.3,0.1-0.4,0.1c-0.2,0-0.4-0.1-0.5-0.2C75.8,90.6,75.8,90.3,75.8,90z"/>
</g>
</svg>
