<?xml version="1.0" encoding="utf-8"?>
<!-- Generator: Adobe Illustrator 16.0.0, SVG Export Plug-In . SVG Version: 6.00 Build 0)  -->
<!DOCTYPE svg PUBLIC "-//W3C//DTD SVG 1.1//EN" "http://www.w3.org/Graphics/SVG/1.1/DTD/svg11.dtd">
<svg version="1.1" xmlns="http://www.w3.org/2000/svg" xmlns:xlink="http://www.w3.org/1999/xlink" x="0px" y="0px" width="85.1px"
	 height="92.4px" viewBox="0 0 85.1 92.4" enable-background="new 0 0 85.1 92.4" xml:space="preserve">
<g id="Layer_1">
	<path display="none" fill-rule="evenodd" clip-rule="evenodd" fill="#FFFFFF" d="M83.781,33.86
		c-24.828,15.104-20.889-8.25-82.078,3.826l16.1-24.931l9.107,7.083L41.048,1.244l19.074,15.19l7.083-7.637L83.781,33.86
		L83.781,33.86z M17.774,21.384l2.033,4.668l0.376-5.043l5.496,3.086l-6.851-8.206l-5.044,8.131L17.774,21.384L17.774,21.384z
		 M34.193,15.2l6.471-3.376l1.266,10.27l2.814-10.27l8.3,2.813L41.899,4.448L34.193,15.2L34.193,15.2z M53.614,27.175l9.936-5.888
		l5.428,10.12l0.092-8.74l6.071,5.244l-8.096-14.167L53.614,27.175z"/>
	<g display="none">
		<path display="inline" fill="#FFFFFF" d="M9.156,50.146c0.5,0,0.82,0.048,0.959,0.143c0.14,0.094,0.21,0.27,0.21,0.53
			c0,0.268-0.07,0.45-0.21,0.551c-0.14,0.101-0.42,0.151-0.843,0.151h-4.63c-0.423,0-0.702-0.051-0.838-0.151
			c-0.137-0.101-0.205-0.283-0.205-0.551c0-0.261,0.077-0.437,0.229-0.53c0.153-0.095,0.469-0.143,0.95-0.143h1.413V46.91
			l-3.246-5.545H2.781c-0.39,0-0.657-0.051-0.799-0.157c-0.143-0.104-0.215-0.285-0.215-0.546c0-0.239,0.061-0.417,0.181-0.531
			s0.307-0.17,0.561-0.17h0.438h2.232c0.383,0,0.642,0.051,0.775,0.155c0.133,0.104,0.2,0.287,0.2,0.545
			c0,0.261-0.08,0.442-0.239,0.546c-0.159,0.105-0.45,0.157-0.873,0.157H4.72l2.359,4.23l2.447-4.23H9.126
			c-0.352,0-0.595-0.051-0.731-0.157c-0.136-0.104-0.205-0.285-0.205-0.546c0-0.272,0.058-0.458,0.175-0.556
			c0.117-0.097,0.413-0.145,0.887-0.145h0.253h1.54c0.494,0,0.811,0.05,0.951,0.15c0.139,0.101,0.209,0.286,0.209,0.551
			c0,0.261-0.07,0.442-0.209,0.546c-0.14,0.105-0.405,0.157-0.795,0.157h-0.156l-3.314,5.683v3.099H9.156z"/>
		<path display="inline" fill="#FFFFFF" d="M21.232,50.283c-0.533,0.481-1.113,0.848-1.739,1.102
			c-0.627,0.254-1.272,0.381-1.936,0.381c-0.968,0-1.75-0.271-2.344-0.81c-0.595-0.539-0.892-1.241-0.892-2.105
			c0-1.026,0.395-1.823,1.185-2.389c0.79-0.565,1.899-0.848,3.329-0.848c0.377,0,0.757,0.025,1.14,0.073
			c0.384,0.049,0.776,0.125,1.18,0.229v-0.067c0-0.747-0.179-1.301-0.536-1.657c-0.357-0.358-0.913-0.538-1.667-0.538
			c-0.507,0-1.072,0.137-1.696,0.411c-0.624,0.272-1.037,0.409-1.238,0.409c-0.189,0-0.345-0.076-0.468-0.229
			c-0.124-0.151-0.186-0.35-0.186-0.59c0-0.382,0.359-0.707,1.077-0.974c0.718-0.266,1.636-0.399,2.753-0.399
			c1.144,0,2.008,0.29,2.593,0.872c0.585,0.582,0.877,1.441,0.877,2.578v4.415h0.478c0.461,0,0.77,0.05,0.926,0.147
			c0.156,0.097,0.234,0.271,0.234,0.525c0,0.234-0.065,0.409-0.195,0.526c-0.13,0.117-0.325,0.176-0.585,0.176h-1.53
			c-0.182,0-0.332-0.056-0.448-0.166c-0.117-0.11-0.195-0.269-0.234-0.477L21.232,50.283z M21.154,47.212
			c-0.357-0.115-0.704-0.202-1.038-0.257c-0.335-0.056-0.668-0.082-0.999-0.082c-1.001,0-1.79,0.168-2.369,0.506
			s-0.867,0.793-0.867,1.365c0,0.441,0.18,0.806,0.541,1.091s0.82,0.429,1.379,0.429c0.825,0,1.59-0.216,2.295-0.647
			c0.705-0.433,1.058-0.882,1.058-1.351V47.212z"/>
		<path display="inline" fill="#FFFFFF" d="M33.212,50.283c-0.533,0.481-1.113,0.848-1.74,1.102s-1.272,0.381-1.935,0.381
			c-0.968,0-1.75-0.271-2.344-0.81c-0.595-0.539-0.892-1.241-0.892-2.105c0-1.026,0.395-1.823,1.184-2.389s1.899-0.848,3.328-0.848
			c0.377,0,0.758,0.025,1.141,0.073c0.384,0.049,0.776,0.125,1.18,0.229v-0.067c0-0.747-0.179-1.301-0.537-1.657
			c-0.357-0.358-0.913-0.538-1.667-0.538c-0.506,0-1.072,0.137-1.696,0.411c-0.624,0.272-1.036,0.409-1.237,0.409
			c-0.189,0-0.345-0.076-0.468-0.229c-0.124-0.151-0.186-0.35-0.186-0.59c0-0.382,0.359-0.707,1.077-0.974
			c0.718-0.266,1.636-0.399,2.754-0.399c1.144,0,2.008,0.29,2.593,0.872c0.584,0.582,0.877,1.441,0.877,2.578v4.415h0.478
			c0.461,0,0.77,0.05,0.925,0.147c0.157,0.097,0.234,0.271,0.234,0.525c0,0.234-0.064,0.409-0.195,0.526
			c-0.13,0.117-0.325,0.176-0.585,0.176h-1.53c-0.182,0-0.331-0.056-0.448-0.166s-0.194-0.269-0.234-0.477L33.212,50.283z
			 M33.134,47.212c-0.357-0.115-0.703-0.202-1.038-0.257c-0.334-0.056-0.667-0.082-0.999-0.082c-1.001,0-1.791,0.168-2.369,0.506
			c-0.578,0.338-0.867,0.793-0.867,1.365c0,0.441,0.18,0.806,0.541,1.091c0.36,0.285,0.82,0.429,1.379,0.429
			c0.825,0,1.589-0.216,2.295-0.647c0.706-0.433,1.058-0.882,1.058-1.351V47.212z"/>
		<path display="inline" fill="#FFFFFF" d="M46.546,46.093c0-0.917-0.082-1.537-0.247-1.858c-0.164-0.322-0.447-0.481-0.846-0.481
			c-0.479,0-0.857,0.208-1.138,0.623s-0.42,0.988-0.42,1.716v4.054h0.174c0.396,0,0.661,0.048,0.795,0.143
			c0.134,0.094,0.199,0.27,0.199,0.53c0,0.234-0.054,0.409-0.164,0.526c-0.111,0.117-0.28,0.176-0.508,0.176h-1.238
			c-0.279,0-0.469-0.065-0.57-0.194c-0.101-0.13-0.151-0.41-0.151-0.839v-0.282v-4.113v-0.762c0-0.486-0.11-0.872-0.33-1.154
			c-0.219-0.284-0.52-0.424-0.899-0.424c-0.291,0-0.556,0.086-0.799,0.257c-0.241,0.173-0.45,0.427-0.623,0.765v5.371h0.36
			c0.39,0,0.653,0.05,0.789,0.147c0.137,0.097,0.206,0.271,0.206,0.525c0,0.268-0.055,0.45-0.166,0.551
			c-0.11,0.101-0.321,0.151-0.633,0.151h-2.608c-0.255,0-0.443-0.058-0.563-0.171c-0.122-0.114-0.182-0.29-0.182-0.531
			c0-0.261,0.076-0.437,0.229-0.53c0.152-0.095,0.45-0.143,0.892-0.143H38.3v-6.248h-0.176c-0.454,0-0.765-0.051-0.931-0.155
			s-0.249-0.287-0.249-0.546c0-0.228,0.066-0.399,0.196-0.513s0.326-0.17,0.588-0.17h1.499c0.218,0,0.361,0.037,0.431,0.112
			c0.069,0.074,0.11,0.232,0.124,0.472c0.265-0.286,0.549-0.497,0.852-0.633c0.305-0.137,0.646-0.205,1.028-0.205
			c0.453,0,0.826,0.099,1.12,0.297c0.293,0.2,0.512,0.5,0.654,0.902c0.272-0.409,0.588-0.71,0.945-0.907
			c0.357-0.194,0.767-0.292,1.228-0.292c0.84,0,1.451,0.274,1.839,0.819c0.386,0.546,0.579,1.43,0.579,2.651v4.415h0.156
			c0.402,0,0.672,0.05,0.809,0.147c0.138,0.097,0.205,0.271,0.205,0.525c0,0.234-0.059,0.409-0.175,0.526
			c-0.117,0.117-0.29,0.176-0.518,0.176h-1.188c-0.264,0-0.457-0.079-0.582-0.233c-0.126-0.157-0.188-0.402-0.188-0.74V46.093z"/>
		<path display="inline" fill="#FFFFFF" d="M55.834,50.146h3.13c0.254,0,0.439,0.055,0.561,0.162
			c0.12,0.107,0.181,0.276,0.181,0.511c0,0.268-0.058,0.45-0.171,0.551c-0.114,0.101-0.323,0.151-0.628,0.151h-7.564
			c-0.261,0-0.455-0.059-0.585-0.176c-0.131-0.117-0.194-0.292-0.194-0.526c0-0.228,0.067-0.396,0.204-0.506
			s0.341-0.167,0.613-0.167h2.974v-6.248h-1.9c-0.267,0-0.47-0.059-0.61-0.18c-0.139-0.12-0.209-0.293-0.209-0.521
			s0.065-0.399,0.194-0.513c0.13-0.114,0.325-0.17,0.585-0.17h2.856c0.176,0,0.313,0.035,0.415,0.107
			c0.101,0.071,0.149,0.168,0.149,0.292V50.146z M54.031,39.707c0-0.702,0.063-1.144,0.19-1.325
			c0.127-0.182,0.397-0.274,0.814-0.274c0.402,0,0.669,0.078,0.798,0.229c0.131,0.153,0.196,0.516,0.196,1.086
			c0,0.561-0.061,0.905-0.181,1.039c-0.121,0.133-0.391,0.199-0.813,0.199c-0.417,0-0.688-0.061-0.814-0.185
			S54.031,40.096,54.031,39.707z"/>
		<path display="inline" fill="#FFFFFF" d="M63.282,50.146v-6.248h-0.186c-0.441,0-0.745-0.051-0.911-0.155
			c-0.165-0.104-0.248-0.287-0.248-0.546c0-0.241,0.067-0.416,0.205-0.522c0.136-0.107,0.356-0.16,0.662-0.16h0.458h0.936
			c0.176,0,0.312,0.035,0.41,0.107c0.098,0.071,0.146,0.168,0.146,0.292v0.663c0.475-0.442,0.944-0.769,1.409-0.979
			c0.464-0.211,0.946-0.316,1.447-0.316c0.981,0,1.753,0.305,2.315,0.917c0.562,0.61,0.842,1.456,0.842,2.534v4.415h0.459
			c0.324,0,0.559,0.055,0.702,0.162c0.143,0.107,0.214,0.276,0.214,0.511c0,0.254-0.076,0.434-0.229,0.541
			c-0.152,0.107-0.423,0.161-0.813,0.161h-2.153c-0.417,0-0.683-0.049-0.8-0.146s-0.176-0.282-0.176-0.556
			c0-0.254,0.068-0.429,0.204-0.525c0.137-0.098,0.394-0.147,0.771-0.147h0.34v-4.054c0-0.762-0.172-1.34-0.517-1.741
			c-0.345-0.399-0.844-0.599-1.5-0.599c-0.663,0-1.248,0.224-1.755,0.673c-0.507,0.447-0.761,1.003-0.761,1.667v4.054h0.341
			c0.391,0,0.653,0.05,0.79,0.147c0.137,0.097,0.204,0.271,0.204,0.525c0,0.273-0.058,0.458-0.175,0.556s-0.403,0.146-0.858,0.146
			h-1.773h-0.526c-0.267,0-0.466-0.058-0.599-0.171c-0.134-0.114-0.2-0.29-0.2-0.531c0-0.261,0.076-0.437,0.229-0.53
			c0.152-0.095,0.449-0.143,0.893-0.143H63.282z"/>
		<path display="inline" fill="#FFFFFF" d="M79.794,50.146h3.129c0.254,0,0.44,0.055,0.561,0.162c0.121,0.107,0.18,0.276,0.18,0.511
			c0,0.268-0.056,0.45-0.17,0.551c-0.113,0.101-0.322,0.151-0.629,0.151h-7.563c-0.26,0-0.455-0.059-0.585-0.176
			s-0.195-0.292-0.195-0.526c0-0.228,0.068-0.396,0.205-0.506s0.341-0.167,0.614-0.167h2.973v-6.248h-1.9
			c-0.267,0-0.47-0.059-0.609-0.18c-0.14-0.12-0.209-0.293-0.209-0.521s0.063-0.399,0.194-0.513c0.13-0.114,0.324-0.17,0.585-0.17
			h2.855c0.176,0,0.313,0.035,0.415,0.107c0.101,0.071,0.15,0.168,0.15,0.292V50.146z M77.99,39.707c0-0.702,0.064-1.144,0.19-1.325
			c0.127-0.182,0.398-0.274,0.813-0.274c0.403,0,0.67,0.078,0.8,0.229c0.131,0.153,0.194,0.516,0.194,1.086
			c0,0.561-0.06,0.905-0.18,1.039c-0.12,0.133-0.392,0.199-0.814,0.199c-0.415,0-0.687-0.061-0.813-0.185
			C78.055,40.354,77.99,40.096,77.99,39.707z"/>
		<path display="inline" fill="#FFFFFF" d="M9.672,59.695c0.318,0,0.551,0.057,0.697,0.167c0.146,0.11,0.219,0.285,0.219,0.525
			c0,0.228-0.068,0.399-0.205,0.512c-0.137,0.113-0.341,0.171-0.614,0.171H5.822v3.257c0,1.064,0.138,1.767,0.415,2.104
			c0.276,0.339,0.749,0.507,1.418,0.507c0.591,0,1.3-0.172,2.125-0.517c0.825-0.345,1.335-0.518,1.53-0.518
			c0.182,0,0.336,0.066,0.463,0.196c0.126,0.13,0.19,0.289,0.19,0.477c0,0.216-0.08,0.402-0.239,0.561
			c-0.159,0.16-0.43,0.314-0.813,0.463c-0.637,0.254-1.21,0.438-1.72,0.556c-0.51,0.117-0.99,0.177-1.438,0.177
			c-0.76,0-1.398-0.122-1.915-0.366s-0.902-0.606-1.155-1.086c-0.13-0.228-0.223-0.498-0.278-0.81
			c-0.056-0.312-0.083-0.793-0.083-1.443v-0.301V61.07H2.663c-0.273,0-0.471-0.054-0.594-0.161c-0.124-0.107-0.186-0.28-0.186-0.521
			c0-0.267,0.084-0.448,0.253-0.545c0.169-0.098,0.53-0.147,1.082-0.147h1.102v-1.998v-0.516c0-0.28,0.06-0.486,0.18-0.62
			c0.121-0.132,0.307-0.199,0.561-0.199c0.286,0,0.484,0.082,0.595,0.244c0.11,0.163,0.166,0.532,0.166,1.111v1.978H9.672z"/>
		<path display="inline" fill="#FFFFFF" d="M18.035,66.783h3.236c0.253,0,0.44,0.053,0.561,0.16c0.12,0.106,0.18,0.278,0.18,0.513
			c0,0.266-0.057,0.45-0.171,0.551s-0.323,0.149-0.628,0.149h-6.375c-0.253,0-0.445-0.058-0.575-0.175
			c-0.13-0.117-0.195-0.293-0.195-0.525c0-0.228,0.066-0.397,0.2-0.508c0.133-0.11,0.339-0.165,0.619-0.165h1.696v-6.248H15.92
			c-0.63,0-1.023-0.052-1.179-0.152c-0.156-0.101-0.234-0.283-0.234-0.55c0-0.228,0.063-0.397,0.19-0.512
			c0.127-0.113,0.32-0.171,0.58-0.171h2.223c0.175,0,0.309,0.034,0.399,0.102c0.091,0.069,0.137,0.169,0.137,0.299v1.657
			c0.617-0.773,1.261-1.349,1.93-1.727c0.669-0.376,1.391-0.565,2.164-0.565c0.579,0,1.046,0.117,1.404,0.351
			c0.357,0.234,0.536,0.536,0.536,0.907c0,0.24-0.09,0.453-0.268,0.638c-0.179,0.187-0.375,0.279-0.59,0.279
			c-0.149,0-0.401-0.1-0.755-0.299c-0.354-0.197-0.671-0.297-0.951-0.297c-0.506,0-1.041,0.18-1.603,0.541
			c-0.562,0.361-1.184,0.932-1.867,1.711V66.783z"/>
		<path display="inline" fill="#FFFFFF" d="M33.212,66.918c-0.533,0.481-1.113,0.85-1.74,1.102C30.844,68.273,30.2,68.4,29.537,68.4
			c-0.968,0-1.75-0.269-2.344-0.81c-0.595-0.539-0.892-1.239-0.892-2.105c0-1.025,0.395-1.821,1.184-2.387s1.899-0.85,3.328-0.85
			c0.377,0,0.758,0.025,1.141,0.074c0.384,0.048,0.776,0.126,1.18,0.229v-0.069c0-0.747-0.179-1.299-0.537-1.656
			c-0.357-0.358-0.913-0.536-1.667-0.536c-0.506,0-1.072,0.137-1.696,0.409c-0.624,0.273-1.036,0.41-1.237,0.41
			c-0.189,0-0.345-0.077-0.468-0.229c-0.124-0.153-0.186-0.35-0.186-0.59c0-0.384,0.359-0.709,1.077-0.975
			c0.718-0.267,1.636-0.4,2.754-0.4c1.144,0,2.008,0.292,2.593,0.872c0.584,0.582,0.877,1.442,0.877,2.578v4.417h0.478
			c0.461,0,0.77,0.048,0.925,0.146c0.157,0.097,0.234,0.273,0.234,0.527c0,0.232-0.064,0.408-0.195,0.525
			c-0.13,0.117-0.325,0.175-0.585,0.175h-1.53c-0.182,0-0.331-0.054-0.448-0.165c-0.117-0.11-0.194-0.27-0.234-0.478L33.212,66.918z
			 M33.134,63.848c-0.357-0.117-0.703-0.203-1.038-0.259c-0.334-0.055-0.667-0.082-0.999-0.082c-1.001,0-1.791,0.169-2.369,0.506
			c-0.578,0.338-0.867,0.793-0.867,1.365c0,0.441,0.18,0.806,0.541,1.091c0.36,0.287,0.82,0.431,1.379,0.431
			c0.825,0,1.589-0.216,2.295-0.649c0.706-0.433,1.058-0.883,1.058-1.349V63.848z"/>
		<path display="inline" fill="#FFFFFF" d="M38.485,60.535c-0.429,0-0.722-0.053-0.882-0.157c-0.158-0.104-0.238-0.285-0.238-0.545
			c0-0.228,0.065-0.397,0.196-0.512c0.129-0.113,0.325-0.171,0.584-0.171h2.729c0.37,0,0.617,0.051,0.74,0.151
			s0.186,0.277,0.186,0.531c0,0.26-0.082,0.441-0.243,0.545c-0.163,0.104-0.461,0.157-0.897,0.157h-0.361l2.534,6.306l2.818-6.306
			h-0.586c-0.499,0-0.837-0.052-1.014-0.152c-0.175-0.101-0.262-0.283-0.262-0.55c0-0.254,0.061-0.431,0.185-0.531
			c0.123-0.101,0.371-0.151,0.74-0.151h3.012c0.261,0,0.455,0.058,0.586,0.171c0.13,0.114,0.194,0.284,0.194,0.512
			c0,0.26-0.079,0.441-0.238,0.545c-0.159,0.104-0.453,0.157-0.883,0.157h-0.175l-3.217,7.105c-0.163,0.357-0.323,0.59-0.483,0.697
			c-0.158,0.107-0.391,0.16-0.696,0.16c-0.279,0-0.495-0.052-0.648-0.155c-0.152-0.105-0.31-0.338-0.473-0.702L38.485,60.535z"/>
		<path display="inline" fill="#FFFFFF" d="M51.634,64.083c0.052,0.935,0.369,1.658,0.95,2.168c0.581,0.511,1.376,0.767,2.383,0.767
			c0.761,0,1.59-0.205,2.486-0.61c0.897-0.405,1.439-0.61,1.628-0.61c0.195,0,0.357,0.063,0.487,0.187
			c0.13,0.124,0.194,0.275,0.194,0.459c0,0.188-0.068,0.359-0.204,0.516c-0.137,0.156-0.354,0.309-0.652,0.458
			c-0.65,0.318-1.321,0.562-2.014,0.73c-0.692,0.17-1.38,0.254-2.062,0.254c-1.48,0-2.667-0.427-3.558-1.281
			c-0.89-0.855-1.335-1.988-1.335-3.397c0-1.436,0.472-2.599,1.413-3.49c0.942-0.889,2.171-1.335,3.686-1.335
			c1.37,0,2.508,0.417,3.411,1.248c0.903,0.832,1.355,1.84,1.355,3.021c0,0.364-0.077,0.608-0.229,0.732
			c-0.153,0.122-0.566,0.185-1.243,0.185h-0.146H51.634z M51.684,62.804h6.345c-0.098-0.772-0.422-1.395-0.971-1.866
			c-0.549-0.471-1.224-0.707-2.021-0.707c-0.865,0-1.592,0.228-2.184,0.683S51.871,62.001,51.684,62.804z"/>
		<path display="inline" fill="#FFFFFF" d="M66.256,56.801h-1.657c-0.632,0-1.025-0.05-1.186-0.15
			c-0.158-0.101-0.238-0.285-0.238-0.551c0-0.233,0.067-0.41,0.2-0.527s0.327-0.175,0.58-0.175h3.216
			c0.176,0,0.312,0.036,0.41,0.107s0.146,0.17,0.146,0.292v10.986h3.061c0.248,0,0.428,0.053,0.541,0.16
			c0.114,0.106,0.172,0.278,0.172,0.513c0,0.266-0.057,0.45-0.167,0.551s-0.318,0.149-0.623,0.149h-7.193
			c-0.254,0-0.447-0.058-0.58-0.175s-0.2-0.293-0.2-0.525c0-0.228,0.068-0.397,0.204-0.508c0.138-0.11,0.342-0.165,0.614-0.165
			h2.701V56.801z"/>
		<path display="inline" fill="#FFFFFF" d="M74.638,67.456v-1.736c0-0.285,0.054-0.489,0.161-0.613s0.281-0.187,0.521-0.187
			c0.268,0,0.479,0.184,0.634,0.546c0.104,0.221,0.199,0.388,0.283,0.498c0.272,0.352,0.676,0.632,1.208,0.843
			c0.533,0.212,1.121,0.317,1.765,0.317c0.688,0,1.241-0.14,1.657-0.42c0.416-0.278,0.624-0.646,0.624-1.102
			c0-0.461-0.168-0.789-0.503-0.984c-0.334-0.194-0.907-0.291-1.719-0.291h-0.537c-1.325,0-2.336-0.231-3.031-0.693
			c-0.695-0.461-1.043-1.131-1.043-2.008c0-0.857,0.339-1.523,1.019-1.998c0.679-0.475,1.633-0.712,2.86-0.712
			c0.501,0,1.011,0.071,1.531,0.209c0.52,0.141,0.793,0.211,0.818,0.211c0.071,0,0.207-0.063,0.409-0.19s0.4-0.19,0.595-0.19
			c0.221,0,0.386,0.081,0.493,0.244c0.106,0.162,0.159,0.406,0.159,0.73v1.141c0,0.345-0.051,0.594-0.154,0.745
			c-0.104,0.153-0.271,0.229-0.498,0.229c-0.194,0-0.436-0.165-0.721-0.496c-0.202-0.228-0.367-0.4-0.498-0.518
			c-0.345-0.318-0.711-0.548-1.102-0.688c-0.39-0.139-0.847-0.21-1.374-0.21c-0.61,0-1.104,0.136-1.476,0.406
			c-0.375,0.269-0.561,0.611-0.561,1.027c0,0.41,0.19,0.702,0.574,0.878c0.383,0.175,1.209,0.275,2.476,0.302
			c1.352,0.033,2.339,0.268,2.964,0.707c0.623,0.439,0.935,1.115,0.935,2.031c0,0.877-0.345,1.58-1.032,2.105
			c-0.688,0.527-1.618,0.79-2.788,0.79c-0.37,0-0.783-0.033-1.237-0.103c-0.455-0.067-1.027-0.183-1.716-0.346
			c-0.228,0.149-0.423,0.262-0.585,0.336c-0.162,0.076-0.299,0.112-0.409,0.112c-0.228,0-0.401-0.079-0.521-0.239
			C74.698,67.983,74.638,67.754,74.638,67.456z"/>
	</g>
	<g>
		<path fill-rule="evenodd" clip-rule="evenodd" fill="#FFFFFF" d="M84.405,29.748c-27.58-0.258-42.934,0-82.606,0l15.135-18.214
			l9.109,7.098L40.182,0l19.079,15.22l7.085-7.652 M15.509,20.215l2.937,6.756l0.545-7.3l7.94,4.467l-9.898-11.876L9.744,24.031
			L15.509,20.215L15.509,20.215z M29.512,18.25l9.4-4.913l1.847,10.941l4.08-10.941l11.845,2.62L40.706,2.603L29.512,18.25
			L29.512,18.25z M52.603,24.274l10.086-4.191l5.514,4.58l0.007-3.197l7.761,1.872l-8.941-12.504L52.603,24.274z"/>
		<g>
			<path fill="none" d="M84.405,29.748c-27.58-0.258-42.934,0-82.606,0l15.135-18.214l9.109,7.098L40.182,0l19.079,15.22
				l7.085-7.652 M15.509,20.215l2.937,6.756l0.545-7.3l7.94,4.467l-9.898-11.876L9.744,24.031L15.509,20.215L15.509,20.215z
				 M29.512,18.25l9.4-4.913l1.847,10.941l4.08-10.941l11.845,2.62L40.706,2.603L29.512,18.25L29.512,18.25z M52.603,24.274
				l10.086-4.191l5.514,4.58l0.007-3.197l7.761,1.872l-8.941-12.504L52.603,24.274z"/>
			<g>
				<g>
					<path fill="#FFFFFF" d="M61.859,17.097c0.301-0.404-0.279,0.136-0.062-0.066l0.672-0.874
						C61.941,16.896,63.046,16.197,61.859,17.097z"/>
					<path fill="#FFFFFF" d="M62.51,15.331l0.062-0.223c0.238-0.18,0.734-0.519,0.507-0.182
						C62.893,15.016,62.728,15.129,62.51,15.331z"/>
					<path fill="#FFFFFF" d="M60.034,14.413l0.33-0.225c-0.145,0.135-0.113,0.313-0.352,0.494L60.034,14.413z"/>
					<path fill="#FFFFFF" d="M79.726,25.798c-0.012,0.01-0.016,0.03-0.008,0.067c-0.086-0.031-0.179-0.065-0.282-0.103
						c-0.116-0.094-0.179-0.16-0.173-0.204c-0.234-0.21-0.49-0.479-0.85-0.876c-0.191-0.371-1.104-1.511-0.638-1.153l0.104,0.129
						c0.243,0.126,0.284-0.235-0.274-0.94c-0.28-0.211-0.264,0.13-0.969-0.566c-0.589-0.732-1.062-1.503-1.285-2.068l-0.76-0.559
						c-0.418-0.659-0.386-0.862-0.661-1.4l0.396,0.343c-0.091-0.31,0.329-0.132-0.413-1.165c-0.338-0.352-0.397-0.372-0.528-0.501
						c-0.124-0.127-0.248-0.254-0.468-0.48c-0.242-0.76-1.195-1.717-1.659-2.494c-0.444-0.225-0.792-0.807-1.135-1.36l-0.129-0.205
						c-0.058-0.086-0.114-0.171-0.169-0.253c-0.146-0.211-0.292-0.413-0.434-0.592c-0.284-0.358-0.555-0.625-0.78-0.698
						c-0.685-1.065-1.098-1.513-1.398-1.721c-0.33,0.454-0.575,0.877-0.915,1.36c-0.939,0.549,0.46-0.896,0.937-1.576
						c0.108,0.067,0.145,0.023,0.028-0.25L67.26,8.529c-0.979,0.844-2.033,1.85-3.05,2.831c-0.34,0.333-0.682,0.669-1.02,1
						c-0.309,0.301-0.619,0.596-0.933,0.877c-0.176,0.433,0.507,0.093-0.103,0.729c0.13-0.288-0.259-0.23-0.489-0.019
						c0.271-0.21,0.06,0.076,0.076,0.15l0.209-0.139c0.463,0.237-0.899,0.772-1.16,1.349c-0.308,0.062,0.23-0.211,0.153-0.361
						c-0.159-0.152-0.526-0.167-1.172,0.321c-0.976,1.284-2.13,1.679-3.349,2.953c0.182,0.08-0.234,0.357-0.424,0.57
						c0.152-0.36-0.489-0.019-0.761,0.19c-0.235,0.358-0.039,0.659-0.54,1.08l0.553-0.052c0.208-0.138,0.759-0.851,1.033-1.207
						c0.467,0.091,1.495-1.63,1.704-1.108l-0.249,0.138c-0.871,0.552-0.893,1.286-1.466,2.071c-0.665,0.415-1.031,0.4-1.547,0.6
						c-0.52,0.347-0.546,0.566-0.718,0.853c-0.338,0.427-0.646,0.488-0.936,0.624c-0.126,0.142,0.122,0.005-0.005,0.147
						c-0.208,0.139-0.456,0.275-0.582,0.417c0.154,0.3,0.908-0.405,1.429-0.751c-0.086,0.143-0.067,0.217-0.235,0.358
						c-0.125,0.142-0.144,0.067-0.185,0.065L53.243,22.5c0.059,0.076,0.24,0.156-0.116,0.508l-0.35,0.061
						c-0.771,0.63-0.812,1.289,0.151,0.445l-0.055-0.222l1.099-0.618c0.285,0.012-0.321,0.502-0.202,0.653
						c0.033,0.294,0.888-0.333,1.262-0.611c0.257-0.43-0.349,0.06-0.619,0.269l0.265-0.723c0.126-0.142,0.376-0.279,0.434-0.203
						c0.229-0.065,0.237,0.303,0.49,0.019c0.836-0.702-0.196-0.301,0.455-0.937c-0.427-0.09-1.597,0.892-2.071,1.094l-0.294,0.281
						c-0.244-0.009,0.442-0.495-0.078-0.149c0.597-0.857,1.962-1.539,2.686-1.877c0.159,0.153,0.905-0.258,0.622,0.392
						c0.271-0.209,0.515-0.2,0.832-0.555c0.685-1.148,1.4-1.193,2.159-2.044c-0.146,0.068-0.036-0.149-0.056-0.222
						c1.253-0.979,0.297,1.039,1.752-0.593c0.252-0.284,0.32-0.501,0.156-0.507c-0.248,0.137-0.556,0.199-0.832,0.555
						c-0.06-0.075-0.582,0.417-0.407-0.016c0.773-0.63,0.871-1.214,1.518-1.703l0.09-0.29c0.229-0.21,0.677-0.854,1.07-1.059
						c0.979-0.769,0.154,0.299,0.231,0.449l0.814-0.629c0.312-0.538,0.756-0.777,1.179-1.008c0.367-0.18,0.561-0.211,0.759-0.698
						l-0.022,0.164c-0.212,0.401,0.217,0.337,0.341,0.212l0.117-0.236c0.051-0.205,0.149-0.385,0.273-0.549
						c0.285,0.236,0.614,0.901,0.95,1.213c0.077,0.128,0.038,0.222-0.044,0.138c0,0,0.017,0.042,0.04,0.104
						c0.044,0.091,0.103,0.212,0.162,0.333c0.124,0.252,0.249,0.504,0.249,0.504c0.518,0.021,0.483,0.655,0.918,1.158
						c0.401,0.271,0.622,0.284,1.07,0.708c0.326,0.712,0.709,1.191,1.076,1.658c0.399,0.511,0.64,0.81,0.737,1.243
						c0.405,0.042,0.969,0.696,1.053,0.212c0.62,1.18,0.632,1.776,0.979,2.428c0.149,0.128,0.29,0.248,0.442,0.378
						c0.396,0.284,0.934,0.693,1.538,1.172c0.492,0.429,0.885,0.863,1.379,1.275c0.498,0.414,1.15,0.817,2.323,1.221
						C79.763,25.876,79.746,25.839,79.726,25.798z"/>
					<path fill="#FFFFFF" d="M52.593,21.668l0.461-0.423l-0.122-0.005C52.664,21.303,52.823,21.456,52.593,21.668z"/>
					<path fill="#FFFFFF" d="M69.331,22.454c-0.534-0.287-1.221-0.543-1.014-0.174c0.392,0.352,0.794,0.555,1.17,0.835
						c-1.094,0.512-2.188,1.024-3.297,1.543c-0.011-0.421-0.004-0.863,0.048-1.319c-0.149-0.05-0.243,0.629-0.322,1.318
						c1.252-0.586,2.499-1.169,3.747-1.753C69.524,22.728,69.388,22.56,69.331,22.454z"/>
					<path fill="#FFFFFF" d="M63.429,15.85l0.65-0.635l-0.285-0.011C63.17,15.621,63.786,15.498,63.429,15.85z"/>
					<path fill="#FFFFFF" d="M65.369,22.427c-0.077,0.093-0.308,0.06,0.035,0.265l0.592,0.217
						C65.882,22.892,65.333,22.16,65.369,22.427z"/>
					<path fill="#FFFFFF" d="M63.462,21.472l-0.155,0.342c0.267,0.143,0.515,0.152,0.705,0.389
						C63.746,21.904,63.862,21.765,63.462,21.472z"/>
					<path fill="#FFFFFF" d="M66.694,24.236c-0.604-0.975-1.203-0.41-1.578-1.351c-1.046-0.751-0.954-0.242-0.92,0.18
						c0.381,0.316,0.271-0.326,0.957,0.086c0.342,0.363,0.76,0.789,0.699,1.014C66.822,25.01,66.084,23.886,66.694,24.236z"/>
					<polygon fill="#FFFFFF" points="62.921,22.124 63.377,22.503 63.304,22.127 					"/>
					<polygon fill="#FFFFFF" points="66.018,25.05 66.494,25.249 65.828,24.657 					"/>
					<path fill="#FFFFFF" d="M64.64,24.85l0.306,0.253c0.286,0.119,0.514,0.152,0.345-0.107
						C64.891,24.704,64.851,24.906,64.64,24.85z"/>
					<path fill="#FFFFFF" d="M72.374,22.378c-0.327-0.215-0.609-0.413-0.842-0.591c-0.142-0.156-0.628-0.387-1.091-0.604
						c-0.952-0.44-2.168-0.91-3.533-1.374c-0.014,0.111-0.027,0.226-0.04,0.34c0.114,0.646,0.224,1.26,0.312,1.876l-0.274,1.452
						c0.006,0.381,0.011,0.776,0.017,1.182c0.697-0.326,1.397-0.654,2.099-0.982c-0.698-0.524-1.454-0.99-2.053-1.094
						c-0.114-0.173-0.076-0.22-0.19-0.394c-0.38-0.158-0.914-0.757-1.351-0.844c-0.305-0.409-0.191-0.551-0.306-0.882
						c-0.438-0.222-1.364-1.153-2.2-1.922c-0.713,0.253-1.46,0.556-2.037,0.931c-0.681-0.273-1.346,0.889-2.09,0.675
						c-1.167,0.29-2.27,0.979-2.41,1.399c-0.036-0.083,0.232-0.458-0.272-0.378c-0.078,0.066-0.249,0.17-0.238,0.198
						c-0.09,0.038-0.972,0.242-1.185,0.495c-0.091,0.098-0.107,0.153-0.063,0.187c1.23-0.081-0.731,1.9-1.351,2.764
						c-0.118,0.09-0.226,0.171-0.341,0.259c0.496-0.112,1.023-0.272,1.622-0.532c-0.242-0.063,0.683-0.416,0.166-0.364
						c-0.092,0.038-0.17,0.104-0.262,0.142l-0.712,0.101c0.501-0.34,1.85-0.707,2.095-1.137c0.674-0.183,0.954-0.037,1.391-0.023
						c1.016-0.391,2.298-0.664,3.022-1.228c0.968-0.469,1.299-0.312,1.601-0.209c0.151-0.17,0.467-0.212,0.625-0.368
						c0.035,0.005,0.064-0.005,0.088-0.036c0.167,0.256,0.219,0.475,0.209,0.659c0,0.095-0.03,0.17-0.041,0.259
						c0.03,0.122,0.06,0.241,0.087,0.353c0.438,0.56,0.553,0.418,1.027,0.615c1.028,0.931-0.607,0.283,0.611,1.292
						c0.418,0.426,1.179,0.742,1.293,0.6c0.294,0.409,0.784,0.729,1.135,1.048l2.444,2.225l0.92-3.799
						c0.01-0.038,0.034-0.071,0.098-0.079c-0.207-0.105-0.234-0.256-0.208-0.337c0.026-0.09,0.106-0.104,0.112-0.18
						c0.06,0.02,0.063-0.021,0.06-0.171c0.165,0.063,0.268,0.024,0.462-0.024c1.067,0.157,2.212,0.326,3.346,0.493
						C74.259,23.855,73.257,23.058,72.374,22.378z"/>
				</g>
			</g>
			<g>
				<g>
					<path fill="#FFFFFF" d="M39.397,6.253c0.31-0.588-0.303,0.268-0.074-0.053c0,0,0.712-1.307,0.632-1.195
						c-0.042,0.097-0.062,0.166-0.069,0.217c-0.02,0.069-0.024,0.115-0.016,0.143c0.016,0.057,0.074,0.048,0.11,0.054
						C40.052,5.428,40.032,5.495,39.397,6.253z"/>
					<path fill="#FFFFFF" d="M39.951,4.022l0.082-0.321c0.244-0.29,0.685-0.75,0.437-0.247C40.316,3.564,40.161,3.729,39.951,4.022z
						"/>
					<path fill="#FFFFFF" d="M37.172,3.851c0.014-0.02,0.323-0.348,0.386-0.436c-0.216,0.303-0.124,0.433-0.392,0.756L37.172,3.851z
						"/>
					<path fill="#FFFFFF" d="M52.343,16.659c-0.128-0.056-0.298-0.12-0.551-0.203c-0.085-0.185,0.11-0.219,0.775-0.177
						c0.814,0.242,2.335,0.498,2.397,0.687l-0.174-0.029c0.26,0.185,1.732,0.76,2.69,0.927c-0.05-0.118-1.275-0.579-0.79-0.644
						c0.968,0.16,2.429,0.548,3.869,1.017c0.019,0.004-0.172-0.338-0.191-0.342c0.212,0.058,0.402,0.11,0.577,0.158
						c-0.321-0.347-0.156-0.356-0.431-0.682l0.902,0.595c0.024-0.118,1.168,0.527-0.14-0.561c-1.3-0.905-1.487-1.05-2.822-2.047
						c-0.31-0.419-1.231-1.198-2.201-1.99c-0.978-0.798-1.996-1.602-2.721-2.255c-1.096-0.615-2.087-1.516-3.161-2.469
						c-0.201-0.18-0.399-0.356-0.589-0.525c-0.156-0.136-0.309-0.262-0.459-0.372c-0.299-0.221-0.585-0.376-0.849-0.411
						C47.063,6,46.671,6.145,45.713,5.686c-0.956-1.198,1.753,0.957,1.328,0.222c-0.809-0.741-1.698-1.463-2.599-2.182
						c-0.568-0.459-1.14-0.92-1.705-1.377c-0.713-0.594-1.418-1.181-2.115-1.76c-0.097-0.044-0.152-0.053-0.179-0.037
						c-0.049,0.184,0.007,0.218,0.036,0.278c0.017,0.048,0.026,0.088,0.014,0.107c-0.018,0.119-0.128,0.344-0.479,0.866
						c0.29-0.615-0.14-0.396-0.534,0.149c0.426-0.541,0.028,0.125,0.018,0.255l0.303-0.354c0.186,0.161-0.132,0.584-0.58,1.136
						c-0.225,0.277-0.486,0.592-0.722,0.908c-0.057,0.079-0.113,0.155-0.167,0.23l-0.105,0.161
						c-0.064,0.106-0.115,0.209-0.146,0.306c-0.341,0.193,0.244-0.337,0.147-0.48c-0.188-0.115-0.601,0.014-1.292,0.836
						c-1.005,1.877-2.272,2.792-3.552,4.754c0.209,0.021-0.238,0.508-0.436,0.83c0.147-0.479-0.549,0.171-0.839,0.521
						c-0.24,0.51,0.001,0.782-0.533,1.469l0.616-0.279c0.224-0.243,0.792-1.289,1.076-1.811c0.529-0.078,1.565-2.485,1.835-1.961
						l-0.27,0.259c-0.939,0.985-0.914,1.848-1.502,2.986c-0.717,0.745-1.129,0.872-1.693,1.308
						c-0.559,0.608-0.573,0.873-0.746,1.274c-0.35,0.63-0.691,0.823-1.006,1.095c-0.131,0.214,0.137-0.043,0.005,0.172
						c-0.224,0.243-0.494,0.5-0.625,0.715c0.193,0.288,0.991-0.83,1.55-1.437c-0.086,0.2-0.061,0.279-0.239,0.508
						c-0.131,0.214-0.156,0.135-0.203,0.149l-0.264,0.431c0.071,0.065,0.28,0.086-0.095,0.637l-0.388,0.208
						c-0.822,1.037-0.822,1.819,0.2,0.458l-0.077-0.237l1.189-1.152c0.319-0.098-0.326,0.71-0.182,0.839
						c0.056,0.33,0.971-0.737,1.372-1.208c0.258-0.601-0.387,0.208-0.676,0.557l0.248-0.944c0.131-0.215,0.401-0.473,0.472-0.408
						c0.251-0.166,0.286,0.258,0.55-0.171c0.889-1.145-0.24-0.273,0.447-1.269c-0.484,0.064-1.729,1.667-2.247,2.089l-0.31,0.443
						c-0.274,0.086,0.461-0.75-0.098-0.143c0.609-1.232,2.093-2.562,2.881-3.242c0.189,0.115,0.998-0.658,0.723,0.21
						c0.29-0.351,0.564-0.436,0.895-0.974c0.689-1.604,1.488-1.94,2.281-3.229c-0.158,0.136-0.05-0.159-0.077-0.236
						c1.337-1.633,0.403,1.09,1.923-1.381c0.264-0.429,0.325-0.709,0.141-0.652c-0.27,0.257-0.61,0.451-0.895,0.974
						c-0.072-0.064-0.625,0.715-0.458,0.142c0.817-1.03,0.907-1.774,1.571-2.56l0.083-0.375c0.217-0.299,0.751-1.331,1.116-1.637
						l0.013-0.015c0.975,0.925,0.294,0.56,0.071,0.558c-0.046,0.126-0.075,0.227-0.073,0.279c0.032-0.036,0.063-0.072,0.094-0.115
						l0.679,0.678c1.012,0.372,1.427,1.862,2.693,2.345l-0.172-0.007c-0.683-0.377-0.064,0.459,0.355,0.802l0.387,0.202
						c0.79,0.104,2.156,1.599,3.269,2.365c0.214,0.194,0.247,0.334,0.043,0.187c0,0,0.063,0.068,0.159,0.17
						c0.091,0.098,0.245,0.257,0.287,0.321c0.122,0.161,0.244,0.322,0.244,0.322c0.28-0.032,0.433,0.091,0.537,0.23
						c0.11,0.145,0.159,0.295,0.396,0.453c0.537,0.23,0.938,0.342,1.648,0.78c0.274,0.425,0.748,0.777,1.28,1.186
						c0.507,0.388,1.066,0.828,0.918,0.929c0.332,0.173,0.645,0.351,0.945,0.526c0.341,0.242,0.281,0.342,1.825,0.948
						c-1.252-0.37-2.474-0.773-3.516-1.126c-1.048-0.354-1.916-0.657-2.644-0.868c-0.018,0.045-0.058,0.081-0.085,0.125
						c0.276,0.376,0.259,0.852,0.257,1.288C50.341,15.68,50.546,16.119,52.343,16.659z"/>
					<path fill="#FFFFFF" d="M29.325,15.223l0.488-0.673l-0.138,0.043C29.38,14.772,29.569,14.885,29.325,15.223z"/>
					<path fill="#FFFFFF" d="M41.677,14.891c-0.021,0.402-0.172,1.5-0.181,1.955c0.044-0.074,0.099-0.373,0.138-0.587
						c0.042-0.221,0.068-0.357,0.117-0.27C41.719,15.384,41.661,15.28,41.677,14.891z"/>
					<path fill="#FFFFFF" d="M40.622,4.813c0.102-0.154,0.204-0.307,0.308-0.452l0.051,0.032c-0.024-0.065-0.048-0.13-0.066-0.145
						l-0.069-0.132C40.471,4.432,40.813,4.521,40.622,4.813z"/>
					<path fill="#FFFFFF" d="M40.301,22.109c-0.067,0.328-0.186,0.354-0.052,0.778c0.004,0.022,0.253,0.229,0.25,0.207
						C40.442,23.123,40.356,21.345,40.301,22.109z"/>
					<path fill="#FFFFFF" d="M39.443,19.934l-0.252,0.687c0.144,0.486,0.311,0.567,0.358,1.21
						C39.469,20.997,39.604,20.709,39.443,19.934z"/>
					<path fill="#FFFFFF" d="M40.72,26.2c-0.059,0.04-0.113,0.11-0.164,0.205c-0.088-0.857-0.202-0.808-0.311-0.969
						c-0.105-0.141-0.209-0.509-0.206-1.781c-0.416-1.917-0.544-0.676-0.615,0.72c0.09,0.535,0.152,0.266,0.236,0.032
						c0.083-0.236,0.188-0.436,0.34,0.104c0.118,1.066,0.277,2.371,0.227,3.346c0.051,0.325,0.092,0.553,0.125,0.698
						c0.226-0.683,0.206-0.896,0.193-1.146C40.532,27.161,40.527,26.87,40.72,26.2z"/>
					<path fill="#FFFFFF" d="M38.781,21.099l0.221,1.308l0.071-1.031C39.074,21.388,38.783,21.112,38.781,21.099z"/>
					<path fill="#FFFFFF" d="M40.398,30.095l0.413-1.542c-0.202,0.515-0.404,1.03-0.609,1.58l-0.02-0.183
						c0.004,0.083,0.009,0.165,0.017,0.211C40.262,30.149,40.328,30.127,40.398,30.095z"/>
					<path fill="#FFFFFF" d="M39.466,31.158l0.19,1.125c0.181,0.523,0.311,0.567,0.213-0.555
						C39.636,30.533,39.601,31.413,39.466,31.158z"/>
					<path fill="#FFFFFF" d="M45.464,13.384c-0.237-0.125-0.5-0.255-0.813-0.394c-0.221,0.264-0.466,0.609-0.732,1.033l-0.417,0.693
						c-0.064,0.104-0.162,0.299-0.203,0.343l-0.139,0.18c-0.295,0.367-0.583,0.727-0.866,1.078
						c-0.017,0.377-0.062,0.813-0.145,1.291c0,0-0.097,0.065-0.178,0.091c-0.083,0.029-0.152,0.019-0.152,0.019
						c-0.199,0.536-0.408,1.265-0.686,2.634c-0.043,0.094-0.092,0.225-0.146,0.401c-0.001-0.367,0.025-0.573,0.029-0.909
						c-0.107,0.092-0.135-0.789-0.317-0.598c0.009-0.668,0.133-1.021,0.234-1.513c-0.115-0.131-0.123-0.621-0.117-0.949
						l-0.001-0.241c-0.008-0.111,0.013-0.027-0.058-0.443c-0.104-0.612-0.23-1.202-0.39-1.687c0.193-0.971-0.269-2.068-0.484-3.031
						c-0.472,0.274-0.866,0.454-1.156,0.434c-1.08,0.463-2.31,1.115-3.227,1.677c-0.27,0.161-0.33,0.218-0.467,0.318
						c-0.118,0.09-0.224,0.179-0.315,0.262c-0.182,0.167-0.306,0.318-0.353,0.436c-0.043-0.08,0.306-0.536-0.336-0.336
						c-0.1,0.087-0.319,0.236-0.306,0.263c-0.115,0.061-1.236,0.477-1.512,0.792c-0.117,0.125-0.14,0.186-0.084,0.211
						c1.559-0.366-0.973,2.172-1.778,3.224c-0.15,0.121-0.29,0.233-0.437,0.351c0.63-0.231,1.302-0.521,2.066-0.931
						c-0.305-0.011,0.875-0.595,0.219-0.422c-0.117,0.062-0.218,0.148-0.334,0.21l-0.904,0.268c0.642-0.473,2.358-1.167,2.679-1.677
						c0.858-0.347,1.208-0.257,1.761-0.342c0.316-0.157,0.685-0.327,1.001-0.466c0.215-0.088,0.434-0.178,0.645-0.264
						c0.41-0.177,0.753-0.357,1.176-0.715c0.014-0.009,0.028-0.017,0.039-0.023c0.193,0.843-0.003,1.279-0.161,1.592
						c0.08,0.112,0.113,0.346,0.15,0.542c0.024,0.128,0.047,0.251,0.069,0.369c0.03,0.14,0.058,0.272,0.086,0.4
						c0.058,0.238,0.118,0.412,0.183,0.48c0.136,1.884-0.037,3.043-0.072,4.465c0.187,2.012,0.324,1.731,0.618,2.558
						c0.261,1.726,0.152,1.987,0.049,2.242c-0.102,0.26-0.193,0.539,0.182,2.749c0.169,1.242,0.442,2.283,0.606,2.523
						c0.143-0.554,0.234-0.991,0.253-1.212c0.257-0.431,0.596-1.363,0.905-2.204c0.311-0.847,0.595-1.609,0.812-1.89
						c0.439-2.002,0.914-3.104,1.478-4.422c0.547-1.274,1.189-2.785,1.522-4.417c0.207-0.532,0.399-1.055,0.578-1.564l0.257-0.752
						l0.053-0.162l0.003-0.029l0.003-0.059c0.01-0.208,0.02-0.421,0.03-0.64c0.117-0.038,0.276-0.068,0.483-0.079
						C46.504,14.633,46.649,14.111,45.464,13.384z"/>
				</g>
			</g>
			<g>
				<g>
					<path fill="#FFFFFF" d="M12.732,21.218c0.166-0.44-0.223,0.188-0.077-0.047l0.38-0.958
						C12.751,21.014,13.588,20.122,12.732,21.218z"/>
					<path fill="#FFFFFF" d="M12.836,19.44l-0.005-0.22c0.171-0.22,0.54-0.643,0.423-0.281
						C13.105,19.064,12.982,19.205,12.836,19.44z"/>
					<path fill="#FFFFFF" d="M10.248,19.137l0.245-0.281c-0.097,0.157-0.017,0.314-0.188,0.534L10.248,19.137z"/>
					<path fill="#FFFFFF" d="M25.879,20.34c0.006,0.048,0.024,0.111,0.067,0.205c-0.151,0.071-0.288,0.025-0.614-0.207
						c-0.175-0.304-0.744-0.863-0.529-0.872l0.063,0.062c0.083-0.095,0.003-0.571-0.312-0.881c-0.143-0.008-0.051,0.391-0.451,0.174
						c-0.379-0.372-0.738-0.902-0.898-1.323l-0.483-0.122c-0.3-0.428-0.276-0.625-0.445-0.967l0.269,0.132
						c-0.043-0.219,0.245-0.245-0.188-0.758c-0.395-0.255-0.458-0.318-0.906-0.713c-0.132-0.351-0.439-0.729-0.773-1.107
						c-0.238-0.271-0.481-0.55-0.713-0.814c-0.271-0.315-0.525-0.62-0.745-0.913c-0.707-0.375-1.562-1.698-2.378-2.688
						c-0.343,0.546-0.64,1.116-0.754,1.672c-1.182,1.686-1.122,2.277-1.417,3.251c-0.464,0.458-0.367,0.116-0.107-0.485
						c0.241-0.571,0.58-1.295,0.252-1.044c-0.175,0.265-0.347,0.527-0.52,0.791l-0.455,0.722c-0.202,0.342-0.407,0.688-0.614,1.037
						c-0.404,0.7-0.803,1.408-1.231,2.067c-0.041,0.44,0.503-0.026,0.114,0.698c0.039-0.295-0.31-0.156-0.465,0.091
						c0.194-0.254,0.078,0.057,0.115,0.123l0.156-0.175c0.503,0.117-0.623,0.913-0.702,1.504c-0.271,0.125,0.156-0.247,0.041-0.368
						c-0.193-0.106-0.542-0.038-1.008,0.557c-0.494,1.268-1.333,1.897-2.065,3.076L3.76,30.18l6.999-4.618
						c0.123-0.081,0.248-0.169,0.375-0.265c-0.162-0.112,0.266-0.298,0.472-0.466c-0.19,0.317,0.459,0.112,0.743-0.037
						c0.268-0.299,0.12-0.626,0.647-0.934l-0.529-0.056c-0.214,0.093-0.824,0.672-1.129,0.961c-0.188-0.078-0.518,0.155-0.843,0.397
						l-4.899,3.656l2.994-5.504c0.251-0.462,0.487-0.935,0.683-0.689l-0.194,0.183c-0.18,0.192-0.297,0.382-0.377,0.574l-2.21,5.277
						l3.933-3.606c0.411-0.377,0.598-0.875,1.064-1.344c0.681-0.271,1.025-0.187,1.538-0.279c0.535-0.234,0.587-0.439,0.786-0.682
						c0.374-0.345,0.672-0.345,0.963-0.42c0.136-0.112-0.115-0.028,0.022-0.14c0.214-0.093,0.466-0.177,0.603-0.29
						c-0.108-0.318-0.91,0.215-1.445,0.448c0.099-0.121,0.091-0.195,0.267-0.298c0.136-0.112,0.144-0.037,0.183-0.028l0.275-0.225
						c-0.045-0.084-0.208-0.196,0.174-0.467l0.338,0.009c0.809-0.457,0.93-1.083-0.087-0.457l0.024,0.224l-1.117,0.383
						c-0.267-0.066,0.367-0.421,0.273-0.589c0.006-0.289-0.88,0.149-1.27,0.345c-0.297,0.364,0.337,0.009,0.619-0.139l-0.341,0.643
						c-0.137,0.112-0.39,0.197-0.436,0.112c-0.224,0.019-0.186-0.336-0.461-0.112c-0.878,0.513,0.147,0.327-0.548,0.812
						c0.392,0.168,1.622-0.551,2.096-0.654l0.312-0.214c0.23,0.056-0.48,0.391,0.055,0.158c-0.671,0.71-2.048,1.102-2.775,1.289
						c-0.131-0.177-0.888,0.074-0.538-0.495c-0.283,0.149-0.512,0.093-0.856,0.373c-0.228,0.279-0.446,0.47-0.66,0.616
						c0.228,0.221,0.446,0.433,0.665,0.645c0.333-0.555,0.764-0.853,1.098-1.534c-0.117,0.095-0.076-0.13-0.116-0.193
						c0.895-1.184,0.577,0.896,1.474-0.937c0.156-0.318,0.157-0.535,0.001-0.504c-0.194,0.182-0.465,0.307-0.622,0.697
						c-0.078-0.056-0.427,0.515-0.387,0.076c0.545-0.754,0.469-1.316,0.935-1.912l0.001-0.288c0.156-0.246,0.39-0.94,0.701-1.216
						c0.699-0.928,0.231,0.243,0.347,0.364l0.583-0.762c0.274-1.134,1.397-1.28,1.516-2.312l0.039,0.137
						c-0.078,0.267,0.028,0.283,0.178,0.19c0.075-0.046,0.162-0.119,0.241-0.201c0.083-0.088,0.155-0.177,0.168-0.201l0.01-0.193
						c-0.094-0.253,0.052-0.563,0.233-0.858c0.185-0.301,0.39-0.563,0.543-0.93c0.015-0.02,0.029-0.031,0.04-0.034
						c0.053,0.108,0.065,0.212,0.012,0.17l0,0l0,0l0.381,0.741c0.19-0.411,0.292,0.331,0.517,0.504
						c0.26,0.049,0.39-0.063,0.81,0.255c0.688,1.292,1.566,1.67,2.122,2.878c0.361-0.042,0.93,0.517,0.806-0.178
						c0.716,1.144,1.221,2.276,1.978,3.336c0.096,0.041,0.186,0.079,0.284,0.121C24.719,21.346,26.553,21.586,25.879,20.34z"/>
					<path fill="#FFFFFF" d="M15.189,22.721L14.7,23.039l0.115,0.028C15.076,23.057,14.944,22.88,15.189,22.721z"/>
					<path fill="#FFFFFF" d="M19.779,17.338c-0.956-0.399-1.831-0.614-1.15-0.058c1.131,0.671,1.992,0.877,3.168,1.713
						C21.853,18.748,20.305,17.773,19.779,17.338z"/>
					<path fill="#FFFFFF" d="M13.848,19.718l0.428-0.732l-0.271,0.053C13.539,19.562,14.082,19.312,13.848,19.718z"/>
					<path fill="#FFFFFF" d="M18.986,20.956c0.11,0.142,0.209,0.442,0.178,0.047l-0.152-0.799
						C19.06,20.365,18.806,20.921,18.986,20.956z"/>
					<path fill="#FFFFFF" d="M19.32,22.988c0,0,0.358,0.073,0.358,0.073c-0.047-0.188-0.183-0.406-0.11-0.556
						C19.491,22.709,19.317,22.62,19.32,22.988z"/>
					<path fill="#FFFFFF" d="M20.093,21.02c-0.331-0.344-0.503-0.404-0.578-0.371c0.075,0.457,0.25,0.835-0.052,0.833
						c0.016,1.009,0.356,0.921,0.645,1.114c0.017-0.226-0.396-0.393-0.47-1.022c0.055-0.162,0.11-0.34,0.202-0.319
						c0.089,0.097,0.165,0.197,0.23,0.308c0.287,0.179,0.237,0.047,0.134-0.137C20.102,21.242,19.922,20.993,20.093,21.02z"/>
					<path fill="#FFFFFF" d="M20.146,23.29l0.017-0.228c0-0.008-0.242-0.008-0.242,0S20.145,23.298,20.146,23.29z"/>
					<path fill="#FFFFFF" d="M20.702,22.578c-0.007-0.004,0.051-0.145,0.059-0.141l-0.284-0.194L20.702,22.578z"/>
					<path fill="#FFFFFF" d="M21.121,23.646c-0.081-0.149-0.137-0.319-0.234-0.479c-0.009,0.006,0.002,0.04,0.025,0.088
						C20.972,23.383,21.065,23.549,21.121,23.646z"/>
					<path fill="#FFFFFF" d="M26.809,24.131l0.024,0.088c0.05-0.061,0.104-0.125,0.159-0.191c-0.72-1.025-1.788-2.115-3.051-3.113
						c-0.327-0.051-0.664-0.113-1.025-0.214c0.118,0.066-1.174-0.971-1.174-0.971c-1.355-0.76-3.003-1.581-3.399-1.352
						c-0.031-0.027-0.061-0.053-0.087-0.076c-0.059,0.091-0.108,0.037-0.171,0.183c0.071,0.678-0.115,1.571,0.046,2.263
						c-0.158,0.508-0.332,0.386-0.536,0.691c0.016,0.411-0.01,0.811-0.056,1.228c-0.026,0.204-0.053,0.416-0.081,0.635
						c-0.026,0.148-0.052,0.3-0.079,0.451c-0.103,0.571-0.19,1.143-0.076,1.657c-0.393,0.308-0.122,0.94-0.131,1.466
						c0.829-0.14,1.636-0.277,2.443-0.414c-0.094-0.186-0.141-0.376-0.079-0.576c-0.277-1.089-0.95-2.1-1.363-2.216
						c0.083-0.037,0.451,0.201,0.376-0.272c-0.064-0.071-0.166-0.228-0.193-0.216c-0.037-0.084-0.231-0.907-0.479-1.098
						c-0.096-0.081-0.15-0.095-0.184-0.052c0.068,1.156-1.875-0.614-2.723-1.163c-0.089-0.108-0.168-0.206-0.254-0.311
						c0.107,0.462,0.261,0.954,0.512,1.507c0.064-0.231,0.406,0.627,0.359,0.142c-0.037-0.085-0.101-0.156-0.138-0.241l-0.093-0.667
						c0.333,0.458,0.683,1.715,1.106,1.929c0.175,0.628,0.029,0.897,0.011,1.31c0.375,0.932,0.632,2.116,1.172,2.779l2.269,2.784
						l-0.599-3.066L19.31,27.01c0.013-1.016,0.299-1.183,0.53-1.446c-0.086-0.467,0.125-1.285-0.073-1.481
						c0.061-0.204,0.129-0.373,0.204-0.518c0.069-0.07,0.143-0.109,0.219-0.137c0.151-0.051,0.31-0.041,0.444-0.016
						c0.154-0.046-0.022-0.126-0.154-0.398c0.042-0.159,0.178,0.052,0.309,0.219c0.131,0.17,0.257,0.314,0.257,0.295
						c0.018,0.021,0.008,0.002-0.017-0.054c-0.049-0.101-0.112-0.313-0.183-0.497c0.174,0.305,0.235,0.095,0.298,0.372
						c-0.085-0.709,1.113,0.9,2.315,0.984c0.922,0.562,1.786,0.829,2.713,1.153l7.84,2.737l-5.893-5.076l-0.515-0.443
						C27.01,22.819,26.71,23.302,26.809,24.131z"/>
				</g>
			</g>
			<g>
				<g>
					<path fill="#FFFFFF" d="M43.13,0.997c-1.123-0.78,0.583,0.581-0.057,0.071c-1.01-0.73-2.021-1.46-3.042-2.274l-0.028,0.14
						c0.015-0.022,0.029-0.043,0.039-0.058c1.204,0.845,0.958,0.516,0.883,0.374c-0.033-0.066-0.008-0.073,0.313,0.178
						c0.159,0.129,0.391,0.317,0.728,0.59C42.255,0.261,42.635,0.58,43.13,0.997z"/>
					<path fill="#FFFFFF" d="M39.047,1.146l-0.268,0.552c-0.527,0.645-1.572,1.872-0.993,0.958C38.163,2.26,38.5,1.866,39.047,1.146
						z"/>
					<path fill="#FFFFFF" d="M40.701,3.162c0.006,0.004-0.09-0.149-0.096-0.154c0.049,0.039,0.119-0.099,0.235,0.033
						C40.832,3.033,40.692,3.155,40.701,3.162z"/>
					<path fill="#FFFFFF" d="M6.002,28.124c0.008,0.027,0.039,0.052,0.118,0.079c-0.205,0.162-0.411,0.238-1.139,0.34
						c-0.103-0.015-0.256-0.021-0.423-0.025l-0.127-0.002c0.012-0.026,0.054-0.067,0.08-0.1c0.06-0.069,0.118-0.136,0.173-0.2
						c0.226-0.257,0.409-0.442,0.494-0.411L5.12,27.887c0.117-0.044,0.362-0.194,0.572-0.336c0.214-0.147,0.389-0.28,0.488-0.433
						c-0.027-0.05-0.141-0.025-0.25-0.02c-0.105,0-0.207-0.015-0.094-0.283l0.175-0.233l0.369-0.451l0.809-0.939
						c0.543-0.611,1.082-1.176,1.537-1.609l0.531-1.097c1.01-1.148,1.375-1.362,2.14-2.142l-0.418,0.695
						c0.45-0.375,0.323,0.15,1.579-1.366c0.734-1.102,0.893-1.307,1.931-2.699c0.533-0.506,1.146-1.198,1.787-1.962
						c0.158-0.19,0.318-0.384,0.48-0.58l0.141-0.18l0.29-0.379c0.105,0.078,0.208,0.155,0.306,0.228
						c0.114,0.096,0.222,0.188,0.324,0.273c2.259,1.188,5.062,4.19,8.482,6.215c0.041-0.074,0.078-0.142,0.117-0.212
						c0.935-1.184,1.726-2.226,2.246-2.947c0.366-0.519,0.631-0.938,0.851-1.317c0.439-0.759,0.7-1.36,1.235-2.282
						c2.111-2.276-2.126,3.446-0.901,2.315c2.805-3.532,5.647-7.552,8.459-11.204c0.544-1.043-0.839,0.42,0.576-1.527
						c-0.384,0.708,0.329,0.137,0.849-0.542c-0.597,0.733-0.05-0.094-0.066-0.182l-0.428,0.497
						c-0.122,0.016-0.137-0.055-0.073-0.192c0.032-0.068,0.083-0.152,0.149-0.25c0.059-0.081,0.125-0.172,0.2-0.275
						c0.232-0.297,0.571-0.654,0.854-0.996c0.294,0.254,0.557,0.456,0.793,0.556c0.269,0.425-0.397-0.32-0.466-0.168
						c0,0.14,0.069,0.35,0.181,0.57c0.056,0.111,0.122,0.224,0.198,0.335C41.06,2.783,41.29,2.99,41.44,3.129
						c0.175,0.155,0.364,0.322,0.568,0.503c3.567,2.495,5.64,4.785,9.467,7.708c-0.055-0.276,0.95,0.628,1.573,1.091
						c-0.864-0.485,0.521,0.859,1.231,1.467c0.477,0.315,0.803,0.43,1.183,0.609c0.189,0.089,0.393,0.195,0.634,0.349
						c0.127,0.082,0.237,0.156,0.408,0.284c0.237,0.188,0.496,0.392,0.792,0.626c0,0-0.344-0.382-0.688-0.765
						c-0.188-0.258-0.377-0.517-0.377-0.517c-0.501-0.453-2.493-1.854-3.487-2.555c-0.356-0.777-4.822-3.625-4.063-3.69l0.549,0.525
						c2.049,1.878,3.479,2.35,5.633,3.834c0.776,0.715,1.262,1.233,1.675,1.703l0.299,0.345l0.454,0.47
						c0.315,0.323,0.659,0.667,1.073,1.063c0.408,0.342,0.749,0.628,1.035,0.869c1.095-1.163,1.518-1.776,2.173-2.594
						c0.993-1.193,1.573-1.576,2.223-2.133c0.337-0.39-0.224,0.114,0.114-0.277c0.489-0.468,1.052-0.974,1.389-1.365
						c-0.067-0.405-1.986,1.669-3.205,2.838c0.263-0.353,0.284-0.473,0.697-0.903c0.337-0.39,0.316-0.27,0.393-0.309l0.679-0.785
						c-0.054-0.083-0.334-0.049,0.587-1.065l0.693-0.464c1.896-1.95,2.451-3.221,0.044-0.679l-0.061,0.359l-2.495,2.258
						c-0.521,0.264,0.964-1.259,0.853-1.421c0.154-0.517-1.893,1.512-2.793,2.408c-0.79,1.059,0.692-0.463,1.348-1.124l-1.02,1.614
						c-0.342,0.396-0.913,0.911-0.931,0.789c-0.411,0.286-0.117-0.437-0.686,0.229c-0.07,0.072-0.134,0.139-0.185,0.192
						c-0.768-0.624-0.788-0.525-0.802-0.415c-0.015,0.109-0.011,0.24-0.934-0.483c0.122,0.294,0.846,1.001,1.809,1.873
						c0.577-0.556,1.194-1.149,1.748-1.682c0.518-0.496,0.951-0.901,1.248-1.148l0.751-0.82c0.448-0.229-1.183,1.367,0.037,0.199
						c-0.447,0.566-0.98,1.163-1.553,1.758c-0.354,0.362-0.717,0.732-1.083,1.106l-1.111,1.088c-0.775-0.69-1.482-1.341-2.074-1.902
						c-0.484-0.482-0.928-0.923-1.293-1.287c0.111-0.193-1.526-1.766,0.041-0.876c-0.71-0.607-0.97-1.036-2.011-1.811
						c-2.976-1.897-3.879-3.199-6.372-5.053c0.295,0.298-0.245-0.024-0.361-0.032c-3.303-2.811,1.648,0.084-3.132-3.471
						c-0.83-0.617-1.324-0.867-1.149-0.579c0.546,0.524,1.015,1.108,2.01,1.81c-0.075,0.062,1.463,1.284,0.434,0.716
						c-1.043-0.875-1.872-1.442-2.649-1.97c-0.372-0.251-0.796-0.544-1.211-0.849c-0.415-0.304-0.829-0.625-1.303-1.03
						c-0.036-0.017-0.073-0.034-0.11-0.064l-0.344,0.672c-0.561,0.734-1.695,2.503-2.492,3.357c-2.137,2.64-0.108-0.395-0.163-0.591
						l-1.77,2.176c-1.675,2.81-3.644,3.952-4.959,6.415l0.087-0.287c0.834-1.345-0.619,0.164-1.289,1.056l-0.456,0.754
						c-0.185,0.504-0.673,1.251-1.295,2.107c-0.274,0.367-0.569,0.76-0.872,1.166c-0.232,0.302-0.471,0.612-0.706,0.917
						c-0.426-0.334-0.833-0.644-1.228-0.91c-0.407-0.333-0.581-0.577-0.15-0.264l-2.285-2.01c-0.468-0.106-0.909-0.445-1.416-0.892
						c-0.25-0.224-0.529-0.472-0.822-0.733c-0.153-0.129-0.31-0.261-0.47-0.397c-0.227-0.175-0.458-0.353-0.702-0.541
						c-0.89-0.564-1.365-0.803-1.991-1.174c-0.295,0.448-0.648,0.958-1.137,1.62c-0.411,0.449-0.792,0.866-1.155,1.263
						c-0.316,0.364-0.615,0.708-0.904,1.041c-0.57,0.676-1.085,1.32-1.593,1.952c-1.015,1.265-2,2.483-3.336,3.821
						C8.56,20.859,7.132,22.7,8.551,21.54c-1.333,1.461-2.59,2.771-3.897,4.159c-0.772,0.843-1.539,1.681-2.307,2.519l-1.221,1.368
						l-0.621,0.706L0.428,30.38c-0.041,0.037,0.05,0.012,0.068,0.021l0.214,0.005l0.435,0.01c0.414-0.046,0.834-0.094,1.246-0.14
						c0.526-0.154,1.287-0.348,1.949-0.557c0.669-0.209,1.232-0.433,1.573-0.646C6.601,28.648,6.466,28.264,6.002,28.124z"/>
					<path fill="#FFFFFF" d="M64.461,12.42l-1.166,1.252l0.225-0.115C64.064,13.17,63.877,13.047,64.461,12.42z"/>
					<path fill="#FFFFFF" d="M36.395,32.168c1.625-0.121,3.518-0.363,2.436-0.514c-2.161-0.03-3.787,0.212-5.947,0.061
						C32.883,31.956,35.586,32.047,36.395,32.168z"/>
					<path fill="#FFFFFF" d="M37.676,1.288L36.19,3.281l0.494-0.315C38.005,1.425,36.858,2.39,37.676,1.288z"/>
					<path fill="#FFFFFF" d="M44.788,29.657c0-0.121,0.543-0.242-0.537-0.182l-1.626,0.212
						C42.897,29.627,45.329,29.839,44.788,29.657z"/>
					<path fill="#FFFFFF" d="M50.472,29.173l-0.269-0.362c-0.812,0.061-1.353,0.212-2.164,0.151
						C49.12,29.022,49.119,29.203,50.472,29.173z"/>
					<path fill="#FFFFFF" d="M38.842,29.112c2.975,0.363,3.25-0.453,5.682,0.03c3.516-0.091,2.435-0.423,1.625-0.726
						c-1.354,0-0.002,0.424-2.167,0.545c-1.353-0.062-2.977-0.121-3.243-0.333C37.221,28.598,40.737,28.991,38.842,29.112z"/>
					<polygon fill="#FFFFFF" points="50.477,28.326 48.855,28.326 49.664,28.568 					"/>
					<polygon fill="#FFFFFF" points="38.846,28.053 37.495,28.205 39.928,28.235 					"/>
					<path fill="#FFFFFF" d="M42.098,27.328h-1.086c-0.811,0.091-1.349,0.211-0.54,0.302C41.825,27.6,41.555,27.419,42.098,27.328z"
						/>
					<path fill="#FFFFFF" d="M14.344,29.837c3.36,0.558,7.748,0.999,12.521,1.255c0.91-0.115,1.86-0.227,2.931-0.315l2.984,0.271
						c2.974-0.001,6.488-0.094,8.366-0.488c0.543,0.061,0.545,0.121,1.088,0.181c1.077-0.121,3.246-0.002,4.319-0.214
						c1.355,0.12,1.363,0.302,2.182,0.483c2.967-0.184,6.77,0.299,9.731-0.005c1.374,0.514,4.317-0.305,5.958,0.178
						c3.252,0.18,6.761-0.034,7.559-0.367c0.003,0.091-1.07,0.333,0.288,0.454c0.267-0.031,0.808-0.061,0.809-0.091
						c0.268,0,2.706,0.15,3.513-0.002c0.331-0.056,0.432-0.1,0.356-0.148c-3.188-0.398,3.855-1.474,6.331-2.033l1.133-0.109
						c-1.368-0.086-2.87-0.141-4.653-0.131c0.545,0.151-2.163,0.122-0.805,0.272c0.27-0.01,0.543-0.021,0.811-0.031l1.901,0.181
						c-1.622,0.122-5.412-0.058-6.486,0.245c-1.894-0.09-2.445-0.331-3.533-0.512c-2.975-0.028-6.5-0.269-8.925-0.025
						c-2.975,0.062-3.524-0.21-4.344-0.421c-1.351,0.121-3.788-0.028-4.32,0.183c-2.441-0.18-3.268-0.542-4.358-0.814
						c-1.9-0.15-1.895,0.031-3.24,0.183c-3.79-0.059,0.788-0.605-3.541-0.603c-1.624-0.06-3.778,0.183-3.771,0.365
						c-1.899-0.181-4.326,0.032-5.688-0.179c-2.955,0.576-6.771-0.238-10.268,0.277c-3.883-0.046-6.904,0.251-10.565,0.438
						C11.766,28.843,12.29,29.383,14.344,29.837z"/>
				</g>
			</g>
		</g>
	</g>
	<g>
		<path fill="#FFFFFF" d="M8.146,51.678c0.501,0,0.822,0.047,0.962,0.142c0.14,0.095,0.21,0.271,0.21,0.532
			c0,0.267-0.07,0.451-0.21,0.552c-0.14,0.101-0.422,0.151-0.845,0.151H3.624c-0.423,0-0.703-0.051-0.84-0.151
			s-0.205-0.285-0.205-0.552c0-0.261,0.076-0.438,0.229-0.532c0.153-0.095,0.47-0.142,0.952-0.142h1.416v-3.243l-3.252-5.557H1.758
			c-0.391,0-0.658-0.052-0.801-0.156c-0.143-0.104-0.215-0.287-0.215-0.547c0-0.241,0.06-0.418,0.181-0.532s0.308-0.171,0.562-0.171
			h0.44h2.236c0.384,0,0.643,0.052,0.776,0.156c0.134,0.104,0.2,0.287,0.2,0.547s-0.08,0.443-0.239,0.547
			c-0.16,0.104-0.451,0.156-0.874,0.156H3.702l2.364,4.239l2.451-4.239h-0.4c-0.352,0-0.596-0.052-0.732-0.156
			c-0.137-0.104-0.205-0.287-0.205-0.547c0-0.273,0.059-0.459,0.176-0.557s0.414-0.146,0.889-0.146h0.254h1.543
			c0.495,0,0.812,0.05,0.952,0.151s0.21,0.285,0.21,0.552c0,0.26-0.07,0.443-0.21,0.547c-0.14,0.104-0.405,0.156-0.796,0.156h-0.156
			L6.72,48.572v3.106H8.146z"/>
		<path fill="#FFFFFF" d="M20.247,51.815c-0.534,0.481-1.115,0.85-1.743,1.104S17.229,53.3,16.565,53.3
			c-0.97,0-1.753-0.271-2.349-0.811c-0.596-0.54-0.894-1.244-0.894-2.109c0-1.029,0.396-1.827,1.187-2.394
			c0.791-0.566,1.903-0.85,3.335-0.85c0.377,0,0.758,0.024,1.143,0.073s0.778,0.126,1.182,0.229v-0.068
			c0-0.749-0.179-1.302-0.537-1.66s-0.915-0.537-1.67-0.537c-0.508,0-1.075,0.137-1.7,0.41s-1.039,0.41-1.24,0.41
			c-0.189,0-0.345-0.077-0.469-0.229c-0.124-0.153-0.186-0.35-0.186-0.591c0-0.384,0.359-0.71,1.079-0.977
			c0.719-0.267,1.639-0.401,2.759-0.401c1.146,0,2.012,0.292,2.598,0.875c0.586,0.583,0.879,1.444,0.879,2.583v4.425h0.479
			c0.462,0,0.771,0.049,0.928,0.146s0.234,0.273,0.234,0.527c0,0.234-0.065,0.41-0.195,0.527s-0.326,0.176-0.586,0.176h-1.533
			c-0.183,0-0.333-0.056-0.45-0.166s-0.195-0.271-0.234-0.479L20.247,51.815z M20.169,48.738c-0.358-0.117-0.705-0.203-1.04-0.259
			c-0.335-0.055-0.669-0.083-1.001-0.083c-1.003,0-1.794,0.17-2.374,0.508c-0.58,0.339-0.869,0.795-0.869,1.368
			c0,0.442,0.181,0.807,0.542,1.094c0.361,0.286,0.822,0.43,1.382,0.43c0.827,0,1.594-0.217,2.3-0.649
			c0.707-0.434,1.06-0.884,1.06-1.353V48.738z"/>
		<path fill="#FFFFFF" d="M32.251,51.815c-0.534,0.481-1.115,0.85-1.743,1.104S29.233,53.3,28.569,53.3
			c-0.97,0-1.753-0.271-2.349-0.811c-0.596-0.54-0.894-1.244-0.894-2.109c0-1.029,0.396-1.827,1.187-2.394
			c0.791-0.566,1.903-0.85,3.335-0.85c0.377,0,0.758,0.024,1.143,0.073s0.778,0.126,1.182,0.229v-0.068
			c0-0.749-0.179-1.302-0.537-1.66s-0.915-0.537-1.67-0.537c-0.508,0-1.075,0.137-1.7,0.41s-1.039,0.41-1.24,0.41
			c-0.189,0-0.345-0.077-0.469-0.229c-0.124-0.153-0.186-0.35-0.186-0.591c0-0.384,0.359-0.71,1.079-0.977
			c0.719-0.267,1.639-0.401,2.759-0.401c1.146,0,2.012,0.292,2.598,0.875c0.586,0.583,0.879,1.444,0.879,2.583v4.425h0.479
			c0.462,0,0.771,0.049,0.928,0.146s0.234,0.273,0.234,0.527c0,0.234-0.065,0.41-0.195,0.527s-0.326,0.176-0.586,0.176h-1.533
			c-0.183,0-0.333-0.056-0.45-0.166s-0.195-0.271-0.234-0.479L32.251,51.815z M32.173,48.738c-0.358-0.117-0.705-0.203-1.04-0.259
			c-0.335-0.055-0.669-0.083-1.001-0.083c-1.003,0-1.794,0.17-2.374,0.508c-0.58,0.339-0.869,0.795-0.869,1.368
			c0,0.442,0.181,0.807,0.542,1.094c0.361,0.286,0.822,0.43,1.382,0.43c0.827,0,1.594-0.217,2.3-0.649
			c0.707-0.434,1.06-0.884,1.06-1.353V48.738z"/>
		<path fill="#FFFFFF" d="M45.612,47.615c0-0.918-0.082-1.538-0.247-1.86s-0.447-0.483-0.849-0.483
			c-0.478,0-0.858,0.208-1.139,0.625c-0.281,0.417-0.422,0.989-0.422,1.719v4.063h0.176c0.397,0,0.663,0.047,0.796,0.142
			c0.134,0.095,0.2,0.271,0.2,0.532c0,0.234-0.056,0.41-0.166,0.527s-0.28,0.176-0.508,0.176h-1.24c-0.28,0-0.471-0.065-0.571-0.195
			c-0.101-0.13-0.151-0.41-0.151-0.84v-0.283v-4.122v-0.762c0-0.488-0.11-0.874-0.33-1.157c-0.22-0.283-0.52-0.425-0.901-0.425
			c-0.291,0-0.558,0.086-0.8,0.259c-0.242,0.172-0.451,0.428-0.625,0.767v5.382h0.361c0.391,0,0.654,0.049,0.791,0.146
			s0.205,0.273,0.205,0.527c0,0.267-0.055,0.451-0.166,0.552s-0.322,0.151-0.635,0.151h-2.613c-0.255,0-0.444-0.057-0.565-0.171
			s-0.182-0.291-0.182-0.532c0-0.261,0.077-0.438,0.229-0.532s0.451-0.142,0.894-0.142h0.195v-6.261h-0.176
			c-0.456,0-0.767-0.052-0.933-0.156s-0.249-0.287-0.249-0.547c0-0.228,0.065-0.399,0.196-0.513
			c0.131-0.114,0.327-0.171,0.589-0.171h1.502c0.217,0,0.361,0.038,0.43,0.112c0.069,0.075,0.111,0.233,0.124,0.474
			c0.266-0.287,0.55-0.499,0.855-0.635c0.304-0.137,0.647-0.205,1.03-0.205c0.453,0,0.827,0.1,1.122,0.298
			c0.294,0.199,0.513,0.5,0.656,0.904c0.273-0.41,0.589-0.713,0.947-0.909c0.358-0.195,0.769-0.293,1.23-0.293
			c0.84,0,1.454,0.273,1.841,0.821c0.388,0.547,0.582,1.432,0.582,2.656v4.425h0.156c0.403,0,0.674,0.049,0.811,0.146
			s0.205,0.273,0.205,0.527c0,0.234-0.059,0.41-0.176,0.527s-0.29,0.176-0.518,0.176h-1.191c-0.264,0-0.459-0.078-0.584-0.234
			c-0.126-0.156-0.188-0.403-0.188-0.742V47.615z"/>
		<path fill="#FFFFFF" d="M54.92,51.678h3.135c0.254,0,0.441,0.054,0.562,0.161c0.121,0.107,0.182,0.278,0.182,0.513
			c0,0.267-0.058,0.451-0.172,0.552c-0.113,0.101-0.323,0.151-0.63,0.151h-7.579c-0.26,0-0.455-0.059-0.586-0.176
			c-0.13-0.117-0.195-0.293-0.195-0.527c0-0.228,0.068-0.397,0.205-0.508s0.342-0.166,0.615-0.166h2.979v-6.261h-1.905
			c-0.267,0-0.47-0.06-0.61-0.181c-0.14-0.121-0.21-0.294-0.21-0.522s0.065-0.399,0.195-0.513c0.131-0.114,0.326-0.171,0.586-0.171
			h2.862c0.176,0,0.313,0.036,0.415,0.107c0.101,0.072,0.151,0.169,0.151,0.293V51.678z M53.114,41.218
			c0-0.704,0.063-1.146,0.19-1.329c0.127-0.182,0.398-0.273,0.815-0.273c0.403,0,0.671,0.077,0.801,0.229
			c0.13,0.153,0.195,0.516,0.195,1.089c0,0.56-0.061,0.907-0.181,1.04s-0.393,0.2-0.815,0.2c-0.417,0-0.688-0.062-0.815-0.186
			S53.114,41.609,53.114,41.218z"/>
		<path fill="#FFFFFF" d="M62.381,51.678v-6.261h-0.186c-0.442,0-0.747-0.052-0.913-0.156s-0.249-0.287-0.249-0.547
			c0-0.241,0.068-0.415,0.205-0.522c0.137-0.108,0.358-0.162,0.664-0.162h0.459h0.938c0.176,0,0.313,0.036,0.411,0.107
			c0.098,0.072,0.146,0.169,0.146,0.293v0.664c0.475-0.443,0.945-0.77,1.411-0.982c0.465-0.211,0.948-0.317,1.45-0.317
			c0.983,0,1.756,0.306,2.319,0.918c0.563,0.612,0.845,1.458,0.845,2.539v4.425h0.459c0.326,0,0.561,0.054,0.704,0.161
			c0.143,0.107,0.215,0.278,0.215,0.513c0,0.254-0.077,0.435-0.229,0.542c-0.153,0.107-0.426,0.161-0.816,0.161h-2.158
			c-0.417,0-0.684-0.049-0.801-0.146s-0.176-0.283-0.176-0.557c0-0.254,0.068-0.43,0.205-0.527s0.394-0.146,0.771-0.146h0.342
			v-4.063c0-0.762-0.173-1.343-0.518-1.743s-0.847-0.601-1.504-0.601c-0.664,0-1.25,0.225-1.758,0.674s-0.762,1.006-0.762,1.67
			v4.063h0.342c0.391,0,0.654,0.049,0.791,0.146s0.205,0.273,0.205,0.527c0,0.273-0.059,0.459-0.176,0.557s-0.404,0.146-0.859,0.146
			h-1.778h-0.527c-0.267,0-0.467-0.057-0.601-0.171s-0.2-0.291-0.2-0.532c0-0.261,0.076-0.438,0.229-0.532s0.451-0.142,0.894-0.142
			H62.381z"/>
		<path fill="#FFFFFF" d="M78.927,51.678h3.135c0.254,0,0.441,0.054,0.562,0.161c0.121,0.107,0.182,0.278,0.182,0.513
			c0,0.267-0.058,0.451-0.172,0.552c-0.113,0.101-0.323,0.151-0.63,0.151h-7.579c-0.26,0-0.455-0.059-0.586-0.176
			c-0.13-0.117-0.195-0.293-0.195-0.527c0-0.228,0.068-0.397,0.205-0.508s0.342-0.166,0.615-0.166h2.979v-6.261h-1.905
			c-0.267,0-0.47-0.06-0.61-0.181c-0.14-0.121-0.21-0.294-0.21-0.522s0.065-0.399,0.195-0.513c0.131-0.114,0.326-0.171,0.586-0.171
			h2.862c0.176,0,0.313,0.036,0.415,0.107c0.101,0.072,0.151,0.169,0.151,0.293V51.678z M77.12,41.218
			c0-0.704,0.063-1.146,0.19-1.329c0.127-0.182,0.398-0.273,0.815-0.273c0.403,0,0.671,0.077,0.801,0.229
			c0.13,0.153,0.195,0.516,0.195,1.089c0,0.56-0.061,0.907-0.181,1.04s-0.393,0.2-0.815,0.2c-0.417,0-0.688-0.062-0.815-0.186
			S77.12,41.609,77.12,41.218z"/>
		<path fill="#FFFFFF" d="M8.663,61.247c0.319,0,0.552,0.056,0.699,0.166s0.22,0.286,0.22,0.527c0,0.228-0.068,0.398-0.205,0.513
			s-0.342,0.171-0.616,0.171H4.805v3.262c0,1.068,0.139,1.771,0.415,2.11c0.277,0.339,0.75,0.508,1.421,0.508
			c0.592,0,1.302-0.173,2.129-0.518c0.827-0.346,1.338-0.518,1.534-0.518c0.182,0,0.337,0.064,0.464,0.195
			c0.127,0.13,0.19,0.289,0.19,0.479c0,0.215-0.08,0.402-0.239,0.562s-0.432,0.314-0.815,0.464
			c-0.638,0.254-1.213,0.439-1.724,0.557S7.189,69.9,6.74,69.9c-0.762,0-1.401-0.122-1.919-0.366
			c-0.518-0.244-0.903-0.607-1.157-1.089c-0.13-0.228-0.223-0.498-0.278-0.811c-0.056-0.312-0.083-0.795-0.083-1.445v-0.304v-3.262
			H1.641c-0.273,0-0.472-0.054-0.596-0.161S0.86,62.181,0.86,61.94c0-0.267,0.084-0.449,0.254-0.547s0.531-0.146,1.084-0.146h1.104
			v-2.002v-0.519c0-0.279,0.06-0.486,0.181-0.62c0.121-0.133,0.308-0.2,0.562-0.2c0.287,0,0.485,0.082,0.596,0.244
			c0.111,0.163,0.166,0.534,0.166,1.114v1.982H8.663z"/>
		<path fill="#FFFFFF" d="M17.043,68.347h3.243c0.254,0,0.441,0.054,0.562,0.161c0.121,0.107,0.181,0.278,0.181,0.513
			c0,0.267-0.057,0.451-0.171,0.552c-0.114,0.101-0.324,0.151-0.63,0.151H13.84c-0.254,0-0.446-0.059-0.577-0.176
			s-0.195-0.293-0.195-0.527c0-0.228,0.067-0.397,0.2-0.508c0.134-0.11,0.34-0.166,0.621-0.166h1.699v-6.261h-0.664
			c-0.632,0-1.025-0.051-1.182-0.151c-0.156-0.101-0.234-0.285-0.234-0.552c0-0.228,0.063-0.399,0.19-0.513
			c0.127-0.114,0.321-0.171,0.582-0.171h2.227c0.176,0,0.309,0.034,0.4,0.103s0.137,0.167,0.137,0.298v1.66
			c0.619-0.774,1.263-1.351,1.934-1.729c0.67-0.378,1.393-0.566,2.168-0.566c0.579,0,1.048,0.117,1.406,0.352
			c0.358,0.234,0.537,0.537,0.537,0.908c0,0.241-0.089,0.454-0.269,0.64s-0.376,0.278-0.591,0.278c-0.15,0-0.402-0.1-0.757-0.298
			c-0.355-0.198-0.672-0.298-0.953-0.298c-0.508,0-1.043,0.181-1.606,0.542c-0.563,0.361-1.187,0.933-1.871,1.714V68.347z"/>
		<path fill="#FFFFFF" d="M32.251,68.484c-0.534,0.481-1.115,0.85-1.743,1.104s-1.275,0.381-1.939,0.381
			c-0.97,0-1.753-0.271-2.349-0.811c-0.596-0.54-0.894-1.244-0.894-2.109c0-1.029,0.396-1.827,1.187-2.394
			c0.791-0.566,1.903-0.85,3.335-0.85c0.377,0,0.758,0.024,1.143,0.073s0.778,0.126,1.182,0.229V64.04
			c0-0.748-0.179-1.302-0.537-1.66s-0.915-0.537-1.67-0.537c-0.508,0-1.075,0.137-1.7,0.41s-1.039,0.41-1.24,0.41
			c-0.189,0-0.345-0.076-0.469-0.229c-0.124-0.153-0.186-0.35-0.186-0.591c0-0.384,0.359-0.71,1.079-0.977
			c0.719-0.268,1.639-0.4,2.759-0.4c1.146,0,2.012,0.291,2.598,0.874c0.586,0.583,0.879,1.443,0.879,2.583v4.425h0.479
			c0.462,0,0.771,0.049,0.928,0.146s0.234,0.273,0.234,0.527c0,0.234-0.065,0.41-0.195,0.527s-0.326,0.176-0.586,0.176h-1.533
			c-0.183,0-0.333-0.056-0.45-0.166s-0.195-0.271-0.234-0.479L32.251,68.484z M32.173,65.407c-0.358-0.117-0.705-0.203-1.04-0.259
			c-0.335-0.055-0.669-0.083-1.001-0.083c-1.003,0-1.794,0.17-2.374,0.508c-0.58,0.339-0.869,0.795-0.869,1.368
			c0,0.442,0.181,0.807,0.542,1.094c0.361,0.286,0.822,0.43,1.382,0.43c0.827,0,1.594-0.217,2.3-0.649
			c0.707-0.434,1.06-0.884,1.06-1.353V65.407z"/>
		<path fill="#FFFFFF" d="M37.534,62.087c-0.43,0-0.724-0.052-0.884-0.156s-0.239-0.286-0.239-0.547
			c0-0.228,0.065-0.399,0.195-0.513c0.13-0.114,0.326-0.171,0.586-0.171h2.735c0.371,0,0.619,0.05,0.742,0.151
			c0.124,0.101,0.186,0.278,0.186,0.532c0,0.261-0.082,0.442-0.244,0.547s-0.462,0.156-0.898,0.156h-0.361l2.54,6.319l2.822-6.319
			h-0.586c-0.501,0-0.84-0.051-1.016-0.151s-0.264-0.285-0.264-0.552c0-0.254,0.062-0.432,0.186-0.532
			c0.124-0.102,0.371-0.151,0.742-0.151h3.019c0.26,0,0.455,0.057,0.586,0.171c0.13,0.113,0.195,0.285,0.195,0.513
			c0,0.261-0.08,0.442-0.239,0.547c-0.16,0.104-0.454,0.156-0.885,0.156h-0.176l-3.223,7.12c-0.163,0.358-0.324,0.591-0.483,0.698
			c-0.16,0.107-0.393,0.161-0.698,0.161c-0.28,0-0.497-0.052-0.65-0.156c-0.153-0.104-0.311-0.339-0.474-0.703L37.534,62.087z"/>
		<path fill="#FFFFFF" d="M50.71,65.641c0.053,0.938,0.37,1.662,0.953,2.174c0.582,0.511,1.378,0.767,2.388,0.767
			c0.762,0,1.592-0.203,2.49-0.61s1.442-0.61,1.631-0.61c0.195,0,0.358,0.062,0.488,0.186c0.131,0.123,0.196,0.276,0.196,0.459
			c0,0.188-0.068,0.361-0.206,0.518c-0.137,0.156-0.354,0.31-0.654,0.459c-0.65,0.319-1.323,0.563-2.017,0.732
			s-1.382,0.254-2.065,0.254c-1.484,0-2.673-0.428-3.565-1.284c-0.892-0.856-1.338-1.991-1.338-3.404
			c0-1.438,0.472-2.604,1.416-3.496c0.944-0.893,2.175-1.338,3.692-1.338c1.374,0,2.513,0.416,3.418,1.25
			c0.905,0.833,1.358,1.843,1.358,3.027c0,0.365-0.077,0.609-0.23,0.732c-0.152,0.124-0.567,0.186-1.245,0.186h-0.146H50.71z
			 M50.759,64.362h6.358c-0.098-0.774-0.421-1.398-0.972-1.87c-0.55-0.472-1.226-0.708-2.026-0.708
			c-0.866,0-1.596,0.228-2.188,0.684C51.339,62.924,50.948,63.555,50.759,64.362z"/>
		<path fill="#FFFFFF" d="M65.361,58.345H63.7c-0.632,0-1.027-0.05-1.188-0.151c-0.159-0.101-0.239-0.284-0.239-0.552
			c0-0.234,0.067-0.41,0.2-0.527c0.134-0.117,0.327-0.176,0.581-0.176h3.224c0.176,0,0.312,0.036,0.41,0.107
			c0.098,0.072,0.146,0.17,0.146,0.293v11.008h3.066c0.248,0,0.429,0.054,0.542,0.161c0.114,0.107,0.171,0.278,0.171,0.513
			c0,0.267-0.055,0.451-0.166,0.552c-0.11,0.101-0.318,0.151-0.625,0.151h-7.208c-0.254,0-0.447-0.059-0.581-0.176
			c-0.133-0.117-0.2-0.293-0.2-0.527c0-0.228,0.068-0.397,0.205-0.508s0.342-0.166,0.615-0.166h2.706V58.345z"/>
		<path fill="#FFFFFF" d="M73.76,69.021v-1.738c0-0.287,0.054-0.492,0.161-0.615c0.107-0.124,0.282-0.186,0.522-0.186
			c0.268,0,0.479,0.182,0.635,0.547c0.104,0.221,0.199,0.387,0.283,0.498c0.274,0.352,0.678,0.633,1.212,0.845
			c0.533,0.212,1.123,0.317,1.768,0.317c0.69,0,1.243-0.14,1.66-0.42s0.625-0.648,0.625-1.104c0-0.463-0.168-0.791-0.503-0.986
			c-0.335-0.196-0.91-0.294-1.724-0.294h-0.537c-1.328,0-2.341-0.23-3.038-0.693c-0.696-0.462-1.045-1.133-1.045-2.012
			c0-0.859,0.341-1.526,1.021-2.002c0.681-0.476,1.637-0.713,2.867-0.713c0.501,0,1.012,0.069,1.533,0.21
			c0.521,0.14,0.794,0.21,0.82,0.21c0.071,0,0.208-0.063,0.41-0.19s0.4-0.19,0.596-0.19c0.222,0,0.386,0.081,0.493,0.244
			c0.107,0.162,0.161,0.407,0.161,0.732v1.143c0,0.345-0.052,0.595-0.156,0.747c-0.104,0.153-0.27,0.229-0.498,0.229
			c-0.195,0-0.437-0.166-0.723-0.498c-0.202-0.228-0.368-0.4-0.498-0.518c-0.345-0.319-0.713-0.549-1.104-0.688
			s-0.85-0.21-1.377-0.21c-0.612,0-1.105,0.135-1.479,0.405c-0.375,0.271-0.562,0.613-0.562,1.03c0,0.41,0.192,0.703,0.577,0.879
			c0.384,0.176,1.211,0.277,2.48,0.303c1.354,0.033,2.344,0.269,2.969,0.708s0.938,1.118,0.938,2.037
			c0,0.879-0.345,1.582-1.035,2.109s-1.621,0.791-2.793,0.791c-0.371,0-0.785-0.034-1.24-0.103c-0.456-0.068-1.029-0.184-1.72-0.347
			c-0.228,0.149-0.423,0.262-0.586,0.337c-0.162,0.075-0.299,0.112-0.41,0.112c-0.228,0-0.401-0.08-0.522-0.239
			C73.821,69.551,73.76,69.321,73.76,69.021z"/>
	</g>
	<g>
		<line fill="#FFFFFF" x1="0.34" y1="35.763" x2="84.744" y2="35.763"/>
		<g>
			<g>
				<g opacity="0.9">
					<g opacity="0.9">
						<path fill="#FFFFFF" d="M67.376,34.526c-0.327-0.308-4.491-0.345-5.027-0.419c-1.208-0.124-4.004-0.014-6.499,0.108
							c-1.244,0.063-2.427,0.124-3.282,0.167c-0.862,0.041-1.414,0.057-1.418,0.022c0.091-0.197-1.926-1.134-2.802-1.178
							c-2.146-0.12-4.262,0.042-6.036,0.353c-0.878,0.136-1.005,0.232-1.398,0.201c-0.16-0.004-0.604,0.356-1.752,0.544
							c-0.79,0.118-1.828,0.069-2.545,0.21c-1.397,0.201-5.863,0.4-7.416,0.515c-2.956,0.219-4.442,0.257-6.751,0.133
							c-1.735-0.128-3.167-0.027-4.94-0.077c-1.873-0.007-3.176-0.013-5.048-0.02c-1.754-0.089-3.365-0.133-5.245-0.125
							c-0.251,0.013-0.502,0.026-0.681,0.061c-0.181,0.035-0.663,0.021-0.914,0.035c-1.521-0.062-2.898-0.261-4.385-0.222
							c-0.412,0.009-1.021,0.092-0.896,0.175c0.623,0.417,1.785,0.73,3.125,1.007c1.27,0.255,2.9,0.26,4.581,0.327
							c2.328,0.084,3.971,0.59,5.13,1.083c0.804,0.382,1.424,0.98,3.395,0.955c2.31-0.056,4.406-0.358,6.768-0.172
							c1.646,0.146,2.97,0.282,4.653,0.349c0.233,0.027,1.182,0.093,1.503,0.102c1.898-0.047,4.116,0.094,5.427-0.27
							c2.096-0.122,3.169,0.028,4.836-0.226c2.115-0.341,4.249-0.723,6.738-0.814c1.415-0.061,2.723-0.064,4.082-0.007
							c0.483,0.014,2.198,0.361,2.717,0.476c0.967,0.207,2.418,0.067,3.386-0.086c1.524-0.298,3.084-0.495,4.946-0.644
							c0.663-0.021,1.271,0.075,2.005,0.076c1.736-0.052,2.992-0.297,4.514-0.415c5.679-0.205,4.91-0.384,5.143-0.358
							c0.572-0.004,0.804,0.202,1.519,0.242c0.968,0.027,1.917-0.087,2.546-0.209c1.863-0.329,4.14-0.666,6.502-0.48
							c-0.143-0.044-0.196-0.105-0.356-0.11c-3.311-0.252-5.957-0.706-9.484-0.663c-0.341,0.03-0.771,0.079-1.183,0.087
							c-0.734,0-1.397,0.021-2.059,0.043C69.626,35.309,67.66,34.794,67.376,34.526z"/>
						<path opacity="0.9" fill="#FFFFFF" d="M8.091,36.335c-1.683-0.067-3.312-0.072-4.581-0.327C2.169,35.73,1.009,35.418,0.385,35
							c-0.126-0.083,0.484-0.167,0.896-0.175c1.485-0.039,2.862,0.159,4.384,0.222c0.25-0.013,0.734,0,0.914-0.035
							c0.179-0.035,0.43-0.048,0.681-0.062c1.881-0.008,3.491,0.037,5.245,0.125c1.873,0.007,3.176,0.013,5.049,0.02
							c1.772,0.049,3.205-0.051,4.941,0.077c2.309,0.124,3.795,0.085,6.751-0.133c1.552-0.115,6.018-0.313,7.416-0.515
							c0.718-0.14,1.755-0.092,2.543-0.209c0,0,0.576,0.153,1.844,0.409l-13.953,1.527L8.091,36.335z"/>
						<path fill="#FFFFFF" d="M39.277,34.675c0,0,6.262-0.734,5.646,0.069c0,0-4.993,1.983-8.521,2.025c0,0-2.522,0.048-3.868,0.073
							c0,0-2.379-0.327-5.084-0.121c0,0-10.836,0.5-11.604,0.219c0,0-4.421-0.143-5.547-0.354c0,0-1.698-0.568-3.684-0.502
							c0,0-6.012-0.587-2.95-0.682c0,0,1.773-0.131,2.687-0.166c0,0,12.944,0.239,13.676,0.419
							C20.029,35.655,34.18,36.355,39.277,34.675z"/>
						<path fill="#FFFFFF" d="M39.488,34.454c0,0,4.059-0.901,6.292-0.259c0,0,6.553,0.754,4.615,1.241
							c0,0-7.569,1.912-14.392,2.023c0,0-0.734,0-2.097,0.302c0,0-3.655,0.319-5.262-0.086c0,0-4.562-0.547-6.568-0.442
							c0,0-1.644-0.326-2.774-0.177c0,0,11.16-0.671,12.535-0.293c0,0,5.01,0.459,10.159-0.979
							C41.996,35.784,43.532,34.706,39.488,34.454z"/>
						<path fill="#FFFFFF" d="M42.904,33.355c0.717-0.141,1.453-0.32,2.242-0.438c0.429-0.048,1.074-0.03,1.576-0.056
							c0.662-0.021,1.36,0.058,1.825,0.111c2.129,0.339,5.518,0.346,7.358,0.777c0.304,0.049,0.537,0.075,0.859,0.084
							c0.112-0.015,0.406-0.052,0.519-0.066c0.985-0.013,1.952,0.014,2.865-0.021c1.505-0.079,2.972,0.102,4.348,0.301
							c0.77,0.101,1.72,0.167,2.578,0.251c1.484,0.141,1.588,0.625,3.02,0.704c2.291,0.164,4.316-0.16,6.624-0.036
							c1.343,0.097,2.541,0.15,3.776,0.305c0.912,0.146,1.932,0.233,2.933,0.361c0.233,0.026,0.805,0.202,0.786,0.242
							c-0.108,0.057-0.663,0.021-1.002,0.052c-0.933,0.074-1.396-0.159-2.004-0.256c-0.77-0.101-1.772-0.049-2.738-0.076
							c-0.395-0.031-0.698-0.08-1.073-0.15c-0.519-0.114-1.289-0.035-2.041,0.004c-0.932,0.074-1.916-0.093-2.899-0.081
							c-1.308,0.004-2.402,0.253-3.493,0.144c0.93,0.105-4.012,0.029-3.008-0.023c-0.09,0.018-0.376-0.07-0.43-0.132
							c0.02-0.039-0.034-0.101,0.056-0.118c0.718-0.141,0.665-0.382,0.918-0.575c-0.071-0.022-2.668-0.054-3.652-0.221
							c-0.749-0.141-1.411-0.299-2.378-0.326c-0.25,0.013-0.376,0.11-0.628,0.123c-0.572,0.004-7.424,0.782-8.21,0.72
							c-0.466-0.053-1.056-0.189-0.93-0.286c0.128-0.277-0.713-0.4-1.016-0.629c-0.053-0.061,0.145-0.136,0.092-0.198
							c-0.25-0.167-0.732-0.36-1.286-0.396c-0.931-0.106-2.059-0.137-2.9-0.081L42.904,33.355z"/>
						<path fill="none" stroke="#FFFFFF" stroke-width="0" d="M18.281,38.299c0,0,3.44-0.385,6.856,0.08c0,0,2.872,0.229,3.5,0.197
							l0.938,0.086c0,0,4.49,0.059,5.303-0.264c0,0,2.176-0.12,2.516-0.06c0,0,1.736,0.038,3.871-0.433"/>
						<path fill="#FFFFFF" d="M61.535,33.57c0.739,0.048,4.246,0.345,5.2,0.518c1.465,0.262,2.874,0.513,4.422,0.79
							c0.155,0.018,0.37,0.024,0.489,0c0.944-0.16,2.09-0.049,2.997-0.13c0.394-0.029,0.753-0.1,1.183-0.087
							c2.255,0.062,4.33,0.28,6.261,0.574c0.811,0.129,1.49,0.309,2.289,0.464c0.143,0.044,0.393,0.091,0.368,0.144
							c0.036,0.041-0.334,0.018-0.531,0.032c-0.232-0.026-0.423-0.085-0.731-0.12c-0.562-0.083-1.266-0.089-1.767-0.183
							c-0.561-0.083-1.001-0.188-1.621-0.258c-0.418-0.039-0.788-0.062-1.217-0.074c-1.539-0.083-3.043-0.124-4.571-0.113
							c-0.609,0.143-1.539,0.038-2.244,0.031c-0.215-0.006-0.418-0.038-0.679-0.059c-0.646-0.018-1.326,0.043-1.767-0.062
							c-0.869-0.238-1.752-0.449-2.812-0.625c-0.858-0.144-4.496-0.511-5.449-0.565c-1.266-0.088-2.508,0.011-3.736-0.037
							C57.511,33.806,58.492,33.44,61.535,33.57z"/>
					</g>
				</g>
			</g>
		</g>
	</g>
</g>
<g id="Layer_2" display="none">
</g>
</svg>
