<?xml version="1.0" encoding="utf-8"?>
<!-- Generator: Adobe Illustrator 16.0.0, SVG Export Plug-In . SVG Version: 6.00 Build 0)  -->
<!DOCTYPE svg PUBLIC "-//W3C//DTD SVG 1.1//EN" "http://www.w3.org/Graphics/SVG/1.1/DTD/svg11.dtd">
<svg version="1.1" id="Layer_1" xmlns="http://www.w3.org/2000/svg" xmlns:xlink="http://www.w3.org/1999/xlink" x="0px" y="0px"
	 width="85.1px" height="71.111px" viewBox="0 0 85.1 71.111" enable-background="new 0 0 85.1 71.111" xml:space="preserve">
<g id="Layer_1_1_">
	<path display="none" fill="#FFFFFF" d="M83.781,35.066c-24.827,15.104-20.889-8.25-82.077,3.826l16.1-24.932l9.107,7.083
		L41.048,2.45l19.074,15.19l7.083-7.638L83.781,35.066L83.781,35.066z M17.774,22.59l2.033,4.668l0.376-5.043l5.496,3.087
		l-6.851-8.206l-5.044,8.131L17.774,22.59L17.774,22.59z M34.193,16.406l6.472-3.376L41.93,23.3l2.814-10.27l8.3,2.813L41.899,5.654
		L34.193,16.406L34.193,16.406z M53.614,28.381l9.937-5.888l5.428,10.12l0.092-8.74l6.071,5.244L67.045,14.95L53.614,28.381z"/>
	<g display="none">
		<path display="inline" fill="#FFFFFF" d="M9.156,51.352c0.5,0,0.82,0.048,0.96,0.143c0.14,0.094,0.21,0.271,0.21,0.53
			c0,0.268-0.07,0.45-0.21,0.551c-0.141,0.102-0.421,0.151-0.844,0.151h-4.63c-0.423,0-0.702-0.051-0.838-0.151
			c-0.137-0.101-0.205-0.283-0.205-0.551c0-0.261,0.077-0.438,0.229-0.53c0.152-0.095,0.469-0.143,0.949-0.143h1.413v-3.236
			l-3.246-5.545H2.781c-0.39,0-0.656-0.051-0.799-0.157c-0.143-0.104-0.215-0.285-0.215-0.546c0-0.239,0.062-0.417,0.182-0.531
			c0.119-0.113,0.307-0.17,0.561-0.17h0.438h2.232c0.383,0,0.642,0.052,0.775,0.155c0.133,0.104,0.199,0.287,0.199,0.545
			c0,0.261-0.079,0.442-0.238,0.546c-0.159,0.105-0.45,0.157-0.873,0.157H4.72L7.079,46.8l2.446-4.229H9.126
			c-0.353,0-0.596-0.051-0.731-0.157c-0.136-0.104-0.205-0.285-0.205-0.546c0-0.271,0.059-0.458,0.176-0.556
			c0.116-0.098,0.412-0.146,0.887-0.146h0.253h1.54c0.494,0,0.811,0.05,0.951,0.15c0.139,0.101,0.209,0.286,0.209,0.551
			c0,0.261-0.07,0.442-0.209,0.546c-0.141,0.105-0.405,0.157-0.795,0.157h-0.156l-3.314,5.683v3.1H9.156z"/>
		<path display="inline" fill="#FFFFFF" d="M21.232,51.489c-0.532,0.481-1.112,0.848-1.738,1.102
			c-0.627,0.255-1.272,0.382-1.937,0.382c-0.968,0-1.75-0.271-2.344-0.811c-0.595-0.539-0.893-1.241-0.893-2.104
			c0-1.026,0.396-1.823,1.186-2.39c0.79-0.564,1.898-0.848,3.329-0.848c0.377,0,0.757,0.025,1.14,0.073
			c0.384,0.049,0.776,0.125,1.18,0.229v-0.066c0-0.747-0.179-1.302-0.535-1.657c-0.357-0.358-0.913-0.538-1.667-0.538
			c-0.508,0-1.072,0.137-1.696,0.411c-0.624,0.271-1.037,0.409-1.238,0.409c-0.188,0-0.345-0.076-0.468-0.229
			c-0.124-0.151-0.187-0.35-0.187-0.59c0-0.382,0.359-0.707,1.077-0.974c0.719-0.267,1.637-0.399,2.753-0.399
			c1.145,0,2.009,0.29,2.594,0.872s0.877,1.441,0.877,2.578v4.415h0.478c0.461,0,0.771,0.05,0.926,0.146
			c0.156,0.098,0.234,0.271,0.234,0.525c0,0.234-0.065,0.409-0.195,0.526c-0.13,0.116-0.324,0.176-0.585,0.176h-1.529
			c-0.183,0-0.332-0.057-0.448-0.166c-0.117-0.11-0.195-0.27-0.234-0.478L21.232,51.489z M21.154,48.418
			c-0.356-0.114-0.703-0.202-1.037-0.257c-0.336-0.056-0.668-0.082-0.999-0.082c-1.001,0-1.79,0.168-2.369,0.506
			s-0.867,0.793-0.867,1.365c0,0.441,0.18,0.806,0.541,1.091s0.82,0.43,1.379,0.43c0.825,0,1.59-0.217,2.295-0.647
			c0.705-0.433,1.058-0.882,1.058-1.351V48.418z"/>
		<path display="inline" fill="#FFFFFF" d="M33.212,51.489c-0.533,0.481-1.113,0.848-1.74,1.102
			c-0.627,0.255-1.271,0.382-1.935,0.382c-0.969,0-1.75-0.271-2.345-0.811s-0.892-1.241-0.892-2.104c0-1.026,0.395-1.823,1.184-2.39
			c0.789-0.565,1.899-0.848,3.328-0.848c0.377,0,0.758,0.025,1.142,0.073c0.384,0.049,0.775,0.125,1.18,0.229v-0.066
			c0-0.747-0.179-1.302-0.537-1.657c-0.356-0.358-0.913-0.538-1.667-0.538c-0.506,0-1.072,0.137-1.696,0.411
			c-0.624,0.271-1.035,0.409-1.236,0.409c-0.189,0-0.346-0.076-0.469-0.229c-0.124-0.151-0.186-0.35-0.186-0.59
			c0-0.382,0.359-0.707,1.077-0.974s1.636-0.399,2.754-0.399c1.144,0,2.008,0.29,2.593,0.872c0.584,0.582,0.877,1.441,0.877,2.578
			v4.415h0.479c0.461,0,0.77,0.05,0.925,0.146c0.157,0.098,0.233,0.271,0.233,0.525c0,0.234-0.063,0.409-0.194,0.526
			c-0.13,0.116-0.325,0.176-0.585,0.176h-1.53c-0.182,0-0.331-0.057-0.448-0.166c-0.117-0.11-0.193-0.27-0.233-0.478L33.212,51.489z
			 M33.134,48.418c-0.357-0.114-0.703-0.202-1.038-0.257c-0.334-0.056-0.667-0.082-0.999-0.082c-1.001,0-1.791,0.168-2.369,0.506
			s-0.867,0.793-0.867,1.365c0,0.441,0.181,0.806,0.541,1.091s0.82,0.43,1.379,0.43c0.825,0,1.59-0.217,2.296-0.647
			c0.706-0.433,1.058-0.882,1.058-1.351V48.418z"/>
		<path display="inline" fill="#FFFFFF" d="M46.546,47.299c0-0.917-0.082-1.536-0.247-1.857c-0.164-0.322-0.447-0.481-0.846-0.481
			c-0.479,0-0.857,0.208-1.139,0.623c-0.28,0.415-0.42,0.988-0.42,1.716v4.055h0.174c0.396,0,0.661,0.048,0.795,0.143
			c0.135,0.094,0.199,0.271,0.199,0.53c0,0.234-0.054,0.409-0.164,0.526c-0.11,0.116-0.279,0.176-0.508,0.176h-1.238
			c-0.278,0-0.469-0.065-0.569-0.194c-0.102-0.13-0.151-0.41-0.151-0.839v-0.282V47.3v-0.762c0-0.485-0.11-0.872-0.33-1.153
			c-0.219-0.284-0.52-0.425-0.898-0.425c-0.291,0-0.557,0.086-0.8,0.257c-0.24,0.174-0.449,0.428-0.623,0.766v5.371h0.36
			c0.39,0,0.653,0.05,0.789,0.146c0.137,0.098,0.206,0.271,0.206,0.525c0,0.268-0.055,0.45-0.166,0.551
			c-0.11,0.102-0.321,0.151-0.633,0.151h-2.608c-0.255,0-0.442-0.059-0.562-0.171c-0.122-0.114-0.183-0.29-0.183-0.531
			c0-0.261,0.076-0.438,0.229-0.53c0.152-0.095,0.45-0.143,0.892-0.143H38.3v-6.248h-0.176c-0.454,0-0.766-0.051-0.932-0.155
			c-0.166-0.104-0.249-0.287-0.249-0.546c0-0.229,0.066-0.399,0.196-0.513c0.13-0.114,0.326-0.17,0.588-0.17h1.499
			c0.218,0,0.361,0.036,0.432,0.111c0.068,0.074,0.109,0.232,0.124,0.473c0.265-0.286,0.549-0.497,0.852-0.634
			c0.305-0.137,0.646-0.205,1.028-0.205c0.453,0,0.825,0.1,1.12,0.298c0.293,0.199,0.512,0.5,0.653,0.901
			c0.272-0.409,0.588-0.71,0.945-0.907c0.356-0.193,0.767-0.292,1.228-0.292c0.841,0,1.451,0.274,1.84,0.819
			c0.386,0.546,0.578,1.43,0.578,2.651v4.415h0.156c0.402,0,0.672,0.05,0.81,0.146c0.138,0.098,0.204,0.271,0.204,0.525
			c0,0.233-0.059,0.409-0.175,0.525c-0.117,0.117-0.29,0.177-0.518,0.177h-1.188c-0.264,0-0.457-0.079-0.582-0.233
			c-0.126-0.157-0.188-0.402-0.188-0.74V47.299z"/>
		<path display="inline" fill="#FFFFFF" d="M55.834,51.352h3.13c0.254,0,0.438,0.055,0.561,0.162
			c0.12,0.106,0.182,0.275,0.182,0.511c0,0.268-0.059,0.45-0.171,0.551c-0.114,0.102-0.323,0.151-0.628,0.151h-7.564
			c-0.261,0-0.455-0.06-0.585-0.176c-0.131-0.117-0.194-0.292-0.194-0.526c0-0.229,0.067-0.396,0.204-0.506
			c0.137-0.11,0.341-0.167,0.613-0.167h2.974v-6.248h-1.899c-0.268,0-0.471-0.06-0.61-0.181c-0.139-0.119-0.209-0.293-0.209-0.521
			c0-0.229,0.065-0.399,0.194-0.513c0.13-0.114,0.324-0.17,0.585-0.17h2.855c0.176,0,0.313,0.034,0.415,0.106
			c0.102,0.071,0.149,0.168,0.149,0.292L55.834,51.352L55.834,51.352z M54.031,40.913c0-0.702,0.063-1.144,0.19-1.325
			s0.397-0.273,0.814-0.273c0.401,0,0.669,0.078,0.798,0.229c0.131,0.153,0.195,0.517,0.195,1.086c0,0.562-0.061,0.905-0.181,1.039
			c-0.121,0.134-0.391,0.199-0.812,0.199c-0.417,0-0.688-0.061-0.814-0.185S54.031,41.302,54.031,40.913z"/>
		<path display="inline" fill="#FFFFFF" d="M63.282,51.352v-6.248h-0.187c-0.441,0-0.745-0.051-0.911-0.155
			c-0.165-0.104-0.248-0.287-0.248-0.546c0-0.241,0.067-0.416,0.205-0.522c0.136-0.106,0.356-0.159,0.662-0.159h0.458h0.937
			c0.176,0,0.312,0.034,0.409,0.106c0.099,0.071,0.146,0.168,0.146,0.292v0.663c0.475-0.442,0.944-0.769,1.409-0.979
			c0.464-0.211,0.945-0.316,1.446-0.316c0.981,0,1.753,0.305,2.315,0.917c0.562,0.61,0.842,1.456,0.842,2.534v4.415h0.459
			c0.324,0,0.56,0.055,0.702,0.162c0.143,0.106,0.214,0.275,0.214,0.511c0,0.254-0.076,0.434-0.229,0.541
			c-0.152,0.106-0.423,0.161-0.813,0.161h-2.153c-0.417,0-0.683-0.049-0.8-0.146c-0.117-0.097-0.176-0.281-0.176-0.556
			c0-0.254,0.068-0.429,0.204-0.525c0.137-0.098,0.394-0.146,0.771-0.146h0.341v-4.054c0-0.763-0.173-1.341-0.518-1.741
			c-0.345-0.399-0.844-0.6-1.5-0.6c-0.663,0-1.248,0.225-1.755,0.673c-0.507,0.447-0.761,1.004-0.761,1.668v4.054h0.341
			c0.391,0,0.653,0.05,0.79,0.146c0.137,0.098,0.204,0.271,0.204,0.525c0,0.272-0.059,0.458-0.175,0.556
			c-0.117,0.099-0.403,0.146-0.858,0.146h-1.772h-0.526c-0.267,0-0.466-0.059-0.599-0.171c-0.135-0.114-0.2-0.29-0.2-0.531
			c0-0.261,0.076-0.438,0.229-0.53c0.152-0.095,0.449-0.143,0.894-0.143h0.203V51.352z"/>
		<path display="inline" fill="#FFFFFF" d="M79.794,51.352h3.129c0.254,0,0.439,0.055,0.561,0.162
			c0.121,0.106,0.181,0.275,0.181,0.511c0,0.268-0.057,0.45-0.17,0.551c-0.113,0.102-0.322,0.151-0.629,0.151h-7.563
			c-0.26,0-0.455-0.06-0.585-0.176c-0.13-0.117-0.195-0.292-0.195-0.526c0-0.229,0.068-0.396,0.205-0.506
			c0.137-0.11,0.341-0.167,0.614-0.167h2.973v-6.248h-1.899c-0.268,0-0.471-0.06-0.609-0.181c-0.14-0.119-0.209-0.293-0.209-0.521
			c0-0.229,0.063-0.399,0.194-0.513c0.13-0.114,0.323-0.17,0.585-0.17h2.854c0.176,0,0.313,0.034,0.415,0.106
			c0.102,0.071,0.15,0.168,0.15,0.292L79.794,51.352L79.794,51.352z M77.99,40.913c0-0.702,0.063-1.144,0.189-1.325
			c0.127-0.182,0.398-0.273,0.813-0.273c0.402,0,0.67,0.078,0.8,0.229c0.131,0.153,0.193,0.517,0.193,1.086
			c0,0.562-0.06,0.905-0.18,1.039s-0.392,0.199-0.813,0.199c-0.415,0-0.688-0.061-0.813-0.185
			C78.055,41.56,77.99,41.302,77.99,40.913z"/>
		<path display="inline" fill="#FFFFFF" d="M9.672,60.901c0.318,0,0.551,0.057,0.697,0.167c0.146,0.11,0.219,0.285,0.219,0.525
			c0,0.228-0.068,0.398-0.205,0.512s-0.341,0.171-0.614,0.171H5.822v3.257c0,1.064,0.139,1.767,0.415,2.104
			c0.276,0.339,0.749,0.507,1.418,0.507c0.592,0,1.301-0.172,2.125-0.518c0.825-0.345,1.336-0.518,1.53-0.518
			c0.183,0,0.336,0.065,0.463,0.196c0.126,0.13,0.19,0.289,0.19,0.477c0,0.216-0.08,0.402-0.239,0.562s-0.43,0.313-0.812,0.463
			c-0.638,0.254-1.21,0.438-1.721,0.556c-0.51,0.117-0.989,0.177-1.438,0.177c-0.76,0-1.398-0.122-1.915-0.366
			c-0.518-0.243-0.902-0.605-1.155-1.086c-0.13-0.228-0.223-0.498-0.278-0.81c-0.056-0.312-0.083-0.793-0.083-1.443v-0.301v-3.257
			H2.663c-0.273,0-0.472-0.054-0.595-0.161c-0.124-0.107-0.186-0.28-0.186-0.521c0-0.268,0.084-0.448,0.253-0.546
			s0.53-0.146,1.082-0.146H4.32v-1.998v-0.516c0-0.28,0.061-0.486,0.181-0.62c0.121-0.132,0.307-0.199,0.561-0.199
			c0.286,0,0.484,0.082,0.595,0.244c0.11,0.163,0.166,0.532,0.166,1.11v1.979L9.672,60.901L9.672,60.901z"/>
		<path display="inline" fill="#FFFFFF" d="M18.035,67.989h3.235c0.253,0,0.44,0.053,0.562,0.16c0.12,0.105,0.18,0.278,0.18,0.513
			c0,0.267-0.057,0.45-0.171,0.551c-0.114,0.102-0.323,0.149-0.628,0.149h-6.375c-0.253,0-0.445-0.058-0.575-0.175
			s-0.195-0.293-0.195-0.525c0-0.228,0.066-0.396,0.2-0.508c0.133-0.11,0.339-0.165,0.619-0.165h1.696v-6.248H15.92
			c-0.63,0-1.023-0.052-1.179-0.152c-0.156-0.101-0.234-0.282-0.234-0.55c0-0.228,0.062-0.396,0.189-0.512
			c0.128-0.113,0.32-0.171,0.58-0.171H17.5c0.175,0,0.309,0.034,0.398,0.102c0.092,0.069,0.138,0.169,0.138,0.299v1.657
			c0.616-0.772,1.261-1.349,1.93-1.727c0.669-0.376,1.391-0.565,2.164-0.565c0.579,0,1.046,0.117,1.404,0.352
			c0.356,0.233,0.535,0.536,0.535,0.906c0,0.24-0.09,0.453-0.268,0.639c-0.179,0.187-0.375,0.278-0.59,0.278
			c-0.149,0-0.401-0.1-0.755-0.299c-0.354-0.196-0.671-0.297-0.951-0.297c-0.506,0-1.041,0.18-1.604,0.541
			c-0.562,0.361-1.184,0.932-1.866,1.711L18.035,67.989L18.035,67.989z"/>
		<path display="inline" fill="#FFFFFF" d="M33.212,68.124c-0.533,0.481-1.113,0.851-1.74,1.103c-0.628,0.253-1.271,0.38-1.935,0.38
			c-0.969,0-1.75-0.27-2.345-0.811c-0.595-0.539-0.892-1.238-0.892-2.104c0-1.025,0.395-1.821,1.184-2.387
			c0.789-0.566,1.899-0.851,3.328-0.851c0.377,0,0.758,0.025,1.142,0.074c0.384,0.048,0.775,0.126,1.18,0.229v-0.068
			c0-0.747-0.179-1.299-0.537-1.656c-0.356-0.358-0.913-0.536-1.667-0.536c-0.506,0-1.072,0.137-1.696,0.409
			c-0.624,0.273-1.035,0.41-1.236,0.41c-0.189,0-0.346-0.077-0.469-0.229c-0.124-0.152-0.186-0.35-0.186-0.59
			c0-0.384,0.359-0.709,1.077-0.975c0.718-0.268,1.636-0.4,2.754-0.4c1.144,0,2.008,0.292,2.593,0.872
			c0.584,0.582,0.877,1.442,0.877,2.578v4.417h0.479c0.461,0,0.77,0.048,0.925,0.146c0.157,0.097,0.233,0.272,0.233,0.526
			c0,0.232-0.063,0.408-0.194,0.525c-0.13,0.117-0.325,0.175-0.585,0.175h-1.53c-0.182,0-0.331-0.054-0.448-0.165
			c-0.117-0.11-0.193-0.27-0.233-0.478L33.212,68.124z M33.134,65.054c-0.357-0.117-0.703-0.203-1.038-0.26
			c-0.334-0.055-0.667-0.082-0.999-0.082c-1.001,0-1.791,0.169-2.369,0.507s-0.867,0.793-0.867,1.364
			c0,0.441,0.181,0.807,0.541,1.091c0.36,0.287,0.82,0.432,1.379,0.432c0.825,0,1.59-0.216,2.296-0.649
			c0.706-0.433,1.058-0.883,1.058-1.349V65.054z"/>
		<path display="inline" fill="#FFFFFF" d="M38.485,61.741c-0.429,0-0.722-0.053-0.882-0.157c-0.158-0.104-0.237-0.285-0.237-0.545
			c0-0.228,0.064-0.396,0.195-0.512c0.129-0.113,0.325-0.171,0.584-0.171h2.729c0.37,0,0.617,0.051,0.739,0.15
			c0.123,0.101,0.187,0.277,0.187,0.531c0,0.26-0.082,0.441-0.243,0.545c-0.163,0.104-0.461,0.157-0.896,0.157h-0.361l2.534,6.306
			l2.817-6.306h-0.586c-0.499,0-0.837-0.052-1.014-0.152c-0.175-0.101-0.262-0.282-0.262-0.55c0-0.254,0.061-0.431,0.185-0.531
			c0.123-0.101,0.371-0.15,0.74-0.15h3.012c0.261,0,0.455,0.058,0.586,0.171c0.13,0.114,0.194,0.284,0.194,0.512
			c0,0.26-0.079,0.441-0.238,0.545c-0.159,0.104-0.453,0.157-0.883,0.157H47.21l-3.217,7.105c-0.163,0.356-0.323,0.59-0.483,0.696
			c-0.158,0.107-0.391,0.16-0.696,0.16c-0.278,0-0.495-0.052-0.647-0.155c-0.152-0.104-0.311-0.338-0.474-0.701L38.485,61.741z"/>
		<path display="inline" fill="#FFFFFF" d="M51.634,65.289c0.052,0.936,0.369,1.658,0.95,2.168c0.581,0.512,1.376,0.768,2.383,0.768
			c0.761,0,1.59-0.205,2.486-0.61s1.438-0.61,1.628-0.61c0.194,0,0.356,0.063,0.486,0.188c0.131,0.124,0.194,0.274,0.194,0.459
			c0,0.188-0.068,0.358-0.204,0.516c-0.137,0.156-0.354,0.31-0.652,0.458c-0.649,0.318-1.32,0.562-2.014,0.73
			c-0.691,0.17-1.38,0.254-2.062,0.254c-1.48,0-2.667-0.427-3.559-1.281c-0.89-0.854-1.335-1.988-1.335-3.396
			c0-1.437,0.473-2.6,1.413-3.49c0.942-0.889,2.171-1.335,3.687-1.335c1.369,0,2.508,0.417,3.41,1.248
			c0.903,0.832,1.355,1.84,1.355,3.021c0,0.364-0.077,0.608-0.229,0.732c-0.153,0.122-0.566,0.185-1.243,0.185h-0.146h-6.55V65.289z
			 M51.684,64.01h6.345c-0.098-0.772-0.422-1.396-0.971-1.866c-0.549-0.472-1.224-0.707-2.021-0.707
			c-0.865,0-1.593,0.228-2.185,0.683S51.871,63.207,51.684,64.01z"/>
		<path display="inline" fill="#FFFFFF" d="M66.256,58.007h-1.657c-0.632,0-1.024-0.05-1.186-0.149
			c-0.158-0.102-0.238-0.285-0.238-0.551c0-0.233,0.067-0.41,0.2-0.527s0.327-0.175,0.58-0.175h3.216
			c0.176,0,0.312,0.036,0.41,0.106c0.098,0.071,0.146,0.17,0.146,0.292v10.986h3.062c0.248,0,0.428,0.053,0.541,0.16
			c0.113,0.105,0.172,0.278,0.172,0.513c0,0.267-0.058,0.45-0.167,0.551c-0.11,0.102-0.318,0.149-0.623,0.149h-7.193
			c-0.254,0-0.447-0.058-0.58-0.175s-0.2-0.293-0.2-0.525c0-0.228,0.068-0.396,0.204-0.508c0.139-0.11,0.343-0.165,0.614-0.165
			h2.701L66.256,58.007L66.256,58.007z"/>
		<path display="inline" fill="#FFFFFF" d="M74.638,68.662v-1.735c0-0.285,0.054-0.489,0.161-0.613s0.281-0.188,0.521-0.188
			c0.269,0,0.479,0.185,0.635,0.546c0.104,0.222,0.198,0.389,0.282,0.498c0.272,0.353,0.677,0.633,1.208,0.844
			c0.533,0.212,1.121,0.316,1.766,0.316c0.688,0,1.241-0.14,1.657-0.42c0.416-0.278,0.624-0.646,0.624-1.102
			c0-0.461-0.168-0.789-0.504-0.984c-0.334-0.194-0.906-0.291-1.719-0.291h-0.537c-1.324,0-2.336-0.23-3.03-0.693
			c-0.695-0.461-1.043-1.131-1.043-2.008c0-0.856,0.339-1.522,1.019-1.998c0.679-0.475,1.633-0.712,2.86-0.712
			c0.501,0,1.011,0.071,1.53,0.209c0.521,0.142,0.793,0.211,0.818,0.211c0.071,0,0.207-0.062,0.409-0.189s0.399-0.19,0.595-0.19
			c0.221,0,0.386,0.081,0.493,0.244c0.105,0.162,0.159,0.406,0.159,0.73v1.141c0,0.345-0.051,0.594-0.154,0.745
			c-0.104,0.152-0.271,0.229-0.498,0.229c-0.194,0-0.436-0.165-0.721-0.496c-0.202-0.228-0.367-0.399-0.498-0.518
			c-0.345-0.318-0.711-0.548-1.103-0.688c-0.39-0.139-0.847-0.21-1.374-0.21c-0.609,0-1.104,0.137-1.476,0.406
			c-0.375,0.27-0.561,0.611-0.561,1.027c0,0.41,0.189,0.702,0.573,0.878c0.384,0.175,1.209,0.274,2.477,0.302
			c1.352,0.033,2.339,0.269,2.964,0.707c0.623,0.439,0.935,1.115,0.935,2.031c0,0.877-0.345,1.58-1.031,2.104
			c-0.688,0.527-1.618,0.79-2.788,0.79c-0.37,0-0.783-0.032-1.237-0.103c-0.455-0.067-1.027-0.184-1.716-0.346
			c-0.229,0.148-0.423,0.262-0.585,0.336c-0.162,0.075-0.299,0.111-0.409,0.111c-0.229,0-0.401-0.079-0.521-0.238
			C74.698,69.189,74.638,68.96,74.638,68.662z"/>
	</g>
	<g>
		<path fill="#FFFFFF" d="M84.405,30.954c-27.579-0.258-42.934,0-82.605,0L16.934,12.74l9.109,7.098L40.182,1.206l19.079,15.221
			l7.085-7.652 M15.509,21.421l2.937,6.757l0.546-7.301l7.939,4.468l-9.897-11.876L9.744,25.237L15.509,21.421L15.509,21.421z
			 M29.512,19.456l9.4-4.913l1.847,10.941l4.08-10.941l11.845,2.62L40.706,3.809L29.512,19.456L29.512,19.456z M52.603,25.48
			l10.086-4.191l5.515,4.58l0.007-3.197l7.761,1.872L67.03,12.04L52.603,25.48z"/>
		<g>
			<path fill="none" d="M84.405,30.954c-27.579-0.258-42.934,0-82.605,0L16.934,12.74l9.109,7.098L40.182,1.206l19.079,15.221
				l7.085-7.652 M15.509,21.421l2.937,6.757l0.546-7.301l7.939,4.468l-9.897-11.876L9.744,25.237L15.509,21.421L15.509,21.421z
				 M29.512,19.456l9.4-4.913l1.847,10.941l4.08-10.941l11.845,2.62L40.706,3.809L29.512,19.456L29.512,19.456z M52.603,25.48
				l10.086-4.191l5.515,4.58l0.007-3.197l7.761,1.872L67.03,12.04L52.603,25.48z"/>
			<g>
				<g>
					<path fill="#FFFFFF" d="M61.859,18.303c0.302-0.404-0.278,0.136-0.062-0.066l0.672-0.874
						C61.941,18.102,63.046,17.403,61.859,18.303z"/>
					<path fill="#FFFFFF" d="M62.51,16.537l0.062-0.223c0.238-0.18,0.734-0.52,0.508-0.183
						C62.893,16.222,62.728,16.335,62.51,16.537z"/>
					<path fill="#FFFFFF" d="M60.034,15.619l0.329-0.225c-0.145,0.135-0.112,0.312-0.352,0.494L60.034,15.619z"/>
					<path fill="#FFFFFF" d="M79.726,27.004c-0.012,0.011-0.016,0.03-0.008,0.067c-0.086-0.031-0.179-0.065-0.282-0.103
						c-0.116-0.095-0.179-0.16-0.173-0.204c-0.234-0.21-0.49-0.479-0.85-0.876c-0.191-0.371-1.104-1.512-0.639-1.153l0.104,0.129
						c0.243,0.126,0.284-0.235-0.274-0.94c-0.279-0.211-0.264,0.131-0.969-0.565c-0.589-0.732-1.062-1.503-1.285-2.068l-0.76-0.559
						c-0.418-0.659-0.386-0.862-0.661-1.4l0.396,0.343c-0.092-0.31,0.328-0.132-0.413-1.164c-0.338-0.353-0.397-0.372-0.528-0.502
						c-0.124-0.127-0.248-0.254-0.468-0.479c-0.242-0.76-1.195-1.717-1.659-2.494c-0.444-0.225-0.792-0.807-1.135-1.36l-0.129-0.204
						c-0.059-0.087-0.114-0.172-0.169-0.254c-0.146-0.211-0.292-0.412-0.435-0.592c-0.284-0.357-0.555-0.625-0.78-0.697
						c-0.685-1.065-1.098-1.514-1.397-1.722c-0.33,0.454-0.575,0.877-0.915,1.36c-0.939,0.549,0.46-0.896,0.937-1.576
						c0.108,0.067,0.146,0.023,0.028-0.25L67.26,9.735c-0.979,0.844-2.033,1.85-3.05,2.831c-0.34,0.333-0.683,0.669-1.021,1
						c-0.309,0.301-0.619,0.596-0.933,0.877c-0.176,0.433,0.507,0.093-0.104,0.729c0.131-0.287-0.259-0.229-0.488-0.019
						c0.271-0.21,0.06,0.076,0.076,0.15l0.209-0.14c0.463,0.237-0.899,0.772-1.16,1.35c-0.309,0.062,0.229-0.211,0.152-0.361
						c-0.158-0.152-0.525-0.167-1.172,0.321c-0.976,1.283-2.13,1.679-3.349,2.953c0.182,0.079-0.234,0.356-0.424,0.569
						c0.151-0.359-0.489-0.019-0.762,0.19c-0.234,0.357-0.038,0.659-0.54,1.08l0.554-0.053c0.208-0.138,0.759-0.851,1.033-1.207
						c0.467,0.092,1.494-1.63,1.703-1.107l-0.249,0.138c-0.87,0.552-0.893,1.286-1.466,2.071c-0.665,0.415-1.03,0.399-1.547,0.6
						c-0.52,0.348-0.546,0.566-0.718,0.854c-0.338,0.427-0.646,0.487-0.937,0.624c-0.126,0.142,0.122,0.005-0.005,0.146
						c-0.208,0.14-0.456,0.275-0.582,0.417c0.154,0.3,0.908-0.404,1.43-0.751c-0.086,0.144-0.067,0.217-0.235,0.358
						c-0.125,0.142-0.144,0.066-0.185,0.064l-0.25,0.285c0.059,0.076,0.239,0.156-0.116,0.508l-0.351,0.062
						c-0.771,0.63-0.812,1.289,0.151,0.445l-0.055-0.223l1.099-0.618c0.285,0.013-0.321,0.502-0.202,0.653
						c0.033,0.294,0.889-0.333,1.263-0.611c0.257-0.43-0.35,0.061-0.619,0.27l0.265-0.723c0.126-0.143,0.376-0.279,0.434-0.203
						c0.229-0.065,0.237,0.303,0.49,0.019c0.836-0.702-0.196-0.301,0.455-0.937c-0.427-0.091-1.597,0.892-2.071,1.094l-0.294,0.281
						c-0.243-0.01,0.442-0.495-0.078-0.149c0.598-0.857,1.963-1.539,2.687-1.877c0.159,0.153,0.905-0.258,0.622,0.392
						c0.271-0.209,0.515-0.199,0.832-0.555c0.685-1.147,1.399-1.193,2.159-2.044c-0.146,0.068-0.036-0.149-0.057-0.222
						c1.253-0.979,0.297,1.039,1.752-0.594c0.252-0.283,0.32-0.501,0.156-0.507c-0.248,0.138-0.556,0.199-0.832,0.556
						c-0.06-0.075-0.582,0.417-0.407-0.017c0.773-0.63,0.871-1.214,1.519-1.703l0.09-0.29c0.229-0.21,0.677-0.854,1.07-1.059
						c0.979-0.769,0.153,0.299,0.23,0.449l0.814-0.629c0.312-0.538,0.756-0.777,1.179-1.009c0.367-0.18,0.561-0.211,0.759-0.697
						l-0.021,0.164c-0.212,0.4,0.217,0.337,0.341,0.212l0.117-0.236c0.051-0.205,0.148-0.385,0.272-0.549
						c0.285,0.236,0.614,0.901,0.95,1.213c0.077,0.128,0.038,0.222-0.044,0.138c0,0,0.017,0.042,0.04,0.104
						c0.044,0.091,0.103,0.212,0.162,0.333c0.124,0.252,0.249,0.504,0.249,0.504c0.518,0.021,0.482,0.655,0.918,1.158
						c0.4,0.271,0.622,0.284,1.07,0.708c0.325,0.712,0.709,1.19,1.075,1.657c0.399,0.512,0.641,0.811,0.737,1.243
						c0.405,0.042,0.969,0.696,1.053,0.212c0.62,1.181,0.633,1.776,0.979,2.429c0.148,0.128,0.29,0.248,0.441,0.378
						c0.396,0.284,0.935,0.692,1.538,1.172c0.492,0.429,0.886,0.863,1.379,1.274c0.498,0.414,1.15,0.817,2.323,1.222
						C79.763,27.082,79.746,27.045,79.726,27.004z"/>
					<path fill="#FFFFFF" d="M52.593,22.874l0.461-0.423l-0.122-0.005C52.664,22.51,52.823,22.662,52.593,22.874z"/>
					<path fill="#FFFFFF" d="M69.331,23.66c-0.534-0.287-1.222-0.543-1.015-0.174c0.393,0.352,0.794,0.555,1.17,0.835
						c-1.094,0.512-2.188,1.024-3.297,1.543c-0.011-0.421-0.004-0.863,0.048-1.319c-0.148-0.05-0.242,0.629-0.321,1.318
						c1.252-0.586,2.499-1.169,3.747-1.753C69.524,23.934,69.388,23.766,69.331,23.66z"/>
					<path fill="#FFFFFF" d="M63.429,17.056l0.65-0.636l-0.285-0.011C63.17,16.827,63.786,16.704,63.429,17.056z"/>
					<path fill="#FFFFFF" d="M65.369,23.633c-0.077,0.094-0.309,0.061,0.034,0.266l0.593,0.217
						C65.882,24.098,65.333,23.366,65.369,23.633z"/>
					<path fill="#FFFFFF" d="M63.462,22.678l-0.155,0.342c0.268,0.143,0.515,0.151,0.705,0.389
						C63.746,23.11,63.862,22.971,63.462,22.678z"/>
					<path fill="#FFFFFF" d="M66.694,25.442c-0.604-0.976-1.202-0.41-1.577-1.352c-1.047-0.751-0.954-0.241-0.921,0.181
						c0.382,0.315,0.271-0.326,0.957,0.086c0.343,0.363,0.761,0.789,0.699,1.014C66.822,26.216,66.084,25.092,66.694,25.442z"/>
					<polygon fill="#FFFFFF" points="62.921,23.33 63.377,23.709 63.304,23.333 					"/>
					<polygon fill="#FFFFFF" points="66.018,26.256 66.494,26.455 65.828,25.863 					"/>
					<path fill="#FFFFFF" d="M64.64,26.056l0.306,0.253c0.286,0.119,0.515,0.151,0.346-0.107
						C64.891,25.91,64.851,26.112,64.64,26.056z"/>
					<path fill="#FFFFFF" d="M72.374,23.584c-0.327-0.215-0.609-0.413-0.842-0.591c-0.143-0.156-0.629-0.387-1.092-0.604
						c-0.952-0.44-2.168-0.91-3.532-1.374c-0.015,0.11-0.027,0.226-0.04,0.34c0.113,0.646,0.224,1.26,0.312,1.876l-0.274,1.452
						c0.007,0.381,0.012,0.775,0.018,1.182c0.697-0.326,1.396-0.654,2.099-0.982c-0.697-0.523-1.454-0.989-2.053-1.094
						c-0.114-0.173-0.076-0.22-0.19-0.394c-0.38-0.158-0.914-0.757-1.351-0.844c-0.305-0.409-0.191-0.552-0.306-0.883
						c-0.438-0.222-1.364-1.152-2.2-1.922c-0.713,0.253-1.46,0.557-2.037,0.932c-0.681-0.273-1.346,0.889-2.09,0.675
						c-1.167,0.29-2.271,0.979-2.41,1.398c-0.036-0.083,0.232-0.458-0.272-0.378c-0.077,0.066-0.249,0.17-0.237,0.198
						c-0.09,0.038-0.973,0.242-1.186,0.495c-0.091,0.098-0.106,0.153-0.062,0.187c1.229-0.081-0.731,1.9-1.352,2.765
						c-0.117,0.09-0.226,0.171-0.341,0.259c0.496-0.112,1.023-0.272,1.622-0.532c-0.242-0.062,0.683-0.416,0.166-0.364
						c-0.092,0.038-0.17,0.104-0.262,0.143l-0.712,0.101c0.501-0.34,1.85-0.707,2.095-1.137c0.674-0.183,0.954-0.037,1.391-0.023
						c1.017-0.391,2.299-0.664,3.022-1.228c0.968-0.469,1.299-0.312,1.601-0.209c0.151-0.17,0.468-0.212,0.625-0.368
						c0.035,0.005,0.064-0.005,0.088-0.036c0.167,0.256,0.22,0.476,0.209,0.659c0,0.095-0.029,0.17-0.041,0.259
						c0.03,0.122,0.061,0.241,0.088,0.354c0.438,0.56,0.553,0.418,1.026,0.615c1.028,0.931-0.606,0.282,0.611,1.292
						c0.418,0.426,1.179,0.741,1.293,0.6c0.294,0.409,0.784,0.729,1.135,1.048l2.444,2.225l0.92-3.799
						c0.01-0.038,0.034-0.07,0.098-0.079c-0.207-0.104-0.233-0.256-0.208-0.337c0.026-0.09,0.106-0.104,0.112-0.18
						c0.06,0.02,0.062-0.021,0.06-0.171c0.165,0.062,0.269,0.023,0.462-0.024c1.067,0.157,2.213,0.326,3.347,0.493
						C74.259,25.061,73.257,24.264,72.374,23.584z"/>
				</g>
			</g>
			<g>
				<g>
					<path fill="#FFFFFF" d="M39.397,7.459c0.311-0.588-0.303,0.269-0.073-0.053c0,0,0.712-1.307,0.632-1.195
						c-0.042,0.098-0.062,0.166-0.069,0.218c-0.02,0.068-0.024,0.114-0.016,0.143c0.016,0.057,0.073,0.048,0.109,0.054
						C40.052,6.635,40.032,6.701,39.397,7.459z"/>
					<path fill="#FFFFFF" d="M39.951,5.228l0.082-0.321c0.243-0.29,0.685-0.75,0.437-0.247C40.316,4.77,40.161,4.935,39.951,5.228z"
						/>
					<path fill="#FFFFFF" d="M37.172,5.057c0.014-0.021,0.323-0.349,0.386-0.437c-0.216,0.303-0.124,0.434-0.392,0.756L37.172,5.057
						z"/>
					<path fill="#FFFFFF" d="M52.343,17.865c-0.128-0.056-0.298-0.12-0.551-0.203c-0.085-0.185,0.109-0.219,0.774-0.177
						c0.814,0.242,2.335,0.498,2.397,0.687l-0.174-0.028c0.26,0.185,1.731,0.76,2.689,0.927c-0.05-0.118-1.274-0.579-0.79-0.644
						c0.969,0.159,2.43,0.548,3.869,1.017c0.02,0.004-0.172-0.338-0.19-0.342c0.212,0.058,0.401,0.109,0.576,0.158
						c-0.32-0.348-0.155-0.356-0.431-0.683l0.902,0.595c0.023-0.117,1.168,0.527-0.141-0.561c-1.3-0.905-1.486-1.05-2.821-2.047
						c-0.311-0.419-1.231-1.198-2.201-1.99c-0.979-0.798-1.996-1.602-2.721-2.255c-1.097-0.615-2.088-1.516-3.161-2.469
						c-0.201-0.181-0.399-0.356-0.589-0.525c-0.156-0.136-0.31-0.262-0.459-0.372c-0.3-0.221-0.586-0.376-0.85-0.411
						c-1.411-1.336-1.803-1.19-2.761-1.649c-0.956-1.198,1.753,0.957,1.328,0.222c-0.81-0.741-1.698-1.463-2.6-2.182
						c-0.567-0.459-1.14-0.92-1.705-1.377c-0.713-0.595-1.418-1.182-2.114-1.761c-0.098-0.044-0.152-0.053-0.18-0.037
						c-0.049,0.185,0.008,0.219,0.036,0.278c0.018,0.048,0.026,0.088,0.015,0.107c-0.019,0.119-0.128,0.344-0.479,0.866
						c0.29-0.615-0.14-0.396-0.534,0.148c0.426-0.541,0.028,0.125,0.019,0.255l0.303-0.354c0.186,0.161-0.132,0.584-0.58,1.136
						c-0.225,0.277-0.486,0.592-0.722,0.908c-0.058,0.079-0.113,0.154-0.167,0.229l-0.105,0.161C38.163,5.6,38.112,5.703,38.081,5.8
						c-0.341,0.193,0.244-0.337,0.146-0.479c-0.188-0.115-0.601,0.014-1.292,0.836c-1.005,1.877-2.271,2.792-3.552,4.754
						c0.209,0.021-0.238,0.508-0.437,0.83c0.147-0.479-0.549,0.171-0.839,0.521c-0.239,0.51,0.001,0.781-0.532,1.469l0.615-0.279
						c0.225-0.243,0.792-1.289,1.076-1.811c0.529-0.078,1.565-2.485,1.835-1.961l-0.27,0.259c-0.939,0.984-0.914,1.848-1.502,2.985
						c-0.718,0.745-1.129,0.872-1.693,1.309c-0.559,0.607-0.573,0.873-0.746,1.273c-0.35,0.631-0.69,0.823-1.006,1.096
						c-0.131,0.214,0.137-0.043,0.005,0.172c-0.224,0.243-0.494,0.5-0.625,0.715c0.193,0.288,0.991-0.83,1.55-1.437
						c-0.086,0.199-0.061,0.278-0.238,0.508c-0.132,0.214-0.156,0.135-0.203,0.148l-0.265,0.432c0.071,0.064,0.28,0.086-0.095,0.637
						l-0.388,0.208c-0.822,1.037-0.822,1.819,0.2,0.458l-0.077-0.237l1.188-1.151c0.319-0.099-0.326,0.71-0.182,0.839
						c0.056,0.33,0.971-0.737,1.372-1.208c0.258-0.602-0.387,0.208-0.676,0.557l0.248-0.944c0.131-0.215,0.4-0.473,0.472-0.407
						c0.251-0.166,0.286,0.258,0.55-0.171c0.889-1.146-0.24-0.273,0.447-1.27c-0.484,0.064-1.729,1.667-2.247,2.089l-0.311,0.443
						c-0.273,0.086,0.462-0.75-0.098-0.144c0.609-1.231,2.093-2.562,2.881-3.241c0.189,0.114,0.998-0.658,0.724,0.21
						c0.29-0.352,0.563-0.437,0.895-0.975c0.689-1.604,1.488-1.939,2.281-3.229c-0.158,0.136-0.05-0.159-0.077-0.236
						c1.337-1.633,0.403,1.09,1.923-1.381c0.264-0.429,0.325-0.709,0.142-0.652c-0.271,0.257-0.61,0.451-0.896,0.975
						c-0.072-0.064-0.625,0.715-0.458,0.142c0.817-1.03,0.907-1.773,1.571-2.56l0.083-0.375c0.217-0.3,0.751-1.331,1.116-1.638
						l0.013-0.015c0.975,0.925,0.294,0.56,0.071,0.558C40.737,4.547,40.708,4.648,40.71,4.7c0.032-0.036,0.062-0.072,0.094-0.115
						l0.679,0.679c1.013,0.372,1.428,1.861,2.693,2.345l-0.172-0.007c-0.684-0.377-0.064,0.459,0.354,0.802l0.388,0.202
						c0.79,0.104,2.155,1.599,3.269,2.365c0.214,0.193,0.247,0.334,0.043,0.187c0,0,0.063,0.068,0.159,0.17
						c0.091,0.098,0.245,0.257,0.287,0.321c0.122,0.161,0.244,0.322,0.244,0.322c0.279-0.032,0.433,0.091,0.537,0.229
						c0.109,0.146,0.158,0.295,0.396,0.453c0.537,0.229,0.938,0.342,1.648,0.78c0.273,0.425,0.748,0.776,1.279,1.186
						c0.508,0.388,1.066,0.828,0.918,0.929c0.332,0.174,0.646,0.352,0.945,0.526c0.341,0.242,0.281,0.342,1.825,0.948
						c-1.252-0.37-2.475-0.773-3.517-1.126c-1.048-0.354-1.916-0.657-2.644-0.868c-0.018,0.045-0.058,0.081-0.085,0.125
						c0.276,0.376,0.259,0.852,0.257,1.288C50.341,16.886,50.546,17.325,52.343,17.865z"/>
					<path fill="#FFFFFF" d="M29.325,16.429l0.487-0.674l-0.138,0.043C29.38,15.978,29.569,16.091,29.325,16.429z"/>
					<path fill="#FFFFFF" d="M41.677,16.097c-0.021,0.401-0.172,1.5-0.181,1.955c0.044-0.074,0.099-0.373,0.138-0.588
						c0.042-0.221,0.068-0.356,0.117-0.27C41.719,16.59,41.661,16.486,41.677,16.097z"/>
					<path fill="#FFFFFF" d="M40.622,6.019c0.102-0.154,0.204-0.308,0.308-0.452l0.051,0.032c-0.023-0.065-0.048-0.13-0.065-0.146
						l-0.069-0.132C40.471,5.638,40.813,5.727,40.622,6.019z"/>
					<path fill="#FFFFFF" d="M40.301,23.315c-0.067,0.328-0.186,0.354-0.052,0.778c0.004,0.021,0.253,0.229,0.25,0.206
						C40.442,24.329,40.356,22.552,40.301,23.315z"/>
					<path fill="#FFFFFF" d="M39.443,21.14l-0.252,0.687c0.145,0.486,0.312,0.567,0.358,1.21
						C39.469,22.203,39.604,21.915,39.443,21.14z"/>
					<path fill="#FFFFFF" d="M40.72,27.406c-0.059,0.04-0.113,0.11-0.164,0.205c-0.088-0.857-0.202-0.808-0.311-0.969
						c-0.105-0.142-0.209-0.51-0.206-1.781c-0.416-1.917-0.544-0.676-0.615,0.72c0.09,0.535,0.152,0.267,0.236,0.032
						c0.083-0.236,0.188-0.436,0.34,0.104c0.118,1.066,0.276,2.371,0.227,3.347c0.051,0.325,0.092,0.553,0.125,0.698
						c0.227-0.684,0.206-0.896,0.193-1.146C40.532,28.367,40.527,28.076,40.72,27.406z"/>
					<path fill="#FFFFFF" d="M38.781,22.305l0.222,1.308l0.071-1.031C39.074,22.594,38.783,22.318,38.781,22.305z"/>
					<path fill="#FFFFFF" d="M40.398,31.302l0.413-1.542c-0.202,0.515-0.403,1.029-0.608,1.579l-0.021-0.183
						c0.004,0.083,0.009,0.165,0.018,0.211C40.262,31.355,40.328,31.333,40.398,31.302z"/>
					<path fill="#FFFFFF" d="M39.466,32.364l0.189,1.125c0.182,0.523,0.312,0.567,0.214-0.555
						C39.636,31.739,39.601,32.619,39.466,32.364z"/>
					<path fill="#FFFFFF" d="M45.464,14.59c-0.237-0.125-0.5-0.255-0.813-0.394c-0.221,0.264-0.466,0.609-0.731,1.033l-0.417,0.692
						c-0.064,0.104-0.162,0.3-0.203,0.344l-0.139,0.18c-0.295,0.367-0.583,0.727-0.866,1.078c-0.018,0.377-0.062,0.812-0.146,1.291
						c0,0-0.097,0.064-0.178,0.091c-0.083,0.029-0.152,0.019-0.152,0.019c-0.198,0.536-0.407,1.266-0.686,2.635
						c-0.043,0.094-0.092,0.225-0.146,0.4c-0.001-0.367,0.025-0.572,0.029-0.909c-0.106,0.093-0.135-0.788-0.316-0.598
						c0.009-0.668,0.133-1.021,0.233-1.513c-0.115-0.131-0.123-0.621-0.117-0.949l-0.001-0.241c-0.008-0.11,0.014-0.026-0.058-0.442
						c-0.104-0.612-0.23-1.202-0.39-1.688c0.192-0.971-0.27-2.067-0.484-3.031c-0.472,0.274-0.866,0.454-1.156,0.435
						c-1.08,0.463-2.31,1.115-3.227,1.677c-0.271,0.161-0.33,0.218-0.467,0.318c-0.118,0.09-0.225,0.179-0.315,0.262
						c-0.182,0.167-0.306,0.318-0.353,0.436c-0.044-0.079,0.306-0.535-0.337-0.336c-0.1,0.087-0.318,0.236-0.306,0.264
						c-0.115,0.061-1.236,0.477-1.512,0.792c-0.117,0.125-0.141,0.186-0.084,0.211c1.559-0.366-0.974,2.172-1.778,3.224
						c-0.149,0.121-0.29,0.233-0.437,0.352c0.63-0.231,1.302-0.521,2.065-0.932c-0.305-0.011,0.875-0.595,0.219-0.422
						c-0.116,0.062-0.218,0.148-0.334,0.21l-0.903,0.269c0.642-0.474,2.357-1.167,2.679-1.678c0.858-0.347,1.208-0.257,1.761-0.342
						c0.316-0.157,0.686-0.327,1.001-0.466c0.216-0.088,0.435-0.178,0.646-0.264c0.41-0.178,0.753-0.357,1.176-0.716
						c0.014-0.009,0.028-0.017,0.039-0.022c0.193,0.843-0.003,1.279-0.161,1.592c0.08,0.112,0.113,0.346,0.15,0.542
						c0.023,0.128,0.047,0.251,0.068,0.369c0.03,0.14,0.059,0.271,0.086,0.4c0.059,0.237,0.118,0.411,0.184,0.479
						c0.136,1.884-0.037,3.043-0.072,4.465c0.188,2.013,0.324,1.731,0.618,2.559c0.261,1.726,0.152,1.986,0.049,2.241
						c-0.102,0.261-0.193,0.539,0.182,2.749c0.17,1.242,0.442,2.283,0.606,2.523c0.143-0.554,0.234-0.991,0.253-1.212
						c0.257-0.431,0.596-1.363,0.905-2.204c0.311-0.847,0.595-1.609,0.812-1.89c0.439-2.002,0.914-3.104,1.479-4.423
						c0.547-1.273,1.188-2.784,1.521-4.417c0.207-0.531,0.399-1.055,0.578-1.563l0.257-0.752l0.054-0.162l0.003-0.029l0.003-0.059
						c0.01-0.208,0.02-0.421,0.029-0.64c0.117-0.038,0.276-0.068,0.483-0.079C46.504,15.839,46.649,15.317,45.464,14.59z"/>
				</g>
			</g>
			<g>
				<g>
					<path fill="#FFFFFF" d="M12.732,22.424c0.166-0.439-0.223,0.188-0.077-0.047l0.381-0.958
						C12.751,22.22,13.588,21.328,12.732,22.424z"/>
					<path fill="#FFFFFF" d="M12.836,20.646l-0.005-0.22c0.171-0.221,0.54-0.644,0.423-0.281
						C13.105,20.27,12.982,20.411,12.836,20.646z"/>
					<path fill="#FFFFFF" d="M10.248,20.344l0.245-0.281c-0.098,0.157-0.018,0.313-0.188,0.534L10.248,20.344z"/>
					<path fill="#FFFFFF" d="M25.879,21.546c0.006,0.049,0.023,0.111,0.066,0.205c-0.15,0.071-0.287,0.025-0.613-0.207
						c-0.175-0.304-0.744-0.862-0.529-0.872l0.063,0.062c0.083-0.095,0.003-0.571-0.312-0.881c-0.143-0.008-0.051,0.391-0.451,0.174
						c-0.379-0.372-0.737-0.902-0.897-1.323l-0.483-0.122c-0.3-0.428-0.276-0.625-0.445-0.967l0.27,0.132
						c-0.043-0.219,0.245-0.245-0.188-0.758c-0.395-0.255-0.458-0.318-0.905-0.713c-0.133-0.352-0.439-0.729-0.773-1.107
						c-0.238-0.271-0.481-0.55-0.713-0.813c-0.271-0.315-0.525-0.62-0.745-0.913c-0.707-0.375-1.562-1.698-2.378-2.688
						c-0.343,0.546-0.64,1.116-0.754,1.673c-1.182,1.686-1.122,2.276-1.417,3.251c-0.464,0.458-0.367,0.115-0.107-0.485
						c0.241-0.571,0.58-1.295,0.252-1.044c-0.175,0.265-0.347,0.526-0.52,0.791l-0.455,0.722c-0.202,0.342-0.407,0.688-0.614,1.037
						c-0.403,0.7-0.803,1.408-1.23,2.067c-0.041,0.439,0.503-0.026,0.113,0.697c0.039-0.295-0.31-0.155-0.465,0.092
						c0.194-0.255,0.078,0.057,0.115,0.123l0.156-0.176c0.503,0.117-0.623,0.913-0.702,1.504c-0.271,0.125,0.156-0.246,0.041-0.367
						c-0.193-0.106-0.542-0.038-1.008,0.557c-0.494,1.268-1.333,1.896-2.065,3.076L3.76,31.386l6.999-4.618
						c0.123-0.081,0.248-0.169,0.375-0.266c-0.162-0.111,0.266-0.298,0.472-0.466c-0.189,0.317,0.459,0.112,0.743-0.037
						c0.269-0.299,0.12-0.626,0.647-0.934l-0.529-0.056c-0.214,0.093-0.824,0.672-1.129,0.961c-0.188-0.078-0.519,0.154-0.843,0.396
						l-4.899,3.656L8.59,24.52c0.251-0.462,0.487-0.936,0.683-0.689l-0.193,0.184c-0.181,0.191-0.297,0.382-0.377,0.573l-2.21,5.277
						l3.933-3.605c0.411-0.378,0.598-0.875,1.063-1.345c0.682-0.271,1.025-0.187,1.538-0.278c0.535-0.234,0.587-0.439,0.786-0.683
						c0.374-0.345,0.672-0.345,0.963-0.42c0.137-0.112-0.114-0.028,0.022-0.14c0.214-0.093,0.466-0.177,0.603-0.29
						c-0.107-0.318-0.909,0.215-1.444,0.448c0.099-0.121,0.091-0.195,0.267-0.299c0.136-0.111,0.145-0.037,0.183-0.027l0.275-0.226
						c-0.045-0.084-0.208-0.195,0.174-0.467l0.338,0.009c0.81-0.457,0.931-1.083-0.087-0.457l0.024,0.225l-1.117,0.383
						c-0.267-0.066,0.367-0.421,0.273-0.589c0.006-0.289-0.881,0.148-1.271,0.345c-0.297,0.364,0.337,0.009,0.619-0.139
						l-0.341,0.643c-0.137,0.112-0.391,0.197-0.437,0.112c-0.224,0.019-0.186-0.336-0.461-0.112
						c-0.878,0.513,0.147,0.327-0.548,0.812c0.393,0.168,1.622-0.552,2.096-0.654l0.312-0.214c0.229,0.056-0.48,0.391,0.055,0.158
						c-0.671,0.71-2.048,1.102-2.774,1.289c-0.132-0.178-0.889,0.073-0.538-0.495c-0.283,0.148-0.513,0.093-0.856,0.373
						c-0.228,0.278-0.446,0.47-0.66,0.615c0.229,0.222,0.446,0.434,0.665,0.646c0.333-0.555,0.765-0.854,1.099-1.534
						c-0.117,0.095-0.076-0.13-0.116-0.193c0.895-1.184,0.577,0.896,1.474-0.937c0.156-0.318,0.157-0.535,0.001-0.504
						c-0.193,0.182-0.465,0.307-0.622,0.697c-0.078-0.057-0.427,0.515-0.387,0.075c0.545-0.754,0.469-1.315,0.935-1.911l0.002-0.288
						c0.155-0.246,0.39-0.94,0.7-1.217c0.699-0.928,0.231,0.243,0.348,0.364l0.583-0.762c0.273-1.134,1.396-1.28,1.516-2.312
						l0.039,0.138c-0.078,0.267,0.028,0.282,0.178,0.189c0.075-0.046,0.162-0.119,0.241-0.201c0.083-0.088,0.155-0.177,0.168-0.2
						l0.01-0.193c-0.094-0.253,0.053-0.563,0.233-0.858c0.185-0.301,0.39-0.562,0.543-0.93c0.015-0.02,0.029-0.031,0.04-0.034
						c0.053,0.108,0.064,0.212,0.012,0.17l0,0l0,0l0.381,0.741c0.19-0.411,0.292,0.331,0.518,0.504
						c0.26,0.049,0.39-0.062,0.81,0.255c0.688,1.292,1.566,1.67,2.122,2.878c0.361-0.042,0.93,0.518,0.806-0.178
						c0.717,1.145,1.222,2.276,1.979,3.336c0.096,0.041,0.186,0.079,0.284,0.121C24.719,22.552,26.553,22.792,25.879,21.546z"/>
					<path fill="#FFFFFF" d="M15.189,23.927L14.7,24.245l0.114,0.028C15.076,24.263,14.944,24.086,15.189,23.927z"/>
					<path fill="#FFFFFF" d="M19.779,18.544c-0.955-0.398-1.83-0.613-1.149-0.058c1.131,0.671,1.992,0.877,3.168,1.713
						C21.853,19.954,20.305,18.979,19.779,18.544z"/>
					<path fill="#FFFFFF" d="M13.848,20.924l0.428-0.731l-0.271,0.053C13.539,20.768,14.082,20.518,13.848,20.924z"/>
					<path fill="#FFFFFF" d="M18.986,22.162c0.11,0.143,0.209,0.442,0.179,0.047l-0.152-0.799
						C19.06,21.571,18.806,22.127,18.986,22.162z"/>
					<path fill="#FFFFFF" d="M19.32,24.194l0.358,0.073c-0.047-0.188-0.183-0.406-0.11-0.557
						C19.491,23.915,19.317,23.826,19.32,24.194z"/>
					<path fill="#FFFFFF" d="M20.093,22.226c-0.331-0.345-0.503-0.404-0.578-0.371c0.075,0.457,0.25,0.835-0.052,0.833
						c0.016,1.009,0.355,0.921,0.645,1.114c0.018-0.227-0.396-0.394-0.47-1.022c0.055-0.162,0.11-0.34,0.202-0.319
						c0.089,0.098,0.165,0.197,0.229,0.309c0.287,0.179,0.237,0.047,0.135-0.138C20.102,22.448,19.922,22.199,20.093,22.226z"/>
					<path fill="#FFFFFF" d="M20.146,24.496l0.018-0.228c0-0.008-0.242-0.008-0.242,0S20.145,24.504,20.146,24.496z"/>
					<path fill="#FFFFFF" d="M20.702,23.784c-0.008-0.004,0.051-0.145,0.059-0.141l-0.284-0.194L20.702,23.784z"/>
					<path fill="#FFFFFF" d="M21.121,24.852c-0.081-0.149-0.138-0.319-0.234-0.479c-0.009,0.006,0.002,0.04,0.025,0.088
						C20.972,24.589,21.065,24.755,21.121,24.852z"/>
					<path fill="#FFFFFF" d="M26.809,25.337l0.024,0.088c0.05-0.061,0.104-0.125,0.159-0.19c-0.721-1.025-1.788-2.115-3.052-3.113
						c-0.327-0.051-0.664-0.113-1.024-0.214c0.118,0.066-1.174-0.971-1.174-0.971c-1.355-0.76-3.004-1.581-3.399-1.353
						c-0.031-0.026-0.061-0.053-0.087-0.076c-0.06,0.092-0.108,0.037-0.171,0.184c0.07,0.678-0.115,1.571,0.046,2.263
						c-0.158,0.508-0.332,0.386-0.536,0.691c0.016,0.411-0.01,0.811-0.056,1.228c-0.026,0.204-0.054,0.416-0.081,0.635
						c-0.026,0.148-0.053,0.301-0.079,0.451c-0.104,0.571-0.19,1.144-0.076,1.657c-0.393,0.308-0.122,0.94-0.131,1.466
						c0.829-0.14,1.636-0.276,2.443-0.414c-0.095-0.186-0.142-0.376-0.079-0.576c-0.277-1.089-0.95-2.1-1.363-2.216
						c0.083-0.037,0.451,0.201,0.376-0.271c-0.064-0.071-0.166-0.229-0.193-0.216c-0.037-0.084-0.23-0.907-0.479-1.099
						c-0.097-0.081-0.15-0.095-0.185-0.052c0.068,1.156-1.875-0.614-2.723-1.163c-0.089-0.107-0.168-0.206-0.254-0.311
						c0.107,0.462,0.261,0.954,0.512,1.507c0.064-0.231,0.406,0.627,0.359,0.142c-0.037-0.085-0.102-0.156-0.138-0.241l-0.094-0.667
						c0.333,0.458,0.684,1.716,1.106,1.93c0.175,0.628,0.029,0.896,0.011,1.31c0.375,0.933,0.632,2.116,1.172,2.779l2.27,2.784
						l-0.6-3.066l-0.005-0.025c0.014-1.016,0.299-1.183,0.53-1.445c-0.086-0.467,0.125-1.285-0.073-1.481
						c0.062-0.204,0.129-0.373,0.204-0.518c0.069-0.07,0.143-0.109,0.219-0.137c0.151-0.052,0.311-0.041,0.444-0.017
						c0.154-0.046-0.022-0.126-0.154-0.397c0.042-0.159,0.179,0.052,0.31,0.219c0.131,0.17,0.257,0.313,0.257,0.295
						c0.018,0.021,0.008,0.002-0.018-0.054c-0.049-0.102-0.111-0.313-0.183-0.497c0.174,0.305,0.235,0.095,0.298,0.372
						c-0.085-0.709,1.113,0.899,2.315,0.983c0.922,0.562,1.786,0.829,2.713,1.153l7.84,2.737l-5.893-5.076l-0.516-0.443
						C27.01,24.025,26.71,24.508,26.809,25.337z"/>
				</g>
			</g>
			<g>
				<g>
					<path fill="#FFFFFF" d="M43.13,2.203c-1.123-0.78,0.583,0.581-0.057,0.071c-1.011-0.73-2.021-1.46-3.043-2.274L40.003,0.14
						c0.015-0.022,0.029-0.043,0.039-0.059C41.246,0.927,41,0.598,40.925,0.456c-0.033-0.065-0.008-0.073,0.312,0.179
						c0.159,0.129,0.392,0.316,0.729,0.59C42.255,1.467,42.635,1.786,43.13,2.203z"/>
					<path fill="#FFFFFF" d="M39.047,2.352l-0.269,0.552c-0.526,0.645-1.571,1.872-0.992,0.958
						C38.163,3.466,38.5,3.072,39.047,2.352z"/>
					<path fill="#FFFFFF" d="M40.701,4.368c0.006,0.004-0.091-0.148-0.097-0.154c0.049,0.039,0.119-0.099,0.235,0.033
						C40.832,4.239,40.692,4.361,40.701,4.368z"/>
					<path fill="#FFFFFF" d="M6.002,29.33c0.008,0.027,0.039,0.052,0.118,0.079c-0.205,0.162-0.411,0.238-1.14,0.34
						c-0.103-0.015-0.256-0.021-0.423-0.024l-0.127-0.002c0.012-0.026,0.054-0.067,0.08-0.101c0.06-0.068,0.118-0.136,0.173-0.2
						c0.227-0.257,0.409-0.441,0.494-0.41L5.12,29.094c0.116-0.045,0.361-0.194,0.571-0.337c0.214-0.146,0.39-0.279,0.488-0.433
						c-0.027-0.05-0.141-0.025-0.25-0.02c-0.104,0-0.207-0.016-0.094-0.283l0.175-0.233l0.369-0.451l0.809-0.938
						c0.543-0.611,1.082-1.176,1.537-1.609l0.531-1.097c1.01-1.148,1.375-1.362,2.14-2.143l-0.418,0.695
						c0.45-0.375,0.323,0.15,1.579-1.366c0.734-1.102,0.894-1.307,1.931-2.698c0.533-0.507,1.146-1.198,1.787-1.962
						c0.158-0.19,0.318-0.385,0.48-0.58l0.141-0.181l0.29-0.379c0.105,0.078,0.208,0.155,0.307,0.229
						c0.113,0.096,0.222,0.188,0.323,0.272c2.26,1.188,5.062,4.19,8.482,6.215c0.041-0.073,0.078-0.142,0.117-0.212
						c0.935-1.184,1.726-2.226,2.246-2.946c0.365-0.52,0.631-0.938,0.851-1.317c0.439-0.759,0.7-1.36,1.235-2.282
						c2.11-2.275-2.126,3.446-0.901,2.315c2.805-3.532,5.647-7.553,8.459-11.204c0.544-1.043-0.839,0.42,0.576-1.527
						c-0.384,0.708,0.329,0.137,0.849-0.542c-0.597,0.733-0.05-0.094-0.065-0.182l-0.429,0.497C39.115,4.41,39.1,4.339,39.164,4.202
						c0.031-0.067,0.083-0.152,0.148-0.25c0.06-0.081,0.125-0.172,0.2-0.274c0.232-0.298,0.571-0.654,0.854-0.996
						c0.294,0.254,0.557,0.456,0.793,0.556c0.269,0.425-0.397-0.32-0.467-0.168c0,0.14,0.069,0.35,0.182,0.57
						c0.056,0.11,0.122,0.224,0.198,0.335c-0.014,0.015,0.217,0.222,0.366,0.36c0.176,0.155,0.364,0.322,0.568,0.503
						c3.567,2.495,5.64,4.785,9.467,7.708c-0.055-0.275,0.95,0.628,1.573,1.092c-0.864-0.485,0.521,0.858,1.23,1.467
						c0.478,0.314,0.804,0.43,1.184,0.608c0.188,0.09,0.393,0.195,0.634,0.35c0.127,0.082,0.237,0.156,0.408,0.284
						c0.237,0.188,0.496,0.392,0.792,0.626c0,0-0.344-0.383-0.688-0.766c-0.188-0.258-0.377-0.517-0.377-0.517
						c-0.501-0.453-2.493-1.854-3.486-2.555c-0.356-0.777-4.822-3.625-4.063-3.69L49.23,9.97c2.049,1.878,3.479,2.35,5.633,3.834
						c0.776,0.715,1.263,1.232,1.676,1.702l0.299,0.346l0.454,0.47c0.314,0.323,0.659,0.667,1.072,1.063
						c0.408,0.342,0.749,0.628,1.035,0.868c1.096-1.163,1.519-1.775,2.173-2.594c0.993-1.193,1.573-1.576,2.224-2.133
						c0.337-0.39-0.225,0.114,0.114-0.277c0.488-0.468,1.052-0.974,1.389-1.364c-0.067-0.405-1.986,1.669-3.205,2.838
						c0.263-0.354,0.284-0.474,0.697-0.903c0.337-0.39,0.315-0.271,0.393-0.309l0.679-0.785c-0.054-0.083-0.334-0.049,0.588-1.065
						l0.692-0.464c1.896-1.95,2.451-3.221,0.044-0.679l-0.061,0.358l-2.495,2.259c-0.521,0.264,0.964-1.26,0.853-1.422
						c0.154-0.517-1.893,1.513-2.793,2.408c-0.79,1.06,0.692-0.463,1.349-1.124l-1.021,1.614c-0.342,0.396-0.913,0.911-0.931,0.789
						c-0.411,0.286-0.117-0.438-0.687,0.229c-0.069,0.072-0.134,0.14-0.185,0.192c-0.769-0.624-0.788-0.525-0.802-0.415
						c-0.016,0.109-0.012,0.24-0.935-0.483c0.122,0.295,0.847,1.001,1.81,1.873c0.577-0.556,1.193-1.148,1.748-1.682
						c0.518-0.496,0.95-0.901,1.248-1.147l0.751-0.82c0.447-0.229-1.184,1.367,0.037,0.199c-0.447,0.565-0.98,1.163-1.554,1.758
						c-0.354,0.361-0.717,0.731-1.083,1.105l-1.11,1.088c-0.775-0.689-1.482-1.341-2.074-1.901
						c-0.484-0.482-0.928-0.923-1.293-1.287c0.11-0.193-1.526-1.766,0.041-0.876c-0.71-0.607-0.971-1.036-2.012-1.812
						c-2.976-1.896-3.879-3.198-6.371-5.053c0.295,0.298-0.245-0.023-0.361-0.032c-3.303-2.811,1.647,0.084-3.132-3.471
						c-0.83-0.617-1.324-0.867-1.149-0.579c0.546,0.524,1.016,1.108,2.01,1.811c-0.074,0.062,1.463,1.283,0.435,0.716
						c-1.043-0.875-1.872-1.442-2.649-1.97c-0.372-0.251-0.796-0.545-1.211-0.85c-0.415-0.304-0.829-0.625-1.303-1.03
						C40.22,0.947,40.183,0.93,40.146,0.9l-0.344,0.672c-0.561,0.734-1.695,2.503-2.492,3.357c-2.137,2.64-0.107-0.396-0.163-0.592
						l-1.77,2.177c-1.675,2.81-3.645,3.951-4.959,6.415l0.087-0.287c0.834-1.346-0.619,0.164-1.289,1.056l-0.456,0.754
						c-0.185,0.504-0.673,1.251-1.295,2.107c-0.274,0.367-0.569,0.76-0.872,1.166c-0.232,0.302-0.471,0.611-0.706,0.917
						c-0.426-0.334-0.833-0.645-1.228-0.91c-0.407-0.333-0.581-0.577-0.15-0.264l-2.285-2.011c-0.468-0.105-0.909-0.444-1.416-0.892
						c-0.25-0.224-0.529-0.472-0.822-0.733c-0.152-0.129-0.31-0.261-0.47-0.396c-0.227-0.175-0.458-0.354-0.702-0.541
						c-0.89-0.564-1.364-0.803-1.991-1.174c-0.295,0.447-0.647,0.958-1.137,1.619c-0.411,0.449-0.792,0.866-1.155,1.264
						c-0.315,0.364-0.614,0.708-0.903,1.041c-0.57,0.676-1.085,1.319-1.593,1.952c-1.016,1.265-2,2.482-3.337,3.82
						c-0.138,0.647-1.565,2.488-0.146,1.328c-1.333,1.461-2.59,2.771-3.897,4.159c-0.771,0.843-1.538,1.681-2.307,2.519
						l-1.221,1.368l-0.621,0.706l-0.077,0.088c-0.041,0.037,0.05,0.013,0.068,0.021l0.214,0.005l0.435,0.01
						c0.414-0.046,0.834-0.094,1.246-0.14c0.526-0.154,1.287-0.348,1.949-0.558c0.669-0.209,1.231-0.433,1.573-0.646
						C6.601,29.854,6.466,29.47,6.002,29.33z"/>
					<path fill="#FFFFFF" d="M64.461,13.626l-1.166,1.252l0.225-0.114C64.064,14.376,63.877,14.253,64.461,13.626z"/>
					<path fill="#FFFFFF" d="M36.395,33.374c1.625-0.121,3.519-0.362,2.437-0.514c-2.161-0.03-3.787,0.212-5.947,0.061
						C32.883,33.162,35.586,33.253,36.395,33.374z"/>
					<path fill="#FFFFFF" d="M37.676,2.494L36.19,4.487l0.494-0.315C38.005,2.631,36.858,3.596,37.676,2.494z"/>
					<path fill="#FFFFFF" d="M44.788,30.863c0-0.121,0.543-0.242-0.537-0.182l-1.626,0.212
						C42.897,30.833,45.329,31.045,44.788,30.863z"/>
					<path fill="#FFFFFF" d="M50.472,30.379l-0.269-0.361c-0.812,0.061-1.354,0.212-2.164,0.15
						C49.12,30.228,49.119,30.409,50.472,30.379z"/>
					<path fill="#FFFFFF" d="M38.842,30.318c2.975,0.363,3.25-0.453,5.682,0.03c3.517-0.092,2.436-0.424,1.625-0.727
						c-1.354,0-0.002,0.424-2.167,0.545c-1.353-0.062-2.977-0.121-3.243-0.333C37.221,29.804,40.737,30.197,38.842,30.318z"/>
					<polygon fill="#FFFFFF" points="50.477,29.532 48.855,29.532 49.664,29.774 					"/>
					<polygon fill="#FFFFFF" points="38.846,29.26 37.495,29.411 39.928,29.441 					"/>
					<path fill="#FFFFFF" d="M42.098,28.534h-1.086c-0.811,0.091-1.349,0.211-0.54,0.302C41.825,28.806,41.555,28.625,42.098,28.534
						z"/>
					<path fill="#FFFFFF" d="M14.344,31.043c3.36,0.559,7.748,0.999,12.521,1.255c0.909-0.114,1.859-0.227,2.931-0.314l2.983,0.271
						c2.975-0.001,6.488-0.094,8.366-0.487c0.543,0.061,0.545,0.121,1.088,0.181c1.077-0.121,3.246-0.002,4.319-0.214
						c1.355,0.12,1.363,0.302,2.182,0.482c2.968-0.184,6.771,0.3,9.731-0.005c1.374,0.515,4.317-0.305,5.958,0.179
						c3.252,0.18,6.761-0.034,7.559-0.367c0.003,0.091-1.069,0.333,0.288,0.454c0.268-0.031,0.809-0.062,0.81-0.091
						c0.268,0,2.706,0.149,3.513-0.003c0.331-0.056,0.432-0.1,0.356-0.147c-3.188-0.398,3.854-1.474,6.33-2.033l1.134-0.108
						c-1.368-0.087-2.87-0.142-4.653-0.132c0.545,0.151-2.163,0.122-0.805,0.272c0.27-0.01,0.543-0.021,0.811-0.031l1.901,0.181
						c-1.622,0.122-5.412-0.058-6.486,0.245c-1.894-0.09-2.445-0.331-3.533-0.512c-2.975-0.028-6.5-0.269-8.925-0.025
						c-2.975,0.062-3.523-0.21-4.344-0.421c-1.352,0.121-3.788-0.027-4.32,0.184c-2.44-0.181-3.268-0.542-4.357-0.814
						c-1.9-0.149-1.896,0.031-3.24,0.184c-3.79-0.06,0.788-0.605-3.541-0.604c-1.624-0.06-3.778,0.184-3.771,0.365
						c-1.898-0.181-4.325,0.032-5.688-0.179c-2.955,0.575-6.771-0.238-10.269,0.276c-3.883-0.046-6.903,0.251-10.564,0.438
						C11.766,30.049,12.29,30.589,14.344,31.043z"/>
				</g>
			</g>
		</g>
	</g>
	<g>
		<path fill="#FFFFFF" d="M8.146,52.885c0.501,0,0.822,0.047,0.962,0.142c0.141,0.095,0.21,0.271,0.21,0.532
			c0,0.267-0.069,0.451-0.21,0.552c-0.14,0.101-0.422,0.151-0.845,0.151H3.624c-0.423,0-0.703-0.052-0.84-0.151
			c-0.138-0.1-0.205-0.285-0.205-0.552c0-0.262,0.075-0.438,0.229-0.532c0.153-0.095,0.47-0.142,0.952-0.142h1.416v-3.243
			l-3.252-5.558H1.758c-0.391,0-0.658-0.052-0.801-0.155c-0.144-0.104-0.215-0.287-0.215-0.548c0-0.24,0.06-0.418,0.181-0.531
			c0.121-0.114,0.308-0.171,0.562-0.171h0.44h2.236c0.384,0,0.643,0.052,0.775,0.155c0.134,0.104,0.2,0.287,0.2,0.547
			c0,0.261-0.08,0.443-0.239,0.548c-0.16,0.104-0.451,0.155-0.874,0.155H3.702l2.363,4.239l2.451-4.239H8.117
			c-0.353,0-0.597-0.052-0.732-0.155c-0.137-0.104-0.205-0.287-0.205-0.548c0-0.272,0.059-0.459,0.176-0.557s0.414-0.146,0.89-0.146
			h0.254h1.543c0.495,0,0.812,0.05,0.952,0.15c0.14,0.102,0.21,0.285,0.21,0.552c0,0.261-0.07,0.443-0.21,0.548
			c-0.141,0.104-0.405,0.155-0.796,0.155h-0.156L6.72,49.778v3.106H8.146z"/>
		<path fill="#FFFFFF" d="M20.247,53.021c-0.534,0.48-1.115,0.85-1.743,1.104s-1.275,0.381-1.939,0.381
			c-0.97,0-1.753-0.271-2.349-0.811s-0.895-1.244-0.895-2.109c0-1.028,0.396-1.826,1.188-2.394c0.791-0.566,1.903-0.851,3.335-0.851
			c0.377,0,0.758,0.024,1.143,0.073c0.386,0.049,0.778,0.126,1.183,0.229v-0.068c0-0.749-0.179-1.302-0.537-1.66
			c-0.358-0.357-0.915-0.537-1.67-0.537c-0.508,0-1.075,0.138-1.7,0.41c-0.625,0.273-1.039,0.41-1.24,0.41
			c-0.188,0-0.345-0.077-0.469-0.229c-0.124-0.153-0.186-0.351-0.186-0.592c0-0.384,0.358-0.71,1.078-0.977s1.64-0.401,2.76-0.401
			c1.146,0,2.012,0.292,2.598,0.875s0.879,1.444,0.879,2.583v4.426h0.479c0.462,0,0.771,0.049,0.928,0.146s0.234,0.273,0.234,0.527
			c0,0.233-0.065,0.409-0.195,0.526s-0.326,0.177-0.586,0.177h-1.533c-0.183,0-0.333-0.057-0.45-0.166
			c-0.117-0.11-0.195-0.271-0.233-0.479L20.247,53.021z M20.169,49.944c-0.358-0.117-0.705-0.203-1.04-0.259
			s-0.669-0.083-1.001-0.083c-1.003,0-1.794,0.17-2.374,0.508c-0.58,0.339-0.869,0.795-0.869,1.368c0,0.441,0.181,0.807,0.542,1.094
			c0.361,0.286,0.822,0.43,1.382,0.43c0.827,0,1.594-0.217,2.3-0.648c0.707-0.435,1.061-0.884,1.061-1.354V49.944z"/>
		<path fill="#FFFFFF" d="M32.251,53.021c-0.534,0.48-1.115,0.85-1.743,1.104s-1.275,0.381-1.939,0.381
			c-0.97,0-1.753-0.271-2.349-0.811s-0.894-1.244-0.894-2.109c0-1.028,0.396-1.826,1.187-2.394c0.791-0.566,1.903-0.851,3.335-0.851
			c0.377,0,0.758,0.024,1.144,0.073c0.385,0.049,0.777,0.126,1.182,0.229v-0.068c0-0.749-0.179-1.302-0.537-1.66
			c-0.358-0.357-0.915-0.537-1.67-0.537c-0.508,0-1.075,0.138-1.7,0.41c-0.625,0.273-1.039,0.41-1.24,0.41
			c-0.188,0-0.345-0.077-0.469-0.229c-0.124-0.153-0.186-0.351-0.186-0.592c0-0.384,0.358-0.71,1.079-0.977
			c0.719-0.267,1.639-0.401,2.759-0.401c1.146,0,2.012,0.292,2.598,0.875s0.879,1.444,0.879,2.583v4.426h0.479
			c0.462,0,0.771,0.049,0.928,0.146s0.234,0.273,0.234,0.527c0,0.233-0.065,0.409-0.195,0.526s-0.326,0.177-0.586,0.177h-1.533
			c-0.183,0-0.333-0.057-0.45-0.166c-0.117-0.11-0.194-0.271-0.233-0.479L32.251,53.021z M32.173,49.944
			c-0.358-0.117-0.705-0.203-1.04-0.259s-0.669-0.083-1.001-0.083c-1.003,0-1.794,0.17-2.374,0.508
			c-0.58,0.339-0.869,0.795-0.869,1.368c0,0.441,0.181,0.807,0.542,1.094c0.361,0.286,0.822,0.43,1.382,0.43
			c0.827,0,1.595-0.217,2.3-0.648c0.707-0.435,1.061-0.884,1.061-1.354V49.944z"/>
		<path fill="#FFFFFF" d="M45.612,48.821c0-0.918-0.082-1.538-0.246-1.86c-0.165-0.321-0.447-0.482-0.85-0.482
			c-0.478,0-0.857,0.208-1.139,0.625s-0.422,0.988-0.422,1.719v4.063h0.176c0.396,0,0.663,0.047,0.796,0.142
			c0.134,0.095,0.2,0.271,0.2,0.532c0,0.233-0.057,0.41-0.166,0.526c-0.11,0.117-0.28,0.177-0.508,0.177h-1.24
			c-0.28,0-0.471-0.065-0.571-0.195s-0.15-0.41-0.15-0.84v-0.283v-4.122V48.06c0-0.488-0.11-0.874-0.33-1.157
			c-0.221-0.283-0.521-0.425-0.901-0.425c-0.291,0-0.558,0.086-0.8,0.259c-0.242,0.172-0.451,0.428-0.625,0.767v5.383h0.36
			c0.392,0,0.654,0.049,0.791,0.146c0.138,0.097,0.205,0.273,0.205,0.527c0,0.267-0.055,0.451-0.166,0.552
			c-0.11,0.101-0.321,0.151-0.635,0.151h-2.613c-0.255,0-0.443-0.058-0.564-0.172c-0.121-0.113-0.183-0.291-0.183-0.531
			c0-0.262,0.077-0.438,0.229-0.532s0.451-0.142,0.894-0.142h0.195v-6.262h-0.176c-0.456,0-0.767-0.052-0.933-0.155
			c-0.166-0.104-0.249-0.287-0.249-0.548c0-0.228,0.064-0.398,0.195-0.513s0.327-0.171,0.589-0.171h1.502
			c0.218,0,0.361,0.038,0.431,0.112c0.068,0.074,0.11,0.232,0.124,0.474c0.266-0.287,0.55-0.499,0.854-0.635
			c0.305-0.138,0.647-0.205,1.03-0.205c0.453,0,0.827,0.1,1.122,0.298c0.294,0.199,0.513,0.5,0.656,0.904
			c0.272-0.41,0.589-0.713,0.946-0.909c0.358-0.195,0.77-0.293,1.23-0.293c0.84,0,1.454,0.272,1.841,0.821
			c0.388,0.547,0.582,1.432,0.582,2.655v4.426h0.156c0.402,0,0.674,0.049,0.811,0.146c0.138,0.097,0.205,0.273,0.205,0.527
			c0,0.233-0.059,0.41-0.176,0.526c-0.117,0.117-0.29,0.177-0.518,0.177h-1.191c-0.264,0-0.459-0.078-0.584-0.234
			c-0.126-0.156-0.188-0.403-0.188-0.742v-4.464H45.612z"/>
		<path fill="#FFFFFF" d="M54.92,52.885h3.135c0.254,0,0.441,0.054,0.562,0.16c0.12,0.107,0.182,0.278,0.182,0.514
			c0,0.267-0.058,0.451-0.172,0.552c-0.113,0.101-0.323,0.151-0.63,0.151h-7.579c-0.26,0-0.455-0.06-0.586-0.177
			c-0.13-0.116-0.195-0.293-0.195-0.526c0-0.229,0.068-0.397,0.205-0.509c0.137-0.11,0.342-0.165,0.615-0.165h2.979v-6.262h-1.905
			c-0.267,0-0.47-0.06-0.609-0.181c-0.141-0.121-0.21-0.294-0.21-0.522c0-0.228,0.064-0.398,0.194-0.513
			c0.132-0.114,0.326-0.171,0.587-0.171h2.861c0.176,0,0.313,0.036,0.415,0.107s0.151,0.169,0.151,0.293V52.885z M53.114,42.424
			c0-0.703,0.063-1.146,0.19-1.328s0.398-0.273,0.815-0.273c0.402,0,0.671,0.077,0.801,0.229s0.195,0.516,0.195,1.089
			c0,0.56-0.062,0.906-0.182,1.04c-0.12,0.133-0.393,0.199-0.814,0.199c-0.417,0-0.688-0.062-0.815-0.186
			S53.114,42.815,53.114,42.424z"/>
		<path fill="#FFFFFF" d="M62.381,52.885v-6.262h-0.187c-0.441,0-0.746-0.052-0.912-0.156c-0.166-0.104-0.249-0.286-0.249-0.547
			c0-0.24,0.067-0.415,0.204-0.521c0.138-0.108,0.358-0.162,0.664-0.162h0.459h0.938c0.176,0,0.312,0.036,0.411,0.107
			c0.098,0.071,0.146,0.169,0.146,0.293V46.3c0.476-0.442,0.945-0.77,1.411-0.981c0.465-0.211,0.948-0.317,1.45-0.317
			c0.983,0,1.756,0.307,2.319,0.918c0.562,0.612,0.845,1.458,0.845,2.539v4.425h0.459c0.326,0,0.561,0.055,0.704,0.161
			c0.143,0.107,0.215,0.278,0.215,0.514c0,0.254-0.077,0.435-0.229,0.542c-0.152,0.106-0.426,0.161-0.815,0.161h-2.158
			c-0.417,0-0.684-0.05-0.801-0.146s-0.176-0.283-0.176-0.557c0-0.254,0.067-0.431,0.205-0.527c0.137-0.097,0.394-0.146,0.771-0.146
			h0.342v-4.063c0-0.762-0.173-1.343-0.518-1.743c-0.345-0.399-0.847-0.601-1.504-0.601c-0.664,0-1.25,0.225-1.758,0.674
			c-0.509,0.449-0.763,1.006-0.763,1.67v4.063h0.342c0.392,0,0.654,0.049,0.791,0.146c0.138,0.097,0.205,0.273,0.205,0.527
			c0,0.272-0.059,0.459-0.176,0.557s-0.404,0.146-0.858,0.146H62.38h-0.527c-0.267,0-0.467-0.058-0.601-0.172
			c-0.134-0.113-0.2-0.291-0.2-0.531c0-0.262,0.076-0.438,0.229-0.532c0.152-0.094,0.45-0.143,0.894-0.143h0.206V52.885z"/>
		<path fill="#FFFFFF" d="M78.927,52.885h3.135c0.254,0,0.441,0.054,0.562,0.16c0.121,0.107,0.182,0.278,0.182,0.514
			c0,0.267-0.058,0.451-0.172,0.552c-0.113,0.101-0.323,0.151-0.63,0.151h-7.579c-0.26,0-0.455-0.06-0.586-0.177
			c-0.13-0.116-0.195-0.293-0.195-0.526c0-0.229,0.068-0.397,0.205-0.509c0.137-0.11,0.342-0.165,0.615-0.165h2.979v-6.262h-1.904
			c-0.268,0-0.471-0.06-0.61-0.181s-0.21-0.294-0.21-0.522c0-0.228,0.065-0.398,0.195-0.513c0.131-0.114,0.325-0.171,0.586-0.171
			h2.861c0.177,0,0.313,0.036,0.415,0.107s0.151,0.169,0.151,0.293V52.885z M77.12,42.424c0-0.703,0.062-1.146,0.189-1.328
			s0.398-0.273,0.815-0.273c0.402,0,0.671,0.077,0.801,0.229s0.195,0.516,0.195,1.089c0,0.56-0.062,0.906-0.182,1.04
			c-0.12,0.133-0.393,0.199-0.814,0.199c-0.417,0-0.688-0.062-0.815-0.186S77.12,42.815,77.12,42.424z"/>
		<path fill="#FFFFFF" d="M8.663,62.453c0.318,0,0.552,0.057,0.698,0.166c0.147,0.11,0.221,0.286,0.221,0.527
			c0,0.228-0.068,0.397-0.205,0.513S9.035,63.83,8.761,63.83H4.805v3.262c0,1.068,0.139,1.771,0.415,2.11
			c0.277,0.339,0.75,0.508,1.421,0.508c0.592,0,1.302-0.173,2.129-0.518c0.827-0.346,1.338-0.519,1.534-0.519
			c0.182,0,0.337,0.064,0.464,0.195c0.127,0.13,0.19,0.289,0.19,0.479c0,0.215-0.08,0.401-0.239,0.562s-0.432,0.314-0.815,0.464
			c-0.638,0.254-1.213,0.439-1.724,0.558c-0.511,0.117-0.991,0.175-1.439,0.175c-0.763,0-1.401-0.122-1.92-0.366
			c-0.518-0.244-0.902-0.607-1.156-1.089c-0.13-0.229-0.224-0.498-0.278-0.812c-0.056-0.312-0.083-0.795-0.083-1.444v-0.305v-3.262
			H1.641c-0.272,0-0.472-0.054-0.596-0.161c-0.124-0.106-0.186-0.28-0.186-0.521c0-0.268,0.084-0.449,0.254-0.547
			c0.171-0.099,0.531-0.146,1.085-0.146h1.104v-2.002v-0.519c0-0.279,0.06-0.486,0.181-0.62c0.121-0.133,0.309-0.2,0.562-0.2
			c0.287,0,0.484,0.082,0.596,0.244c0.111,0.163,0.166,0.534,0.166,1.114v1.981L8.663,62.453L8.663,62.453z"/>
		<path fill="#FFFFFF" d="M17.043,69.553h3.243c0.254,0,0.44,0.054,0.562,0.16c0.121,0.107,0.181,0.278,0.181,0.514
			c0,0.267-0.057,0.451-0.171,0.552c-0.113,0.101-0.323,0.151-0.63,0.151H13.84c-0.254,0-0.446-0.06-0.577-0.177
			c-0.131-0.116-0.195-0.293-0.195-0.526c0-0.229,0.067-0.397,0.2-0.508c0.134-0.11,0.34-0.166,0.621-0.166h1.699v-6.262h-0.664
			c-0.632,0-1.025-0.051-1.182-0.15c-0.156-0.102-0.234-0.285-0.234-0.553c0-0.228,0.062-0.398,0.19-0.513
			c0.127-0.114,0.32-0.171,0.581-0.171h2.228c0.176,0,0.309,0.034,0.4,0.103c0.091,0.069,0.137,0.167,0.137,0.299v1.659
			c0.619-0.773,1.263-1.351,1.934-1.729c0.67-0.378,1.394-0.566,2.168-0.566c0.579,0,1.048,0.117,1.406,0.353
			c0.358,0.233,0.537,0.537,0.537,0.908c0,0.24-0.089,0.454-0.27,0.64c-0.18,0.186-0.376,0.278-0.591,0.278
			c-0.149,0-0.401-0.101-0.757-0.298c-0.354-0.198-0.672-0.299-0.953-0.299c-0.508,0-1.043,0.182-1.605,0.542
			c-0.563,0.361-1.188,0.934-1.871,1.714L17.043,69.553L17.043,69.553z"/>
		<path fill="#FFFFFF" d="M32.251,69.69c-0.534,0.48-1.115,0.85-1.743,1.104s-1.275,0.381-1.939,0.381
			c-0.97,0-1.753-0.271-2.349-0.811s-0.894-1.244-0.894-2.109c0-1.028,0.396-1.826,1.187-2.394c0.791-0.566,1.903-0.85,3.335-0.85
			c0.377,0,0.758,0.023,1.144,0.072c0.385,0.049,0.777,0.126,1.182,0.229v-0.067c0-0.748-0.179-1.302-0.537-1.66
			c-0.358-0.357-0.915-0.537-1.67-0.537c-0.508,0-1.075,0.138-1.7,0.41c-0.625,0.273-1.039,0.41-1.24,0.41
			c-0.188,0-0.345-0.076-0.469-0.229c-0.124-0.153-0.186-0.351-0.186-0.592c0-0.384,0.358-0.71,1.079-0.977
			c0.719-0.268,1.639-0.4,2.759-0.4c1.146,0,2.012,0.291,2.598,0.874s0.879,1.443,0.879,2.583v4.426h0.479
			c0.462,0,0.771,0.049,0.928,0.146s0.234,0.273,0.234,0.527c0,0.233-0.065,0.41-0.195,0.526c-0.13,0.117-0.326,0.177-0.586,0.177
			h-1.533c-0.183,0-0.333-0.057-0.45-0.166c-0.117-0.11-0.194-0.271-0.233-0.479L32.251,69.69z M32.173,66.613
			c-0.358-0.117-0.705-0.203-1.04-0.259s-0.669-0.083-1.001-0.083c-1.003,0-1.794,0.17-2.374,0.508
			c-0.58,0.339-0.869,0.795-0.869,1.368c0,0.441,0.181,0.807,0.542,1.094c0.361,0.286,0.822,0.43,1.382,0.43
			c0.827,0,1.595-0.217,2.3-0.648c0.707-0.435,1.061-0.884,1.061-1.354V66.613z"/>
		<path fill="#FFFFFF" d="M37.534,63.293c-0.431,0-0.725-0.052-0.885-0.155c-0.159-0.104-0.238-0.286-0.238-0.548
			c0-0.228,0.064-0.398,0.194-0.513s0.326-0.171,0.586-0.171h2.735c0.371,0,0.619,0.05,0.742,0.151
			c0.124,0.101,0.186,0.277,0.186,0.531c0,0.262-0.082,0.442-0.244,0.548c-0.161,0.104-0.462,0.155-0.897,0.155h-0.361l2.54,6.319
			l2.822-6.319h-0.586c-0.501,0-0.84-0.051-1.017-0.15c-0.176-0.101-0.264-0.285-0.264-0.553c0-0.254,0.062-0.432,0.187-0.531
			c0.124-0.103,0.37-0.151,0.741-0.151h3.02c0.26,0,0.455,0.057,0.586,0.171c0.13,0.113,0.195,0.285,0.195,0.513
			c0,0.262-0.08,0.442-0.239,0.548c-0.16,0.104-0.454,0.155-0.885,0.155h-0.177l-3.223,7.12c-0.163,0.358-0.324,0.591-0.483,0.698
			s-0.393,0.161-0.697,0.161c-0.28,0-0.497-0.052-0.65-0.156c-0.153-0.104-0.311-0.339-0.474-0.703L37.534,63.293z"/>
		<path fill="#FFFFFF" d="M50.71,66.847c0.053,0.938,0.37,1.662,0.953,2.174c0.582,0.511,1.378,0.767,2.388,0.767
			c0.762,0,1.592-0.203,2.49-0.609c0.897-0.407,1.441-0.61,1.631-0.61c0.195,0,0.357,0.062,0.488,0.186
			c0.131,0.123,0.195,0.276,0.195,0.459c0,0.188-0.067,0.361-0.206,0.519c-0.137,0.156-0.354,0.31-0.653,0.459
			c-0.65,0.318-1.323,0.562-2.018,0.731c-0.693,0.169-1.382,0.255-2.064,0.255c-1.484,0-2.673-0.429-3.565-1.284
			c-0.892-0.856-1.338-1.991-1.338-3.404c0-1.438,0.472-2.604,1.416-3.496s2.175-1.338,3.692-1.338c1.374,0,2.513,0.416,3.418,1.25
			c0.904,0.833,1.357,1.843,1.357,3.027c0,0.364-0.077,0.608-0.229,0.731c-0.152,0.124-0.567,0.187-1.245,0.187h-0.146H50.71V66.847
			z M50.759,65.568h6.358c-0.099-0.774-0.422-1.398-0.973-1.87c-0.55-0.472-1.226-0.708-2.025-0.708
			c-0.866,0-1.597,0.229-2.188,0.684C51.339,64.13,50.948,64.761,50.759,65.568z"/>
		<path fill="#FFFFFF" d="M65.361,59.552H63.7c-0.633,0-1.027-0.051-1.188-0.151c-0.159-0.102-0.239-0.284-0.239-0.552
			c0-0.234,0.067-0.41,0.2-0.527c0.134-0.117,0.327-0.176,0.581-0.176h3.224c0.177,0,0.312,0.036,0.41,0.106
			c0.099,0.072,0.146,0.17,0.146,0.293v11.009H69.9c0.248,0,0.43,0.054,0.542,0.16c0.114,0.107,0.171,0.278,0.171,0.514
			c0,0.267-0.055,0.451-0.166,0.552c-0.109,0.101-0.317,0.151-0.625,0.151h-7.207c-0.255,0-0.447-0.06-0.581-0.177
			c-0.134-0.116-0.2-0.293-0.2-0.526c0-0.229,0.067-0.397,0.205-0.508c0.137-0.111,0.342-0.166,0.614-0.166h2.706V59.552H65.361z"/>
		<path fill="#FFFFFF" d="M73.76,70.227v-1.738c0-0.287,0.054-0.492,0.161-0.615c0.106-0.124,0.282-0.186,0.521-0.186
			c0.269,0,0.479,0.182,0.636,0.547c0.104,0.221,0.198,0.387,0.282,0.498c0.274,0.352,0.679,0.633,1.213,0.845
			c0.532,0.212,1.122,0.317,1.768,0.317c0.69,0,1.243-0.141,1.66-0.42c0.417-0.28,0.625-0.648,0.625-1.104
			c0-0.463-0.168-0.791-0.503-0.985c-0.335-0.196-0.91-0.295-1.725-0.295h-0.537c-1.327,0-2.341-0.229-3.037-0.692
			c-0.696-0.462-1.046-1.133-1.046-2.012c0-0.859,0.342-1.526,1.021-2.002c0.681-0.477,1.637-0.714,2.867-0.714
			c0.501,0,1.012,0.069,1.533,0.21c0.521,0.141,0.794,0.21,0.819,0.21c0.071,0,0.208-0.062,0.41-0.189s0.4-0.19,0.596-0.19
			c0.223,0,0.387,0.081,0.493,0.244c0.107,0.162,0.161,0.407,0.161,0.732v1.143c0,0.346-0.052,0.596-0.156,0.747
			c-0.104,0.153-0.27,0.229-0.498,0.229c-0.194,0-0.437-0.166-0.723-0.498c-0.202-0.229-0.368-0.4-0.498-0.519
			c-0.345-0.318-0.713-0.549-1.104-0.688c-0.392-0.14-0.851-0.21-1.377-0.21c-0.612,0-1.105,0.135-1.479,0.404
			c-0.375,0.271-0.562,0.613-0.562,1.03c0,0.41,0.191,0.703,0.576,0.879s1.211,0.277,2.48,0.304
			c1.354,0.032,2.344,0.269,2.969,0.708c0.625,0.438,0.938,1.117,0.938,2.036c0,0.879-0.346,1.582-1.035,2.109
			c-0.69,0.527-1.621,0.791-2.793,0.791c-0.371,0-0.785-0.034-1.24-0.103c-0.456-0.068-1.029-0.185-1.72-0.348
			c-0.229,0.149-0.423,0.262-0.586,0.337c-0.162,0.075-0.299,0.112-0.41,0.112c-0.229,0-0.401-0.08-0.522-0.239
			C73.821,70.757,73.76,70.527,73.76,70.227z"/>
	</g>
	<g>
		<line fill="none" x1="0.34" y1="36.969" x2="84.744" y2="36.969"/>
		<g>
			<g>
				<g opacity="0.9">
					<g opacity="0.9">
						<path fill="#FFFFFF" d="M67.376,35.732c-0.327-0.309-4.491-0.345-5.027-0.419c-1.208-0.124-4.004-0.015-6.499,0.107
							c-1.244,0.063-2.427,0.124-3.282,0.167c-0.861,0.041-1.414,0.058-1.418,0.022c0.092-0.197-1.926-1.134-2.802-1.178
							c-2.146-0.12-4.262,0.042-6.036,0.353c-0.878,0.136-1.005,0.232-1.397,0.201c-0.16-0.004-0.604,0.355-1.752,0.544
							c-0.79,0.118-1.828,0.069-2.545,0.21c-1.397,0.201-5.863,0.4-7.416,0.515c-2.956,0.22-4.442,0.258-6.751,0.134
							c-1.735-0.128-3.167-0.027-4.94-0.077c-1.873-0.007-3.176-0.014-5.048-0.021c-1.754-0.089-3.365-0.133-5.245-0.125
							c-0.251,0.014-0.502,0.026-0.681,0.062c-0.182,0.035-0.663,0.021-0.914,0.035C4.101,36.2,2.724,36.001,1.237,36.04
							c-0.411,0.009-1.021,0.092-0.896,0.175c0.623,0.417,1.785,0.73,3.125,1.008c1.27,0.255,2.9,0.26,4.581,0.326
							c2.328,0.084,3.971,0.591,5.13,1.083c0.804,0.383,1.424,0.98,3.395,0.955c2.311-0.056,4.406-0.357,6.769-0.172
							c1.646,0.146,2.97,0.282,4.653,0.35c0.232,0.026,1.182,0.093,1.503,0.102c1.897-0.047,4.115,0.094,5.427-0.27
							c2.096-0.122,3.169,0.027,4.836-0.227c2.115-0.341,4.249-0.723,6.738-0.813c1.415-0.062,2.723-0.064,4.082-0.008
							c0.482,0.015,2.197,0.361,2.717,0.477c0.967,0.207,2.418,0.066,3.386-0.086c1.524-0.298,3.084-0.495,4.946-0.645
							c0.663-0.021,1.271,0.075,2.005,0.076c1.736-0.052,2.992-0.297,4.514-0.415c5.68-0.205,4.91-0.384,5.144-0.357
							c0.571-0.004,0.804,0.201,1.519,0.241c0.968,0.027,1.917-0.087,2.546-0.209c1.863-0.328,4.141-0.666,6.502-0.479
							c-0.143-0.044-0.195-0.105-0.355-0.11c-3.312-0.252-5.957-0.706-9.484-0.663c-0.341,0.03-0.771,0.079-1.183,0.087
							c-0.734,0-1.397,0.021-2.06,0.043C69.626,36.515,67.66,36,67.376,35.732z"/>
						<path opacity="0.9" fill="#FFFFFF" enable-background="new    " d="M8.091,37.541c-1.683-0.066-3.312-0.071-4.581-0.327
							c-1.341-0.277-2.501-0.59-3.125-1.008c-0.126-0.083,0.484-0.167,0.896-0.175c1.485-0.039,2.862,0.159,4.385,0.222
							c0.25-0.013,0.733,0,0.914-0.034c0.179-0.035,0.43-0.049,0.681-0.062c1.881-0.008,3.491,0.037,5.245,0.125
							c1.873,0.007,3.176,0.013,5.049,0.021c1.772,0.049,3.205-0.052,4.941,0.076c2.309,0.124,3.795,0.085,6.751-0.133
							c1.552-0.115,6.018-0.312,7.416-0.515c0.718-0.141,1.755-0.092,2.543-0.209c0,0,0.575,0.152,1.844,0.409l-13.953,1.526
							L8.091,37.541z"/>
						<path fill="#FFFFFF" d="M39.277,35.881c0,0,6.263-0.733,5.646,0.069c0,0-4.993,1.983-8.521,2.025c0,0-2.521,0.048-3.867,0.072
							c0,0-2.38-0.326-5.084-0.12c0,0-10.837,0.5-11.604,0.219c0,0-4.421-0.144-5.547-0.354c0,0-1.698-0.567-3.684-0.502
							c0,0-6.013-0.587-2.95-0.682c0,0,1.772-0.131,2.687-0.166c0,0,12.944,0.239,13.676,0.419
							C20.029,36.861,34.18,37.561,39.277,35.881z"/>
						<path fill="#FFFFFF" d="M39.488,35.66c0,0,4.06-0.9,6.292-0.259c0,0,6.554,0.754,4.615,1.241c0,0-7.568,1.912-14.392,2.022
							c0,0-0.734,0-2.098,0.302c0,0-3.654,0.319-5.262-0.086c0,0-4.562-0.547-6.567-0.441c0,0-1.645-0.326-2.774-0.177
							c0,0,11.16-0.672,12.535-0.293c0,0,5.01,0.459,10.159-0.979C41.996,36.99,43.532,35.912,39.488,35.66z"/>
						<path fill="#FFFFFF" d="M42.904,34.561c0.718-0.142,1.453-0.32,2.242-0.438c0.43-0.048,1.074-0.029,1.576-0.056
							c0.662-0.021,1.36,0.058,1.825,0.111c2.129,0.339,5.518,0.346,7.357,0.776c0.305,0.049,0.537,0.075,0.859,0.084
							c0.112-0.015,0.406-0.052,0.52-0.065c0.984-0.014,1.951,0.014,2.864-0.021c1.505-0.079,2.973,0.103,4.349,0.301
							c0.77,0.102,1.72,0.167,2.578,0.251c1.483,0.142,1.588,0.625,3.02,0.704c2.291,0.164,4.316-0.16,6.624-0.036
							c1.343,0.098,2.541,0.15,3.776,0.306c0.912,0.146,1.932,0.232,2.933,0.36c0.233,0.026,0.805,0.202,0.786,0.242
							c-0.108,0.058-0.663,0.021-1.002,0.052c-0.934,0.074-1.396-0.158-2.004-0.256c-0.771-0.101-1.772-0.049-2.738-0.076
							c-0.395-0.03-0.698-0.079-1.073-0.149c-0.519-0.114-1.289-0.035-2.041,0.004c-0.932,0.074-1.916-0.093-2.898-0.081
							c-1.309,0.004-2.402,0.253-3.493,0.144c0.93,0.105-4.012,0.029-3.008-0.022c-0.09,0.018-0.376-0.07-0.431-0.132
							c0.021-0.039-0.033-0.102,0.057-0.118c0.718-0.141,0.665-0.382,0.918-0.575c-0.071-0.021-2.668-0.054-3.652-0.221
							c-0.749-0.142-1.411-0.299-2.378-0.326c-0.25,0.013-0.376,0.11-0.628,0.123c-0.572,0.004-7.424,0.782-8.21,0.72
							c-0.466-0.053-1.056-0.188-0.93-0.286c0.128-0.276-0.714-0.399-1.017-0.629c-0.053-0.061,0.146-0.136,0.092-0.197
							c-0.25-0.167-0.731-0.36-1.285-0.396c-0.932-0.106-2.06-0.137-2.9-0.081L42.904,34.561z"/>
						<path fill="none" d="M18.281,39.505c0,0,3.44-0.385,6.856,0.08c0,0,2.872,0.229,3.5,0.197l0.938,0.086
							c0,0,4.489,0.06,5.303-0.264c0,0,2.176-0.12,2.516-0.061c0,0,1.736,0.038,3.871-0.433"/>
						<path fill="#FFFFFF" d="M61.535,34.776c0.738,0.048,4.245,0.345,5.199,0.518c1.466,0.263,2.874,0.514,4.423,0.79
							c0.154,0.019,0.369,0.024,0.488,0c0.944-0.16,2.09-0.049,2.997-0.13c0.395-0.029,0.753-0.1,1.184-0.087
							c2.255,0.062,4.329,0.28,6.261,0.574c0.811,0.129,1.49,0.309,2.289,0.464c0.143,0.044,0.393,0.091,0.368,0.144
							c0.035,0.041-0.334,0.019-0.531,0.032c-0.232-0.025-0.423-0.085-0.731-0.12c-0.562-0.083-1.266-0.089-1.767-0.183
							c-0.562-0.083-1.001-0.188-1.621-0.258c-0.418-0.039-0.788-0.062-1.217-0.074c-1.539-0.083-3.043-0.124-4.571-0.113
							c-0.609,0.144-1.539,0.038-2.244,0.031c-0.215-0.006-0.418-0.038-0.679-0.059c-0.646-0.019-1.326,0.043-1.767-0.062
							c-0.869-0.238-1.753-0.449-2.812-0.625c-0.858-0.144-4.496-0.511-5.449-0.564c-1.266-0.089-2.508,0.011-3.735-0.037
							C57.511,35.012,58.492,34.646,61.535,34.776z"/>
					</g>
				</g>
			</g>
		</g>
	</g>
</g>
<g id="Layer_2" display="none">
</g>
</svg>
