<?xml version="1.0" encoding="utf-8"?>
<!-- Generator: Adobe Illustrator 16.0.0, SVG Export Plug-In . SVG Version: 6.00 Build 0)  -->
<!DOCTYPE svg PUBLIC "-//W3C//DTD SVG 1.1//EN" "http://www.w3.org/Graphics/SVG/1.1/DTD/svg11.dtd">
<svg version="1.1" id="Layer_1" xmlns="http://www.w3.org/2000/svg" xmlns:xlink="http://www.w3.org/1999/xlink" x="0px" y="0px"
	 width="225.379px" height="140.913px" viewBox="0 0 225.379 140.913" enable-background="new 0 0 225.379 140.913"
	 xml:space="preserve">
<g opacity="0.2">
	<path fill="#E5CA9D" d="M27.18,54.74c-7.614,0-13.789,6.173-13.789,13.79v113.017c0,7.617,6.174,13.792,13.789,13.792h16.056V54.74
		H27.18z"/>
	<path fill="#E5CA9D" d="M198.096,54.74h-16.059v140.599h16.059c7.614,0,13.789-6.175,13.789-13.792V68.53
		C211.885,60.913,205.71,54.74,198.096,54.74z"/>
	<path fill="#E5CA9D" d="M139.799,54.74v-2.385c0-0.015-0.008-0.031-0.008-0.047c-0.119-12.904-12.297-23.403-27.153-23.403
		c-14.858,0-27.038,10.5-27.148,23.407l0,2.428H53.932v140.599h117.413V54.74H139.799z M95.74,52.355
		c0.079-7.25,7.652-13.183,16.898-13.183c9.245,0,16.821,5.935,16.887,13.229c0,0,0,0.894,0,2.338H95.74
		C95.74,53.261,95.74,52.355,95.74,52.355z"/>
	<path fill="#E5CA9D" d="M168.019,18.528l-5.793,8.358l2.41,7.293l9.631,3.252l26.443-8.74L194.459,9.79L168.019,18.528z
		 M169.886,30.801c-1.197,0.397-2.486-0.252-2.881-1.453c-0.399-1.199,0.251-2.486,1.448-2.881c1.2-0.398,2.489,0.251,2.886,1.449
		C171.736,29.116,171.083,30.407,169.886,30.801z"/>
	<g>
		<path fill="#E5CA9D" d="M159.021,30.336l-5.583-0.218c-3.981-0.371-8.494-0.79-12.333,1.046c-5.476,2.617-8.29,8.491-8.408,8.74
			l2.322,1.094c0.024-0.05,2.561-5.303,7.194-7.52c3.198-1.529,7.159-1.161,10.987-0.806l6.069,0.217
			c4.883-0.478,6.132-2.255,6.333-2.607l-2.181-1.351C163.415,28.944,162.559,29.992,159.021,30.336z"/>
	</g>
</g>
</svg>
