<?xml version="1.0" encoding="utf-8"?>
<!-- Generator: Adobe Illustrator 16.0.0, SVG Export Plug-In . SVG Version: 6.00 Build 0)  -->
<!DOCTYPE svg PUBLIC "-//W3C//DTD SVG 1.1//EN" "http://www.w3.org/Graphics/SVG/1.1/DTD/svg11.dtd">
<svg version="1.1" id="Layer_1" xmlns="http://www.w3.org/2000/svg" xmlns:xlink="http://www.w3.org/1999/xlink" x="0px" y="0px"
	 width="45.582px" height="40.461px" viewBox="0 0 45.582 40.461" enable-background="new 0 0 45.582 40.461" xml:space="preserve">
<g id="Layer_2" display="none">
	<rect display="inline" width="331" height="78"/>
</g>
<g id="Layer_3">
</g>
<g id="Layer_1_1_">
	<g>
		<path fill="#E5CA9D" enable-background="new    " d="M5.89-1.364c0,0,4.744,5.148,6.097,7.664
			c2.615,4.871,0.404,1.497,0.404,1.497S5.086,0.299,4.118-1.688L5.89-1.364z"/>
		<path fill="#E5CA9D" enable-background="new    " d="M13.43,9.09c0,0-0.551-0.781,0.562-3.026c1.115-2.245,1.64-3.614,2.816-5.367
			C17.985-1.059,18.71-1.65,18.71-1.65s-0.942,2.022,0.255,2.771c1.196,0.746,1.551,1.064,2.399,0.655
			c0.849-0.408,1.282-0.826,1.773-1.691c0.488-0.865,1.519-2.198,1.373-1.778c-0.146,0.417-0.212,1.08,0.295,1.113
			c0.504,0.033,2.16,0.071,3.538-0.104c1.382-0.178,0.737,0.655,2.189-0.882c1.454-1.539,2.057-2.317,2.057-2.317
			s-0.774,1-1.235,2.862c-0.463,1.862,0.256,2.771,0.256,2.771s-0.944,0.422-1.354,1.523c-0.409,1.107-1.394,1.401-0.776,2.154
			c0.356,0.436-0.761,1.098-0.761,1.098s2.98,2.922,5.784,2.162c2.805-0.762,4.85-1.226,4.364-0.711
			c-0.487,0.511-0.919,0.265-1.384,1.68c-0.474,1.412,0.346,2.307,0.802,2.748c0.454,0.444,2.114,1.282,2.114,1.282
			s-0.903,0.366-0.365,1.047c0.537,0.684,5.045,3.705,5.045,3.705s-3.699-1.424-5.18-0.883c-1.484,0.54-2.785,0.158-3.125,1.402
			c-0.342,1.243-0.256,2.286-0.256,2.286s-0.507-1.989-2.192-1.873c-1.688,0.117-1.966-0.099-1.957,0.352
			c0.008,0.451,0.226,0.973,0.226,0.973s-1.414-1.268-2.572-1.721c-1.16-0.451-2.521-0.525-3.334-0.623
			c-0.815-0.095-2.355-0.398-2.355-0.398s1.376,1.848,1.896,3.031c0.888,1.109,1.676,1.302,2.226,2.08
			c0.554,0.781,2.831,0.693,2.831,0.693s-1.021,0.235-1.588,0.785c-0.348,0.794,0.921,2.486,1.387,3.023
			c0.473,0.541,2.561,1.975,2.561,1.975s-1.35-0.775-2.277,0.193c-0.93,0.969-1.021,1.783-0.912,2.672
			c0.115,0.885,0.998,1.923,0.669,2.464c-0.333,0.545-0.894,1.616-0.894,1.616l0.806,2.09c0,0-1.151-1.645-2.382-1.885
			c-1.233-0.24-1.682-0.232-2.152-0.775c-0.469-0.539-0.99-1.475-1.66-0.839c-0.668,0.638-0.962,1.478-0.976,1.729
			c-0.021,0.25,0.272,1.364,0.272,1.364s-1.048-2.317-1.206-3.149c-0.158-0.83-1.492-1.858-1.592-2.646
			c-0.103-0.789-0.356-1.607-0.97-0.927c-0.614,0.68-0.773,1.001-0.773,1.001s0.464-1.061-0.041-1.899
			c-1.201-4.004-2.662-6.897-3.677-6.62c-1.012,0.282-2.073,3.102-2.487,4.557s-0.249,4.068-0.457,4.793
			c-0.207,0.729-0.322,2.943-0.327,3.295c-0.004,0.354-0.145-0.729-1.016-0.518c-0.876,0.211-2.229,0.586-2.867,1.869
			c-0.632,1.284-0.273,2.538-0.273,2.538s0.014-0.377-0.807-2.399c-0.753-1.854-1.34-2.631-1.941-1.854
			c-0.601,0.778,0,0-0.034-1.445C5.635,33.318,5.365,32.4,4.302,32.29c-1.064-0.115-2.684,0.144-2.684,0.144
			s1.053-1.139,1.086-2.441c0.034-1.305,1.939-2.415,2.292-3.564c0.354-1.145,0.082-2.186,0.742-3.271
			c0.661-1.087-1.662-0.798-2.621-0.474c-0.96,0.324-2.514-0.08-3.218-0.088c-0.699-0.011-1.485,0.893-1.485,0.893
			s1.125-1.344-0.285-1.012c-1.408,0.328-3.168,0.657-3.695,1.225c-0.528,0.57,1.787-1.281,2.285-2.85
			c0.501-1.563,0.659-1.885,0.396-2c-0.266-0.116,0.166,0.128,1-1.179c0.832-1.308,1.768-1.829,1.363-2.227
			c-0.403-0.399-0.534-1.032-0.534-1.032s2.379-1.357,3.459-2.3c1.082-0.94,1.637-1.311,1.683-1.719
			C4.134,9.987,3.128,8.766,3.253,8.6c0.13-0.167,3.883-1.351,5.742-0.889C10.861,8.167,13.43,9.09,13.43,9.09z"/>
	</g>
</g>
</svg>
