<?xml version="1.0" encoding="utf-8"?>
<!-- Generator: Adobe Illustrator 16.0.0, SVG Export Plug-In . SVG Version: 6.00 Build 0)  -->
<!DOCTYPE svg PUBLIC "-//W3C//DTD SVG 1.1//EN" "http://www.w3.org/Graphics/SVG/1.1/DTD/svg11.dtd">
<svg version="1.1" id="Layer_1" xmlns="http://www.w3.org/2000/svg" xmlns:xlink="http://www.w3.org/1999/xlink" x="0px" y="0px"
	 width="45.582px" height="40.461px" viewBox="0 0 45.582 40.461" enable-background="new 0 0 45.582 40.461" xml:space="preserve">
<g id="Layer_2" display="none">
	<rect display="inline" width="331" height="78"/>
</g>
<g id="Layer_3">
</g>
<g id="Layer_1_1_" opacity="0.4">
	<g>
		<path fill="#E5CA9D" d="M5.89-1.364c0,0,4.744,5.148,6.097,7.664c2.615,4.871,0.404,1.497,0.404,1.497S5.086,0.299,4.118-1.688
			L5.89-1.364z"/>
		<path fill="#E5CA9D" d="M13.43,9.09c0,0-0.551-0.781,0.562-3.026c1.115-2.245,1.64-3.614,2.816-5.367
			C17.985-1.059,18.71-1.65,18.71-1.65s-0.942,2.022,0.255,2.771c1.196,0.746,1.551,1.064,2.399,0.655
			c0.849-0.408,1.282-0.826,1.773-1.691c0.488-0.865,1.519-2.198,1.373-1.778c-0.146,0.417-0.212,1.08,0.295,1.113
			c0.504,0.033,2.16,0.071,3.538-0.104c1.382-0.178,0.737,0.655,2.189-0.882c1.454-1.539,2.057-2.317,2.057-2.317
			s-0.774,1-1.235,2.862c-0.463,1.862,0.256,2.771,0.256,2.771s-0.943,0.422-1.354,1.523c-0.408,1.107-1.395,1.401-0.775,2.154
			c0.355,0.436-0.762,1.098-0.762,1.098s2.98,2.922,5.784,2.162c2.806-0.762,4.851-1.226,4.364-0.711
			c-0.487,0.511-0.92,0.265-1.385,1.68c-0.474,1.412,0.347,2.307,0.803,2.748c0.453,0.444,2.113,1.282,2.113,1.282
			s-0.902,0.366-0.364,1.047c0.536,0.684,5.045,3.705,5.045,3.705s-3.699-1.424-5.181-0.883c-1.483,0.54-2.785,0.158-3.125,1.402
			c-0.342,1.243-0.256,2.286-0.256,2.286s-0.507-1.989-2.191-1.873c-1.688,0.117-1.967-0.099-1.957,0.352
			c0.008,0.451,0.227,0.973,0.227,0.973s-1.414-1.268-2.572-1.721c-1.16-0.451-2.521-0.525-3.334-0.623
			c-0.815-0.095-2.355-0.398-2.355-0.398s1.376,1.848,1.896,3.031c0.888,1.108,1.676,1.302,2.226,2.08
			c0.554,0.781,2.831,0.692,2.831,0.692s-1.021,0.235-1.588,0.785c-0.348,0.794,0.921,2.485,1.387,3.022
			c0.473,0.541,2.561,1.976,2.561,1.976s-1.35-0.774-2.276,0.192c-0.931,0.97-1.021,1.783-0.912,2.672
			c0.114,0.886,0.998,1.924,0.669,2.465c-0.333,0.545-0.895,1.615-0.895,1.615l0.807,2.091c0,0-1.15-1.646-2.382-1.886
			c-1.233-0.239-1.683-0.231-2.152-0.774c-0.469-0.539-0.989-1.476-1.659-0.839c-0.669,0.638-0.963,1.479-0.977,1.729
			c-0.021,0.25,0.271,1.364,0.271,1.364s-1.048-2.317-1.206-3.149c-0.158-0.83-1.492-1.857-1.592-2.646
			c-0.103-0.789-0.356-1.606-0.97-0.927c-0.614,0.68-0.773,1.001-0.773,1.001s0.464-1.062-0.041-1.899
			c-1.201-4.004-2.662-6.896-3.677-6.619c-1.012,0.281-2.073,3.102-2.487,4.557s-0.249,4.068-0.457,4.793
			c-0.207,0.729-0.322,2.943-0.327,3.295c-0.004,0.354-0.145-0.729-1.016-0.518c-0.876,0.211-2.229,0.586-2.867,1.868
			c-0.632,1.284-0.273,2.538-0.273,2.538s0.014-0.377-0.807-2.398c-0.753-1.854-1.34-2.631-1.941-1.854
			c-0.601,0.778,0,0-0.034-1.444C5.635,33.318,5.365,32.4,4.302,32.29c-1.064-0.115-2.684,0.144-2.684,0.144s1.053-1.139,1.086-2.44
			c0.034-1.306,1.939-2.415,2.292-3.563c0.354-1.146,0.082-2.187,0.742-3.271c0.661-1.088-1.662-0.799-2.621-0.475
			c-0.96,0.324-2.514-0.08-3.218-0.088c-0.699-0.011-1.485,0.894-1.485,0.894s1.125-1.345-0.285-1.013
			c-1.408,0.328-3.168,0.657-3.695,1.226c-0.528,0.569,1.787-1.281,2.285-2.851c0.501-1.562,0.659-1.885,0.396-2
			c-0.266-0.116,0.166,0.128,1-1.179c0.832-1.308,1.768-1.829,1.363-2.227c-0.403-0.399-0.534-1.032-0.534-1.032
			s2.379-1.357,3.459-2.3c1.082-0.94,1.637-1.311,1.683-1.719C4.134,9.987,3.128,8.766,3.253,8.6
			c0.13-0.167,3.883-1.351,5.742-0.889C10.861,8.167,13.43,9.09,13.43,9.09z"/>
	</g>
</g>
</svg>
