<?xml version="1.0" encoding="utf-8"?>
<!-- Generator: Adobe Illustrator 16.0.0, SVG Export Plug-In . SVG Version: 6.00 Build 0)  -->
<!DOCTYPE svg PUBLIC "-//W3C//DTD SVG 1.1//EN" "http://www.w3.org/Graphics/SVG/1.1/DTD/svg11.dtd">
<svg version="1.1" id="Layer_1" xmlns="http://www.w3.org/2000/svg" xmlns:xlink="http://www.w3.org/1999/xlink" x="0px" y="0px"
	 width="45.582px" height="40.461px" viewBox="0 0 45.582 40.461" enable-background="new 0 0 45.582 40.461" xml:space="preserve">
<g id="Layer_2" display="none">
	<rect display="inline" width="331" height="78"/>
</g>
<g id="Layer_3">
</g>
<g id="Layer_1_1_" opacity="0.2">
	<g>
		<path fill="#E5CA9D" d="M15.6-4.569c0,0,2.017,5.062,2.301,7.266c0.546,4.269-0.122,1.201-0.122,1.201s-3.226-7.481-3.377-9.195
			L15.6-4.569z"/>
		<path fill="#E5CA9D" d="M18.174,5.127c0,0-0.184-0.721,1.25-2.043c1.435-1.322,2.197-2.171,3.54-3.119
			c1.343-0.949,2.034-1.177,2.034-1.177s-1.246,1.208-0.585,2.084c0.662,0.876,0.832,1.206,1.562,1.144
			c0.731-0.061,1.164-0.244,1.76-0.737c0.596-0.493,1.716-1.175,1.492-0.91c-0.224,0.262-0.455,0.727-0.096,0.891
			c0.355,0.164,1.551,0.652,2.602,0.908c1.054,0.254,0.354,0.682,1.836-0.033c1.486-0.713,2.141-1.112,2.141-1.112
			s-0.841,0.512-1.693,1.737C33.16,3.985,33.43,4.845,33.43,4.845s-0.802,0.046-1.406,0.732c-0.604,0.691-1.403,0.63-1.164,1.35
			C30.996,7.342,30,7.513,30,7.513s1.354,2.953,3.604,3.18c2.252,0.226,3.867,0.457,3.371,0.696
			c-0.498,0.235-0.744-0.063-1.475,0.836c-0.736,0.894-0.389,1.773-0.18,2.22c0.205,0.449,1.179,1.521,1.179,1.521
			s-0.757,0.014-0.556,0.659c0.199,0.647,2.638,4.095,2.638,4.095s-2.294-2.062-3.521-2.082c-1.229-0.019-2.068-0.658-2.662,0.151
			c-0.594,0.807-0.821,1.591-0.821,1.591s0.185-1.588-1.072-1.97c-1.259-0.385-1.401-0.619-1.521-0.289
			c-0.118,0.33-0.105,0.771-0.105,0.771s-0.674-1.316-1.393-1.967c-0.717-0.649-1.686-1.082-2.248-1.379
			c-0.565-0.295-1.602-0.944-1.602-0.944s0.487,1.726,0.536,2.731c0.339,1.052,0.856,1.413,1.04,2.131
			c0.186,0.723,1.865,1.289,1.865,1.289s-0.809-0.112-1.372,0.131c-0.476,0.48-0.021,2.062,0.169,2.58
			c0.193,0.525,1.312,2.15,1.312,2.15s-0.769-0.938-1.707-0.494c-0.947,0.446-1.238,1.012-1.406,1.688
			c-0.163,0.678,0.191,1.678-0.198,1.979c-0.394,0.304-1.101,0.924-1.101,0.924l0.004,1.747c0,0-0.377-1.517-1.205-2.035
			c-0.83-0.516-1.161-0.635-1.35-1.159c-0.191-0.522-0.308-1.35-0.973-1.072C18.588,27.471,18.14,28,18.06,28.177
			c-0.083,0.177-0.182,1.066-0.182,1.066s-0.118-1.976-0.002-2.624s-0.569-1.766-0.421-2.366c0.144-0.603,0.187-1.265-0.447-0.944
			c-0.636,0.324-1.593,0.235-1.593,0.235s1.44-1.31,1.306-2.058c0.24-3.243-0.073-4.811-0.889-4.889
			c-0.813-0.079-2.37,1.679-3.075,2.621c-0.706,0.943-1.312,2.888-1.665,3.357c-0.353,0.472-0.45,1.964-0.552,2.218
			c-0.101,0.256-1.117-2.053-1.5-1.812c-0.695-0.09-1.014-0.09-2.375,1.209C5.85,24.947,4.5,26.564,4.5,26.564
			s0.327-0.89,0.292-2.584c-0.032-1.559-0.805-1.688-1.458-1.291C2.68,23.088,3.999,22.04,4.375,20.98
			c0.373-1.063,1.118-2.166,0.375-2.542c-0.741-0.379-3.5-0.5-3.5-0.5s3.112-0.78,4.042-1.458c1.083-0.792,1.8-1.639,2.375-2.375
			c0.576-0.734,1.833-1.667,2.188-2.312C9.666,10.48,8.867,10.751,8.08,10.72c-0.787-0.033-2.988,0.667-3.499,0.466
			c-0.504-0.203-1.327,0.236-1.327,0.236s1.191-0.665,0.075-0.815c-1.114-0.153-2.485-0.404-3.027-0.136
			c-0.543,0.267,1.655-0.435,2.454-1.438C3.554,8.038,3.759,7.845,3.6,7.689C3.438,7.532,3.684,7.828,4.654,7.11
			c0.968-0.719,1.793-0.837,1.609-1.24c-0.18-0.402-0.1-0.898-0.1-0.898s2.107-0.325,3.154-0.71
			c1.048-0.382,1.554-0.498,1.701-0.782c0.149-0.285-0.242-1.452-0.105-1.538c0.141-0.085,3.198,0.098,4.421,0.95
			C16.563,3.742,18.174,5.127,18.174,5.127z"/>
	</g>
</g>
</svg>
