<?xml version="1.0" encoding="utf-8"?>
<!-- Generator: Adobe Illustrator 16.0.0, SVG Export Plug-In . SVG Version: 6.00 Build 0)  -->
<!DOCTYPE svg PUBLIC "-//W3C//DTD SVG 1.1//EN" "http://www.w3.org/Graphics/SVG/1.1/DTD/svg11.dtd">
<svg version="1.1" id="Layer_1" xmlns="http://www.w3.org/2000/svg" xmlns:xlink="http://www.w3.org/1999/xlink" x="0px" y="0px"
	 width="89.732px" height="90.676px" viewBox="0 0 89.732 90.676" enable-background="new 0 0 89.732 90.676" xml:space="preserve">
<g id="Layer_2">
	<rect x="-659.5" y="-264.168" display="none" fill="#FFFFFF" stroke="#000000" stroke-miterlimit="10" width="800" height="399"/>
</g>
<g id="Layer_1_1_" opacity="0.4">
	<g>
		<path fill="#E5CA9D" d="M76.595,16.742c0,0-14.307,9.93-23.279,17.716C40.99,45.154,26.743,60.479,20.939,66.791
			c-5.805,6.314-8.881,16.451-5.648,19.573c3.23,3.12,13.308-0.632,19.233-6.83c5.93-6.197,18.654-20.138,30.19-34.383
			c6.687-8.255,16.188-24.368,16.188-24.368L76.595,16.742z"/>
		<path fill="#E5CA9D" d="M52.594,73.486c-0.894,0.966,2.022,3.675,2.907,2.729c0.888-0.947,1.526-1.636,1.992-2.132
			c1.241-1.322,1.771-3.874,1.771-3.874l-0.923-0.863c0,0-2.517,0.688-3.754,2.014C54.137,71.846,53.485,72.52,52.594,73.486z"/>
		<path fill="#E5CA9D" d="M66.479,75.605c-0.894,0.968,2.021,3.678,2.909,2.729c0.887-0.95,1.526-1.636,1.99-2.131
			c1.242-1.323,1.77-3.875,1.77-3.875l-0.922-0.864c0,0-2.515,0.688-3.753,2.017C68.022,73.966,67.37,74.641,66.479,75.605z"/>
		<path fill="#E5CA9D" d="M44.217,69.048c0,0,34.846,7.29,41.327,8.289c6.479,0.997,9.995-2.655,9.995-2.655L57.398,53.975
			l-7.029,8.155L44.217,69.048z"/>
		<path fill="#E5CA9D" d="M25.681,48.244c-0.907,0.953-3.8-1.784-2.911-2.729c0.892-0.943,1.534-1.628,1.999-2.125
			c1.243-1.323,3.754-2.014,3.754-2.014l0.921,0.866c0,0-0.524,2.555-1.771,3.873C27.218,46.6,26.588,47.293,25.681,48.244z"/>
		<path fill="#E5CA9D" d="M22.674,34.521c-0.906,0.954-3.799-1.783-2.907-2.728c0.889-0.945,1.532-1.629,1.997-2.125
			c1.241-1.323,3.752-2.014,3.752-2.014l0.924,0.863c0,0-0.524,2.557-1.771,3.876C24.212,32.876,23.581,33.57,22.674,34.521z"/>
		<path fill="#E5CA9D" d="M31.03,56.038c0,0-9.896-34.026-11.304-40.43c-1.413-6.407,2.008-10.146,2.008-10.146l23.081,36.771
			l-9.293,9.179L31.03,56.038z"/>
		<path fill="#E5CA9D" d="M77.174,26.917c0,0,7.019,1.729,13.966,2.696c5.128,0.714,7.217-3.006,7.217-3.006l-14.61-10.088
			l-2.842,4.265L77.174,26.917z"/>
		<path fill="#E5CA9D" d="M70.709,20.936c0,0-2.229-7.027-3.641-13.896c-1.04-5.072,2.539-7.394,2.539-7.394l11.077,14.025
			l-4.092,3.07L70.709,20.936z"/>
		<path fill="#E5CA9D" d="M78.648,24.493c4.926-7.606,4.924-7.604,6.178-9.467c1.728-2.567,2.063-4.894,2.063-4.894
			s-2.052,0.385-4.69,2.322c-1.731,1.27-1.731,1.27-8.787,6.556"/>
	</g>
</g>
</svg>
