<?xml version="1.0" encoding="utf-8"?>
<!-- Generator: Adobe Illustrator 16.0.0, SVG Export Plug-In . SVG Version: 6.00 Build 0)  -->
<!DOCTYPE svg PUBLIC "-//W3C//DTD SVG 1.1//EN" "http://www.w3.org/Graphics/SVG/1.1/DTD/svg11.dtd">
<svg version="1.1" id="Layer_1" xmlns="http://www.w3.org/2000/svg" xmlns:xlink="http://www.w3.org/1999/xlink" x="0px" y="0px"
	 width="89.732px" height="90.676px" viewBox="0 0 89.732 90.676" enable-background="new 0 0 89.732 90.676" xml:space="preserve">
<g id="Layer_2">
	<rect x="-659.5" y="-264.168" display="none" fill="#FFFFFF" stroke="#000000" stroke-miterlimit="10" width="800" height="399"/>
</g>
<g id="Layer_1_1_" opacity="0.2">
	<g>
		<path fill="#E5CA9D" d="M69.239,5.045c0,0-15.275,8.366-25.018,15.163c-13.385,9.337-29.167,23.075-35.604,28.74
			c-6.44,5.667-10.565,15.423-7.68,18.869c2.884,3.442,13.302,0.774,19.846-4.766c6.55-5.537,20.673-18.059,33.644-31.009
			c7.521-7.504,18.668-22.525,18.668-22.525L69.239,5.045z"/>
		<path fill="#E5CA9D" d="M39.39,58.942c-0.993,0.866,1.622,3.868,2.601,3.02c0.985-0.848,1.69-1.465,2.206-1.909
			c1.375-1.185,2.169-3.666,2.169-3.666l-0.828-0.956c0,0-2.575,0.42-3.945,1.606C41.097,57.474,40.377,58.075,39.39,58.942z"/>
		<path fill="#E5CA9D" d="M52.973,62.514c-0.992,0.868,1.621,3.87,2.605,3.02c0.982-0.851,1.689-1.466,2.201-1.909
			c1.375-1.185,2.172-3.666,2.172-3.666l-0.826-0.957c0,0-2.576,0.419-3.945,1.609C54.68,61.046,53.962,61.648,52.973,62.514z"/>
		<path fill="#E5CA9D" d="M31.526,53.646c0,0,33.885,10.923,40.223,12.6c6.34,1.675,10.221-1.587,10.221-1.587L46.223,40.046
			l-7.85,7.369L31.526,53.646z"/>
		<path fill="#E5CA9D" d="M15.287,31.004c-1.003,0.852-3.593-2.175-2.607-3.021c0.986-0.844,1.697-1.458,2.212-1.903
			c1.376-1.185,3.945-1.607,3.945-1.607l0.825,0.958c0,0-0.791,2.485-2.17,3.665C16.988,29.531,16.289,30.154,15.287,31.004z"/>
		<path fill="#E5CA9D" d="M13.743,17.041c-1,0.854-3.59-2.173-2.602-3.019c0.983-0.846,1.693-1.458,2.21-1.902
			c1.372-1.185,3.943-1.607,3.943-1.607l0.828,0.956c0,0-0.791,2.488-2.17,3.667C15.446,15.567,14.745,16.19,13.743,17.041z"/>
		<path fill="#E5CA9D" d="M19.784,39.319c0,0-6.254-34.879-6.979-41.396c-0.73-6.52,3.066-9.878,3.066-9.878l19.077,38.999
			L24.74,35.192L19.784,39.319z"/>
		<path fill="#E5CA9D" d="M68.741,15.224c0,0,6.799,2.459,13.605,4.153c5.023,1.251,7.494-2.229,7.494-2.229L76.374,5.577
			l-3.275,3.942L68.741,15.224z"/>
		<path fill="#E5CA9D" d="M62.942,8.595c0,0-1.475-7.223-2.156-14.202c-0.498-5.154,3.305-7.085,3.305-7.085l9.537,15.114
			l-4.395,2.622L62.942,8.595z"/>
		<path fill="#E5CA9D" d="M70.462,12.969c5.701-7.044,5.699-7.042,7.143-8.763c1.99-2.371,2.566-4.649,2.566-4.649
			s-2.082,0.167-4.908,1.815c-1.855,1.081-1.855,1.081-9.43,5.593"/>
	</g>
</g>
</svg>
